<svg xmlns="http://www.w3.org/2000/svg" clip-rule="evenodd" fill-rule="evenodd" image-rendering="optimizeQuality" shape-rendering="geometricPrecision" text-rendering="geometricPrecision" viewBox="0 0 593.99 472.99" style="fill: rgb(0, 0, 0);" original_string_length="3317"><g><path d="M376.19 351.79l-38.45 0c-1.99,0 -3.98,0.19 -5.94,0.53l-5.6 1.01 -66.55 -66.55 1.01 -5.6c0.35,-1.96 0.53,-3.95 0.53,-5.94l0 -50.55c0,-18.6 -15.21,-33.81 -33.81,-33.81l-50.55 0c-18.6,0 -33.82,15.21 -33.82,33.81l0 50.55c0,1.8 0.15,3.58 0.42,5.34l1.01 6.49 -53.14 39.53 -4.42 -0.62c-0.76,-0.1 -1.53,-0.15 -2.31,-0.15l-47.55 0c-9.63,0 -17.55,7.92 -17.55,17.55l0 47.55c0,9.63 7.92,17.54 17.55,17.54l47.55 0c9.63,0 17.55,-7.91 17.55,-17.54l0 -49.79 52.83 -39.27 6.07 3.24c4.88,2.6 10.28,3.94 15.81,3.94l50.55 0c1.99,0 3.98,-0.18 5.94,-0.53l5.6 -1.01 66.55 66.55 -1.01 5.6c-0.35,1.96 -0.53,3.95 -0.53,5.94l0 50.57c0,18.6 15.21,33.81 33.81,33.81l50.56 0c18.6,0 33.81,-15.21 33.81,-33.81l0 -50.57c0,-8.94 -3.58,-17.49 -9.87,-23.82l-5.52 -5.54 98.28 -196.57 55.55 0c18.34,0 33.42,-15.06 33.42,-33.41l0 -74.12c0,-18.36 -15.06,-33.42 -33.42,-33.42l-74.12 0c-18.35,0 -33.41,15.06 -33.41,33.42l0 74.12c0,10.36 4.83,20.02 12.98,26.36l7.02 5.48 -96.85 193.69z" style="fill: rgb(255, 255, 255);"/><path d="M370.6 48.66c-10.05,0 -18.27,8.23 -18.27,18.27l0 30.58c0,10.05 8.22,18.27 18.27,18.27l30.58 0c10.05,0 18.27,-8.23 18.27,-18.27l0 -30.58c0,-10.05 -8.23,-18.27 -18.27,-18.27l-30.58 0z" style="fill: rgb(169, 171, 174);"/><path d="M230.13 18.72c-18.41,0 -33.47,15.07 -33.47,33.48l0 56c0,18.41 15.06,33.47 33.47,33.47l56 0c18.41,0 33.47,-15.07 33.47,-33.47l0 -56c0,-18.41 -15.06,-33.48 -33.47,-33.48l-56 0z" style="fill: rgb(140, 82, 255);"/><path d="M171.68 379.47c-13.55,0 -24.64,11.09 -24.64,24.64l0 41.23c0,13.55 11.09,24.64 24.64,24.64l41.23 0c13.55,0 24.64,-11.09 24.64,-24.64l0 -41.23c0,-13.55 -11.09,-24.64 -24.64,-24.64l-41.23 0z" style="fill: rgb(140, 82, 255);"/><path d="M497.15 339.93c-19.92,0 -36.23,16.3 -36.23,36.23l0 60.61c0,19.92 16.3,36.23 36.23,36.23l60.61 0c19.92,0 36.23,-16.3 36.23,-36.23l0 -60.61c0,-19.92 -16.3,-36.23 -36.23,-36.23l-60.61 0z" style="fill: rgb(169, 171, 174);"/><path d="M524.83 212.82c-10.96,0 -19.94,8.97 -19.94,19.93l0 33.35c0,10.96 8.97,19.93 19.94,19.93l33.35 0c10.96,0 19.93,-8.97 19.93,-19.93l0 -33.35c0,-10.96 -8.97,-19.93 -19.93,-19.93l-33.35 0z" style="fill: rgb(140, 82, 255);"/><path d="M329 157.77c-14.33,0 -26.06,11.73 -26.06,26.06l0 43.6c0,14.33 11.73,26.06 26.06,26.06l43.6 0c14.33,0 26.06,-11.73 26.06,-26.06l0 -43.6c0,-14.33 -11.73,-26.06 -26.06,-26.06l-43.6 0z" style="fill: rgb(255, 255, 255);"/><path d="M41.34 156.6c-12.02,0 -21.86,9.84 -21.86,21.86l0 36.58c0,12.02 9.84,21.86 21.86,21.86l36.58 0c12.02,0 21.86,-9.84 21.86,-21.86l0 -36.58c0,-12.02 -9.84,-21.86 -21.86,-21.86l-36.58 0z" style="fill: rgb(140, 82, 255);"/><path d="M125.01 93.38c-9.79,0 -17.81,8.02 -17.81,17.81l0 29.8c0,9.79 8.01,17.81 17.81,17.81l29.8 0c9.79,0 17.81,-8.02 17.81,-17.81l0 -29.8c0,-9.79 -8.01,-17.81 -17.81,-17.81l-29.8 0z" style="fill: rgb(255, 255, 255);"/><path d="M101.59 0c-8.24,0 -14.98,6.74 -14.98,14.98l0 25.08c0,8.24 6.74,14.98 14.98,14.98l25.07 0c8.24,0 14.98,-6.74 14.98,-14.98l0 -25.08c0,-8.24 -6.74,-14.98 -14.98,-14.98l-25.07 0z" style="fill: rgb(0, 175, 239);"/><path d="M11.9 37.03c-6.54,0 -11.9,5.35 -11.9,11.9l0 19.91c0,6.54 5.35,11.9 11.9,11.9l19.91 0c6.54,0 11.9,-5.36 11.9,-11.9l0 -19.91c0,-6.55 -5.35,-11.9 -11.9,-11.9l-19.91 0z" style="fill: rgb(169, 171, 174);"/></g></svg>