<svg width="132" height="31" viewBox="0 0 132 31" fill="none" xmlns="http://www.w3.org/2000/svg">
<g clip-path="url(#clip0_149_600)">
<path d="M5.168 24.412H0V0H9.554C15.708 0 19.278 2.856 19.278 7.922C19.278 11.22 17.238 13.838 13.77 14.994L20.06 24.412H13.906L8.398 15.776H5.168V24.412ZM5.168 4.284V11.526H9.316C12.444 11.526 14.11 10.302 14.11 7.922C14.11 5.508 12.444 4.284 9.316 4.284H5.168Z" fill="white"/>
<path d="M29.5917 24.718C24.1517 24.718 20.5137 20.944 20.5137 15.266C20.5137 9.86 24.2877 5.916 29.5237 5.916C35.2697 5.916 39.0777 10.574 38.2277 16.49H25.3417C25.6477 19.448 27.0757 21.08 29.4897 21.08C31.5637 21.08 32.9577 20.06 33.5017 18.258H38.1937C37.1737 22.372 34.0117 24.718 29.5917 24.718ZM29.4217 9.384C27.2117 9.384 25.8177 10.812 25.4097 13.498H33.2297C33.0937 10.982 31.6657 9.384 29.4217 9.384Z" fill="white"/>
<path d="M45.7532 24.412H40.9932V0H45.7532V24.412Z" fill="white"/>
<path d="M60.4032 24.412V22.168C59.2132 23.868 57.4112 24.752 54.9292 24.752C51.1552 24.752 48.6392 22.542 48.6392 19.142C48.6392 15.606 51.4952 13.702 56.7992 13.702C57.8192 13.702 58.7032 13.77 59.8252 13.906V12.818C59.8252 10.778 58.6692 9.588 56.6972 9.588C54.6572 9.588 53.4332 10.778 53.2632 12.818H49.0132C49.2852 8.636 52.3112 5.916 56.6972 5.916C61.4572 5.916 64.2452 8.534 64.2452 12.988V24.412H60.4032ZM53.0932 19.006C53.0932 20.536 54.1812 21.488 55.9492 21.488C58.3632 21.488 59.8252 20.162 59.8252 18.054V16.762C58.7032 16.592 57.9212 16.524 57.1052 16.524C54.4192 16.524 53.0932 17.374 53.0932 19.006Z" fill="white"/>
<path d="M83.6409 6.256L74.8009 30.974H69.6669L72.2509 24.208L65.1109 6.256H70.2109L74.7669 18.7L78.9149 6.256H83.6409Z" fill="white"/>
<path d="M92.9987 24.684C87.7627 24.684 84.1247 21.182 84.1247 17.068C84.1247 14.178 84.9747 12.342 87.1167 9.792L94.0527 1.428H99.3907L92.7947 9.486C93.1687 9.35 93.5427 9.316 93.9167 9.316C98.6087 9.316 101.907 12.41 101.907 16.762C101.907 21.182 98.2347 24.684 92.9987 24.684ZM93.0327 20.74C95.1747 20.74 97.0107 19.38 97.0107 16.932C97.0107 14.314 95.1747 13.022 93.0327 13.022C90.8907 13.022 89.0547 14.212 89.0547 16.898C89.0547 19.38 90.8907 20.74 93.0327 20.74Z" fill="white"/>
<path d="M111.191 24.412H106.465V5.508H102.113V1.428H111.191V24.412Z" fill="white"/>
<path d="M123.044 24.752C118.148 24.752 114.442 21.692 114.306 17.408H119.032C119.304 19.414 120.868 20.536 123.01 20.536C125.798 20.536 126.852 18.768 126.852 16.898C126.852 15.096 125.662 13.26 122.874 13.26C121.038 13.26 119.678 14.008 118.964 15.572L115.088 14.314L117.094 1.428H130.388V5.644H120.528L119.814 10.336C120.97 9.588 122.296 9.248 123.656 9.248C129.13 9.248 131.748 13.022 131.748 16.898C131.748 20.842 128.824 24.752 123.044 24.752Z" fill="white"/>
</g>
<defs>
<clipPath id="clip0_149_600">
<rect width="132" height="31" fill="white"/>
</clipPath>
</defs>
</svg>
