<?xml version="1.0" encoding="utf-8"?>
<!-- Generator: Adobe Illustrator 24.3.0, SVG Export Plug-In . SVG Version: 6.00 Build 0)  -->
<svg version="1.1" id="Layer_1" xmlns="http://www.w3.org/2000/svg" xmlns:xlink="http://www.w3.org/1999/xlink" x="0px" y="0px"
	 viewBox="0 0 36 36" style="enable-background:new 0 0 36 36;" xml:space="preserve">
<style type="text/css">
	.st0{fill:#2B4DFF;}
</style>
<path class="st0" d="M18,23.3c-0.4,0-0.8-0.4-0.8-0.8v-0.8l-0.1,0c-1.4-0.4-2.3-1.8-2.1-3.3c0.2-1.5,1.5-2.5,2.9-2.5
	c1.5,0,2.7,1.1,3,2.5c0.2,1.5-0.6,2.9-2.1,3.3l-0.1,0v0.8C18.8,22.9,18.4,23.3,18,23.3z M18,17.4c-0.4,0-0.7,0.1-1,0.4
	c-0.4,0.4-0.5,1-0.3,1.5c0.2,0.5,0.7,0.8,1.3,0.8c0.7,0,1.4-0.6,1.4-1.4c0-0.6-0.3-1-0.8-1.3C18.4,17.4,18.2,17.4,18,17.4z"/>
<path class="st0" d="M33,34.2c-1.4,0-2.6-1-2.8-2.4c-0.2-1.4,0.6-2.7,1.9-3.2l0.1,0v-0.7c0-0.6-0.4-1.2-0.9-1.5l-2.6-1.2l0,0
	c-0.6,0.6-1.3,1.1-2,1.5l-6.5,3.8C19.5,30.8,18.7,31,18,31c-0.7,0-1.5-0.2-2.1-0.5l-6.5-3.8c-0.7-0.4-1.4-1-2-1.5l0,0l-2.6,1.2
	c-0.6,0.3-0.9,0.8-0.9,1.5v0.7l0.1,0C5.2,29,6,30.3,5.8,31.7c-0.2,1.4-1.4,2.4-2.8,2.4c-1.4,0-2.6-1-2.8-2.4
	c-0.2-1.4,0.6-2.7,1.9-3.2l0.1,0v-0.7c0-1.2,0.7-2.4,1.9-2.9l2.7-1.3l0-0.1c0-0.5-0.1-1.1-0.1-1.6v-2H5.7l0,0.1
	c-0.4,1.2-1.5,2-2.7,2c-0.1,0-0.3,0-0.5,0c-1.4-0.2-2.4-1.4-2.4-2.8c0-1.4,1-2.6,2.4-2.8c0.2,0,0.3,0,0.4,0c1.2,0,2.3,0.8,2.7,2
	l0,0.1h0.9v-1.2c0-0.8,0-1.5,0.2-2.3l0-0.1L4,13.4c-1.1-0.5-1.9-1.7-1.9-2.9V9.8l-0.1,0C0.7,9.3-0.1,8,0.1,6.6
	C0.4,5.2,1.6,4.2,3,4.2c1.4,0,2.6,1,2.8,2.4C6,8,5.2,9.3,3.9,9.7l-0.1,0v0.7c0,0.6,0.4,1.2,0.9,1.5l3.1,1.5l0,0
	c0.3-0.2,0.7-0.5,1.1-0.8l0-5.1c0-1.5,0.6-2.9,1.7-4c1.1-1.1,2.5-1.7,4-1.7h6.5c1.5,0,3,0.6,4,1.7S27,6,27,7.5l0,5
	c0.5,0.4,0.8,0.6,1.1,0.9l0,0l3.1-1.5c0.6-0.3,0.9-0.8,0.9-1.5V9.8l-0.1,0C30.8,9.3,30,8,30.2,6.6c0.2-1.4,1.4-2.4,2.8-2.4
	c1.4,0,2.6,1,2.8,2.4c0.2,1.4-0.6,2.7-1.9,3.2l-0.1,0v0.7c0,1.2-0.7,2.4-1.9,2.9l-2.8,1.3l0,0.1c0.2,0.7,0.2,1.5,0.2,2.3v1.2h0.9
	l0-0.1c0.4-1.2,1.5-2,2.7-2c0.1,0,0.3,0,0.4,0c1.4,0.2,2.4,1.4,2.4,2.8c0,1.4-1,2.6-2.4,2.8c-0.2,0-0.3,0-0.5,0
	c-1.2,0-2.3-0.8-2.7-2l0-0.1h-0.9v2c0,0.5,0,1.1-0.1,1.6l0,0.1l2.7,1.3c1.1,0.5,1.9,1.7,1.9,2.9v0.7l0.1,0c1.3,0.4,2.2,1.8,1.9,3.2
	C35.6,33.1,34.4,34.2,33,34.2z M33,30.1c-0.3,0-0.6,0.1-0.9,0.4c-0.4,0.4-0.5,0.9-0.3,1.3c0.2,0.5,0.6,0.8,1.1,0.8h0.1v0
	c0.6-0.1,1.1-0.6,1.1-1.2c0-0.5-0.3-0.9-0.8-1.1C33.3,30.1,33.2,30.1,33,30.1z M3,30.1c-0.3,0-0.6,0.1-0.9,0.4
	c-0.4,0.4-0.5,0.9-0.3,1.3C2,32.2,2.5,32.5,3,32.5h0.1l0,0c0.6,0,1.1-0.6,1.1-1.2c0-0.5-0.3-0.9-0.8-1.1C3.3,30.1,3.1,30.1,3,30.1z
	 M10.2,13.8c-1.9,1.3-1.9,1.3-1.9,3.4V22c0,2,0,2.1,2,3.4l6.4,3.7c0.4,0.2,0.9,0.3,1.3,0.3c0.5,0,1-0.1,1.4-0.3l6.4-3.7
	c1.9-1.3,1.9-1.3,1.9-3.4v-4.8c0-2,0-2.1-2-3.4L19.4,10c-0.4-0.2-0.9-0.3-1.3-0.3h0c-0.5,0-1,0.1-1.4,0.3l0.1,0.2l-0.1-0.2
	L10.2,13.8z M3,17.9c-0.3,0-0.6,0.1-0.9,0.4c-0.4,0.4-0.5,0.9-0.3,1.3C2,20.1,2.5,20.4,3,20.4H3l0,0c0.6,0,1.2-0.6,1.2-1.2
	c0-0.5-0.3-0.9-0.8-1.1C3.3,18,3.1,17.9,3,17.9z M33,17.9c-0.7,0-1.2,0.6-1.2,1.2c0,0.5,0.3,0.9,0.8,1.1c0.1,0.1,0.3,0.1,0.5,0.1
	c0.3,0,0.6-0.1,0.9-0.4c0.4-0.4,0.5-0.9,0.3-1.3C34,18.2,33.5,17.9,33,17.9L33,17.9z M14.7,3.5c-2.2,0-4.1,1.8-4.1,4.1v4.1l5.2-3
	c0.7-0.3,1.4-0.5,2.2-0.5c0.7,0,1.5,0.2,2.1,0.5l5.2,3V7.5c0-2.2-1.8-4.1-4.1-4.1H14.7z M33,5.8c-0.7,0-1.2,0.6-1.2,1.2
	c0,0.5,0.3,0.9,0.8,1.1c0.2,0.1,0.3,0.1,0.5,0.1c0.3,0,0.6-0.1,0.9-0.4c0.4-0.4,0.5-0.9,0.3-1.3C34,6.1,33.5,5.8,33,5.8z M3,5.8
	C2.3,5.8,1.7,6.3,1.7,7C1.7,7.5,2,8,2.5,8.2C2.6,8.2,2.8,8.3,3,8.3c0.3,0,0.6-0.1,0.9-0.4C4.2,7.5,4.3,7,4.1,6.6
	C3.9,6.1,3.5,5.8,3,5.8z"/>
</svg>
