<?xml version="1.0" encoding="utf-8"?>
<!-- Generator: Adobe Illustrator 24.3.0, SVG Export Plug-In . SVG Version: 6.00 Build 0)  -->
<svg version="1.1" id="Layer_1" xmlns="http://www.w3.org/2000/svg" xmlns:xlink="http://www.w3.org/1999/xlink" x="0px" y="0px"
	 viewBox="0 0 36 36" style="enable-background:new 0 0 36 36;" xml:space="preserve">
<style type="text/css">
	.st0{fill:#2B4DFF;}
</style>
<g>
	<path class="st0" d="M18.8,30H2.2c-0.4,0-0.8-0.3-0.8-0.8v-27c0-0.4,0.3-0.8,0.8-0.8h7.5c0.4,0,0.8,0.3,0.8,0.8V6H6.8
		C6.3,6,6,6.3,6,6.8s0.3,0.8,0.8,0.8h22.5c0.4,0,0.8,0.3,0.8,0.8v6c0,0.4,0.3,0.8,0.8,0.8s0.8-0.3,0.8-0.8v-6c0-1.2-1-2.2-2.2-2.2
		H12V2.2C12,1,11,0,9.8,0H2.2C1,0,0,1,0,2.2v27c0,1.2,1,2.2,2.2,2.2h16.5c0.4,0,0.8-0.3,0.8-0.8S19.2,30,18.8,30z"/>
	<path class="st0" d="M33.8,24v-2.2c0-2.9-2.4-5.2-5.2-5.2s-5.2,2.4-5.2,5.2l0,0V24C22,24,21,25,21,26.2v7.5c0,1.2,1,2.2,2.2,2.2
		h10.5c1.2,0,2.2-1,2.2-2.2v-7.5C36,25,35,24,33.8,24z M24.8,21.8c0-2.1,1.7-3.8,3.8-3.8s3.8,1.7,3.8,3.8V24h-7.5V21.8z M34.5,33.8
		c0,0.4-0.3,0.8-0.8,0.8H23.2c-0.4,0-0.8-0.3-0.8-0.8v-7.5c0-0.4,0.3-0.8,0.8-0.8h10.5c0.4,0,0.8,0.3,0.8,0.8V33.8z"/>
	<path class="st0" d="M28.5,27c-1.2,0-2.2,1-2.2,2.3c0,0.9,0.6,1.8,1.5,2.1v0.9c0,0.4,0.3,0.8,0.8,0.8s0.8-0.3,0.8-0.8v-0.9
		c1.2-0.4,1.8-1.7,1.3-2.9C30.3,27.6,29.4,27,28.5,27z M28.5,30c-0.4,0-0.8-0.3-0.8-0.8s0.3-0.8,0.8-0.8s0.8,0.3,0.8,0.8
		S28.9,30,28.5,30z"/>
	<path class="st0" d="M12.8,24.8h-2.4C10,23.6,8.7,23,7.5,23.4c-1.2,0.4-1.8,1.7-1.4,2.9C6.5,27.4,7.8,28,9,27.6
		c0.6-0.2,1.1-0.7,1.4-1.4h2.4c2.1,0,3.8-1.7,3.8-3.8v-3H21c0.4,0,0.8-0.3,0.8-0.8S21.4,18,21,18h-4.5v-3c0-2.1-1.7-3.8-3.8-3.8
		h-2.4C10,10.1,8.7,9.5,7.5,9.9c-1.2,0.4-1.8,1.7-1.4,2.9c0.4,1.2,1.7,1.8,2.9,1.4c0.6-0.2,1.1-0.7,1.4-1.4h2.4c1.2,0,2.2,1,2.2,2.2
		v3h-4.6c-0.4-1.2-1.7-1.8-2.9-1.4c-1.2,0.4-1.8,1.7-1.4,2.9c0.4,1.2,1.7,1.8,2.9,1.4c0.6-0.2,1.1-0.7,1.4-1.4H15v3
		C15,23.7,14,24.8,12.8,24.8z M8.2,26.2c-0.4,0-0.8-0.3-0.8-0.8s0.3-0.8,0.8-0.8S9,25.1,9,25.5S8.7,26.2,8.2,26.2z M8.2,12.8
		c-0.4,0-0.8-0.3-0.8-0.8c0-0.4,0.3-0.8,0.8-0.8S9,11.6,9,12C9,12.4,8.7,12.8,8.2,12.8z M8.2,19.5c-0.4,0-0.8-0.3-0.8-0.8
		S7.8,18,8.2,18S9,18.3,9,18.8S8.7,19.5,8.2,19.5z"/>
</g>
</svg>
