<?xml version="1.0" encoding="utf-8"?>
<!-- Generator: Adobe Illustrator 24.3.0, SVG Export Plug-In . SVG Version: 6.00 Build 0)  -->
<svg version="1.1" id="Layer_1" xmlns="http://www.w3.org/2000/svg" xmlns:xlink="http://www.w3.org/1999/xlink" x="0px" y="0px"
	 viewBox="0 0 36 36" style="enable-background:new 0 0 36 36;" xml:space="preserve">
<style type="text/css">
	.st0{fill:#2B4DFF;}
</style>
<g>
	<path class="st0" d="M20.3,28.8l-4.9-3.3c0.4-0.3,0.7-0.7,0.8-1.2c0.1-0.5,0-0.9-0.2-1.3c3.5-1.4,7.6-2,11.7-1.5
		c1.1,0.1,2-0.4,2.6-1.3c0.5-0.9,0.5-2-0.1-2.8l-2.2-3.3c0.6-0.5,1-1.2,1.1-2c0.2-1,0-1.9-0.5-2.8c-0.5-0.8-1.4-1.4-2.3-1.6
		c-0.8-0.2-1.6-0.1-2.3,0.3l-2.4-3.6c-0.6-0.9-1.6-1.3-2.6-1.1c-1,0.2-1.9,0.9-2.1,1.9c-1.1,4-3.1,7.5-5.7,10.3
		c-0.6-0.7-1.7-0.9-2.5-0.4l-5,3.3c-0.9,0.6-1.1,1.8-0.5,2.7L3,21.5l-0.7,2c-0.1,0.4-0.1,0.9,0.2,1.2l1.7,2.6
		C4.5,27.7,4.9,28,5.3,28l2.1,0.2l0.2,0.3c0.4,0.6,1,0.9,1.6,0.9c0.4,0,0.7-0.1,1.1-0.3l0.3-0.2l6.8,4.5c0.4,0.3,0.9,0.4,1.4,0.4
		c0.5,0,1-0.1,1.5-0.4c0.7-0.5,1.2-1.3,1.2-2.2C21.5,30.1,21,29.3,20.3,28.8z M25.9,9c0.7,0.1,1.3,0.5,1.6,1.1
		c0.4,0.6,0.5,1.3,0.4,1.9c-0.1,0.5-0.3,0.9-0.7,1.3l-2.8-4.2C24.9,8.9,25.4,8.9,25.9,9z M5.4,26.9c-0.1,0-0.2-0.1-0.2-0.1l-1.7-2.6
		c0-0.1-0.1-0.2,0-0.2l0.4-1.2L6.6,27L5.4,26.9z M17.7,5.7c0.2-0.7,0.8-1,1.2-1.1c0.6-0.1,1.1,0.1,1.5,0.6l8.7,12.9
		c0.3,0.5,0.4,1.1,0,1.6c-0.2,0.4-0.8,0.8-1.5,0.7c-4.4-0.5-8.7,0.1-12.4,1.6l-3.7-5.5C14.4,13.7,16.5,10,17.7,5.7z M8.5,27.8
		l-4.7-7.1c-0.2-0.4-0.1-0.9,0.2-1.1l5-3.3c0.1-0.1,0.3-0.1,0.4-0.1c0.3,0,0.5,0.1,0.7,0.4l4.7,7.1C15,23.8,15,24,15,24.2
		c0,0.2-0.2,0.4-0.3,0.5l-5,3.3C9.3,28.3,8.8,28.2,8.5,27.8z M19.7,32.3c-0.5,0.3-1.2,0.3-1.7,0l-6.4-4.2l2.7-1.8l5.3,3.5
		c0.4,0.3,0.7,0.7,0.7,1.3C20.3,31.5,20.1,32,19.7,32.3z"/>
	<path class="st0" d="M29.6,8.3c0.1,0,0.3-0.1,0.4-0.2l1.1-1.1c0.2-0.2,0.2-0.6,0-0.8s-0.6-0.2-0.8,0l-1.1,1.1
		c-0.2,0.2-0.2,0.6,0,0.8C29.3,8.2,29.5,8.3,29.6,8.3z"/>
	<path class="st0" d="M27.3,7.3C27.3,7.3,27.3,7.3,27.3,7.3c0.3,0,0.6-0.2,0.6-0.5l0-1.5c0-0.3-0.2-0.6-0.5-0.6
		c-0.3,0-0.6,0.2-0.6,0.5l0,1.5C26.7,7,26.9,7.3,27.3,7.3z"/>
	<path class="st0" d="M30,10.1c0,0.3,0.2,0.6,0.5,0.6l1.5,0c0,0,0,0,0,0c0.3,0,0.6-0.2,0.6-0.5c0-0.3-0.2-0.6-0.5-0.6l-1.5,0
		C30.3,9.6,30,9.8,30,10.1z"/>
	<path class="st0" d="M10.4,18.6c-0.2-0.3-0.5-0.3-0.8-0.2l-3.8,2.5c-0.3,0.2-0.3,0.5-0.2,0.8C5.7,21.9,5.9,22,6.1,22
		c0.1,0,0.2,0,0.3-0.1l3.8-2.5C10.4,19.2,10.5,18.9,10.4,18.6z"/>
	<path class="st0" d="M11.7,20.6c-0.2-0.3-0.5-0.3-0.8-0.2l-3.8,2.5c-0.3,0.2-0.3,0.5-0.2,0.8c0.1,0.2,0.3,0.3,0.5,0.3
		c0.1,0,0.2,0,0.3-0.1l3.8-2.5C11.8,21.2,11.9,20.9,11.7,20.6z"/>
	<path class="st0" d="M13.1,22.6c-0.2-0.3-0.5-0.3-0.8-0.2l-3.8,2.5c-0.3,0.2-0.3,0.5-0.2,0.8c0.1,0.2,0.3,0.3,0.5,0.3
		c0.1,0,0.2,0,0.3-0.1l3.8-2.5C13.2,23.2,13.2,22.8,13.1,22.6z"/>
	<path class="st0" d="M12.6,10.3v-6c0-1.1-0.9-2-2-2H2c-1.1,0-2,0.9-2,2v6c0,1.1,0.9,2,2,2h8.6C11.7,12.3,12.6,11.4,12.6,10.3z
		 M1.1,10.3v-6c0-0.5,0.4-0.9,0.9-0.9h8.6c0.5,0,0.9,0.4,0.9,0.9v6c0,0.5-0.4,0.9-0.9,0.9H2C1.5,11.2,1.1,10.8,1.1,10.3z"/>
	<path class="st0" d="M6.3,4.8c-0.4-0.3-1-0.4-1.5-0.2C4.3,4.8,4,5.3,4,5.9v2.9c0,0.5,0.3,1,0.8,1.3c0.2,0.1,0.4,0.1,0.6,0.1
		c0.3,0,0.6-0.1,0.9-0.3l1.8-1.4c0.3-0.3,0.5-0.7,0.5-1.1c0-0.4-0.2-0.8-0.5-1.1L6.3,4.8z M7.4,7.6L5.6,9C5.5,9.1,5.3,9.1,5.3,9
		C5.2,9,5.1,8.9,5.1,8.8V5.9c0-0.2,0.1-0.2,0.2-0.3c0,0,0.1,0,0.1,0c0.1,0,0.1,0,0.2,0.1l1.8,1.4c0.1,0.1,0.1,0.2,0.1,0.2
		C7.5,7.4,7.5,7.5,7.4,7.6z"/>
	<path class="st0" d="M35.3,23.1c-0.4-0.4-0.9-0.6-1.5-0.6h-9.3c-0.6,0-1.1,0.2-1.4,0.6c-0.4,0.4-0.7,1-0.7,1.5v5
		c0,0.6,0.3,1.2,0.7,1.6c0.4,0.3,0.9,0.5,1.4,0.5h9.3c0.5,0,1-0.2,1.4-0.5c0.5-0.4,0.7-1,0.7-1.6v-5C36,24,35.8,23.5,35.3,23.1z
		 M34.9,24.6v5c0,0.1,0,0.3-0.1,0.4l-3.5-2.5l3.6-3.1C34.9,24.4,34.9,24.5,34.9,24.6z M23.6,29.6v-5c0-0.1,0-0.2,0-0.3l3.6,3.1
		L23.6,30C23.6,29.9,23.6,29.7,23.6,29.6z M28,28.2l0.2,0.1c0.3,0.3,0.7,0.4,1,0.4c0.4,0,0.7-0.1,1-0.4l0.2-0.1l3.3,2.4h-9L28,28.2z
		 M33.9,23.6C33.9,23.6,33.9,23.6,33.9,23.6l-4.4,3.9c-0.2,0.1-0.4,0.1-0.6,0l-4.4-3.9c0,0,0,0,0.1,0H33.9z"/>
</g>
</svg>
