<?xml version="1.0" encoding="utf-8"?>
<!-- Generator: Adobe Illustrator 24.3.0, SVG Export Plug-In . SVG Version: 6.00 Build 0)  -->
<svg version="1.1" id="Layer_1" xmlns="http://www.w3.org/2000/svg" xmlns:xlink="http://www.w3.org/1999/xlink" x="0px" y="0px"
	 viewBox="0 0 36 36" style="enable-background:new 0 0 36 36;" xml:space="preserve">
<style type="text/css">
	.st0{fill:#2B4DFF;}
</style>
<g>
	<path class="st0" d="M31.9,4.5h-1.7C30.1,4.2,29.8,4,29.4,4c-0.3,0-0.5-0.3-0.5-0.3c0-0.1-0.1-0.4,0.1-0.6c0.2-0.2,0.2-0.4,0.2-0.6
		S29.2,2,29,1.9l-0.7-0.7c-0.3-0.3-0.8-0.3-1.2,0c-0.2,0.2-0.5,0.1-0.6,0.1s-0.3-0.2-0.3-0.5c0-0.5-0.4-0.8-0.8-0.8h-0.9
		c-0.5,0-0.8,0.4-0.8,0.8c0,0.3-0.3,0.5-0.3,0.5c-0.1,0-0.4,0.1-0.6-0.1c-0.3-0.3-0.8-0.3-1.2,0l-0.7,0.7c-0.2,0.2-0.2,0.4-0.2,0.6
		s0.1,0.4,0.2,0.6c0.2,0.2,0.1,0.5,0.1,0.6C21,3.7,20.9,4,20.6,4c-0.3,0-0.6,0.2-0.8,0.5H4.7c-1.5,0-2.7,1.2-2.7,2.7v17.9
		c0,1.5,1.2,2.7,2.7,2.7h8.8c0,1.7-0.4,3.4-0.9,4.4h-1.8c-1,0-1.9,0.8-1.9,1.9S9.7,36,10.7,36h14.6c1,0,1.9-0.8,1.9-1.9
		c0-1-0.8-1.9-1.9-1.9h-1.8c-0.5-1-0.9-2.8-1-4.4h8.9c1.5,0,2.7-1.2,2.7-2.7V6.6C34.1,5.4,33.1,4.5,31.9,4.5z M20.8,5
		c0.6-0.1,1-0.4,1.2-1c0.2-0.5,0.1-1.1-0.2-1.6l0.4-0.4c0.4,0.3,1,0.4,1.6,0.2c0.5-0.2,0.9-0.7,1-1.2h0.6c0.1,0.6,0.4,1,1,1.2
		c0.5,0.2,1.1,0.1,1.6-0.2l0.4,0.4c-0.3,0.4-0.4,1-0.2,1.6c0.2,0.5,0.7,0.9,1.2,1v0.6c-0.6,0.1-1,0.4-1.2,1C27.8,7,27.8,7.6,28.2,8
		l-0.4,0.4c-0.4-0.3-1-0.4-1.6-0.2c-0.5,0.2-0.9,0.7-1,1.2h-0.6c-0.1-0.6-0.4-1-1-1.2c-0.5-0.2-1.1-0.1-1.6,0.2L21.8,8
		c0.3-0.4,0.4-1,0.2-1.6s-0.7-0.9-1.2-1L20.8,5L20.8,5z M4.7,5.5h15.1v0.2c0,0.5,0.4,0.8,0.8,0.8c0.3,0,0.5,0.3,0.5,0.3
		c0,0.1,0.1,0.4-0.1,0.6c-0.3,0.3-0.3,0.8,0,1.2l0.7,0.7c0.3,0.3,0.8,0.3,1.2,0c0.2-0.2,0.5-0.1,0.6-0.1c0.1,0,0.3,0.2,0.3,0.5
		c0,0.5,0.4,0.8,0.8,0.8h0.9c0.5,0,0.8-0.4,0.8-0.8c0-0.3,0.3-0.5,0.3-0.5c0.1,0,0.4-0.1,0.6,0.1c0.3,0.3,0.8,0.3,1.2,0L29,8.6
		c0.3-0.3,0.3-0.8,0-1.2c-0.2-0.2-0.1-0.5-0.1-0.6c0-0.1,0.2-0.3,0.5-0.3c0.5,0,0.8-0.4,0.8-0.8V5.5h1.7c0.6,0,1.1,0.5,1.1,1.1v15.7
		H2.9V7.2C2.9,6.3,3.7,5.5,4.7,5.5z M26.1,34.1c0,0.5-0.4,0.9-0.9,0.9H10.7c-0.5,0-0.9-0.4-0.9-0.9s0.4-0.9,0.9-0.9h14.6
		C25.7,33.3,26.1,33.7,26.1,34.1z M22.3,32.3h-8.6c0.5-1.2,0.8-2.9,0.8-4.4h7C21.5,29.3,21.8,31,22.3,32.3z M31.3,26.8H4.7
		c-1,0-1.7-0.8-1.7-1.7v-1.7h30.1v1.7C33.1,26,32.3,26.8,31.3,26.8z M19.7,25.1c0,0.3-0.2,0.5-0.5,0.5h-2.5c-0.3,0-0.5-0.2-0.5-0.5
		s0.2-0.5,0.5-0.5h2.5C19.5,24.6,19.7,24.8,19.7,25.1z M25,8c1.5,0,2.8-1.3,2.8-2.8S26.5,2.5,25,2.5s-2.8,1.3-2.8,2.8
		C22.2,6.8,23.5,8,25,8z M25,3.5c1,0,1.8,0.8,1.8,1.8S26,7,25,7s-1.8-0.8-1.8-1.8S24,3.5,25,3.5z M6.4,15.5c0.4,0,0.7,0.2,0.8,0.6
		c0.1,0.3,0.1,0.7-0.2,1c-0.2,0.2-0.3,0.4-0.3,0.7s0.1,0.5,0.3,0.7l0.9,0.9c0.4,0.4,0.9,0.4,1.3,0c0.3-0.3,0.6-0.3,1-0.2
		s0.6,0.5,0.6,0.8c0,0.5,0.4,0.9,0.9,0.9h1.3c0.5,0,0.9-0.4,0.9-0.9c0-0.4,0.2-0.7,0.6-0.8c0.3-0.1,0.7-0.1,1,0.2
		c0.2,0.2,0.4,0.3,0.7,0.3s0.5-0.1,0.7-0.3l0.9-0.9c0.2-0.2,0.3-0.4,0.3-0.7s-0.1-0.5-0.3-0.7c-0.3-0.3-0.3-0.6-0.2-1
		c0.1-0.3,0.5-0.6,0.8-0.6c0.5,0,0.9-0.4,0.9-0.9v-1.3c0-0.5-0.4-0.9-0.9-0.9c-0.4,0-0.7-0.2-0.8-0.6c-0.1-0.3-0.1-0.7,0.2-1
		c0.4-0.4,0.4-0.9,0-1.3l-0.9-0.9c-0.4-0.4-0.9-0.4-1.3,0c-0.3,0.3-0.6,0.3-1,0.2S13.8,8.4,13.8,8c0-0.5-0.4-0.9-0.9-0.9h-1.3
		c-0.5,0-0.9,0.4-0.9,0.9c0,0.4-0.2,0.7-0.6,0.8s-0.7,0.1-1-0.2c-0.4-0.4-0.9-0.4-1.3,0L7,9.5c-0.4,0.4-0.4,0.9,0,1.3
		c0.3,0.3,0.3,0.6,0.2,1s-0.5,0.6-0.8,0.6c-0.5,0-0.9,0.4-0.9,0.9v1.3C5.4,15.1,5.9,15.5,6.4,15.5z M6.5,13.4c0.7,0,1.4-0.5,1.7-1.2
		c0.3-0.7,0.2-1.5-0.3-2l0.8-0.8c0.6,0.5,1.3,0.6,2,0.3s1.1-0.9,1.2-1.7h1.1c0,0.7,0.5,1.4,1.2,1.7c0.7,0.3,1.5,0.2,2-0.3l0.8,0.8
		c-0.5,0.6-0.6,1.3-0.3,2s0.9,1.1,1.7,1.2v1.1c-0.7,0-1.4,0.5-1.7,1.2c-0.3,0.7-0.2,1.5,0.3,2L16,18.4c-0.6-0.5-1.3-0.6-2-0.3
		s-1.1,0.9-1.2,1.7h-1.1c0-0.7-0.5-1.4-1.2-1.7c-0.7-0.3-1.5-0.2-2,0.3l-0.8-0.8c0.5-0.6,0.6-1.3,0.3-2c-0.3-0.7-0.9-1.1-1.7-1.2
		V13.4z M12.3,17.5c2,0,3.6-1.6,3.6-3.6s-1.6-3.6-3.6-3.6S8.7,12,8.7,13.9S10.3,17.5,12.3,17.5z M12.3,11.4c1.4,0,2.5,1.1,2.5,2.5
		s-1.1,2.5-2.5,2.5s-2.5-1.1-2.5-2.5C9.8,12.5,10.9,11.4,12.3,11.4z M20.8,20.3c0-0.3,0.2-0.5,0.5-0.5h4.8c0.3,0,0.5,0.2,0.5,0.5
		c0,0.3-0.2,0.5-0.5,0.5h-4.8C21,20.8,20.8,20.6,20.8,20.3z M20.8,13.9c0-0.3,0.2-0.5,0.5-0.5h9.6c0.3,0,0.5,0.2,0.5,0.5
		c0,0.3-0.2,0.5-0.5,0.5h-9.6C21,14.4,20.8,14.2,20.8,13.9z M20.8,17.1c0-0.3,0.2-0.5,0.5-0.5h9.6c0.3,0,0.5,0.2,0.5,0.5
		c0,0.3-0.2,0.5-0.5,0.5h-9.6C21,17.6,20.8,17.4,20.8,17.1z"/>
</g>
</svg>
