<?xml version="1.0" encoding="utf-8"?>
<!-- Generator: Adobe Illustrator 24.3.0, SVG Export Plug-In . SVG Version: 6.00 Build 0)  -->
<svg version="1.1" id="Layer_1" xmlns="http://www.w3.org/2000/svg" xmlns:xlink="http://www.w3.org/1999/xlink" x="0px" y="0px"
	 viewBox="0 0 36 36" style="enable-background:new 0 0 36 36;" xml:space="preserve">
<style type="text/css">
	.st0{fill:#2B4DFF;}
</style>
<g>
	<path class="st0" d="M32.4,6.6H19.2c-0.8,0-0.8,1.2,0,1.2h13.2c1.1,0,2,0.8,2.3,1.8H19.2c-0.3,0-0.6,0.3-0.6,0.6
		c0,0.3,0.3,0.6,0.6,0.6h15.6V30c0,1.3-1.1,2.4-2.4,2.4H10.8c-1.3,0-2.4-1.1-2.4-2.4c0-0.3-0.3-0.6-0.6-0.6c-0.3,0-0.6,0.3-0.6,0.6
		c0,2,1.6,3.6,3.6,3.6h21.6c2,0,3.6-1.6,3.6-3.6V10.2C36,8.2,34.4,6.6,32.4,6.6z"/>
	<path class="st0" d="M23.4,24h-4.2c-0.3,0-0.6,0.3-0.6,0.6s0.3,0.6,0.6,0.6h4.2c1.3,0,2.4-1.1,2.4-2.4v-8.4c0-1.3-1.1-2.4-2.4-2.4
		h-4.2c-0.3,0-0.6,0.3-0.6,0.6c0,0.3,0.3,0.6,0.6,0.6h4.2c0.7,0,1.2,0.5,1.2,1.2v8.4C24.6,23.5,24.1,24,23.4,24z"/>
	<path class="st0" d="M33,13.2h-5.4c-0.8,0-0.8,1.2,0,1.2H33C33.8,14.4,33.8,13.2,33,13.2z"/>
	<path class="st0" d="M33,15.6h-3.6c-0.8,0-0.8,1.2,0,1.2H33C33.8,16.8,33.8,15.6,33,15.6z"/>
	<path class="st0" d="M28.2,18c-0.8,0-0.8,1.2,0,1.2H33c0.8,0,0.8-1.2,0-1.2H28.2z"/>
	<path class="st0" d="M27.6,21.6H33c0.8,0,0.8-1.2,0-1.2h-5.4C26.8,20.4,26.8,21.6,27.6,21.6z"/>
	<path class="st0" d="M33,22.8h-3.6c-0.8,0-0.8,1.2,0,1.2H33C33.8,24,33.8,22.8,33,22.8z"/>
	<path class="st0" d="M18.6,28.2h1.8V30h-9c0-0.3-0.3-0.6-0.6-0.6c-1.2,0.2-0.4,1.9,0.6,1.8c0,0,9,0,9,0c0.7,0,1.2-0.5,1.2-1.2v-1.8
		c0-0.7-0.5-1.2-1.2-1.2h-1.8C17.8,27,17.8,28.2,18.6,28.2z"/>
	<path class="st0" d="M22.8,28.2V30c0,0.7,0.5,1.2,1.2,1.2h8.4c0.7,0,1.2-0.5,1.2-1.2v-1.8c0-0.7-0.5-1.2-1.2-1.2H24
		C23.3,27,22.8,27.5,22.8,28.2z M32.4,30L24,30v-1.8h8.4V30z"/>
	<path class="st0" d="M3.6,28.8h10.8c2,0,3.6-1.6,3.6-3.6V6c0-2-1.6-3.6-3.6-3.6H3.6C1.6,2.4,0,4,0,6v19.2C0,27.2,1.6,28.8,3.6,28.8
		z M1.2,6c0-1.3,1.1-2.4,2.4-2.4h10.8c1.3,0,2.4,1.1,2.4,2.4v19.2c0,1.3-1.1,2.4-2.4,2.4H3.6c-1.3,0-2.4-1.1-2.4-2.4V6z"/>
	<path class="st0" d="M3,6h1.2C5,6,5,4.8,4.2,4.8c0,0-1.2,0-1.2,0C2.2,4.8,2.2,6,3,6z"/>
	<path class="st0" d="M4.8,13.2h8.4c1.3,0,2.4-1.1,2.4-2.4V9.6c0-1.3-1.1-2.4-2.4-2.4H4.8c-1.3,0-2.4,1.1-2.4,2.4v1.2
		C2.4,12.1,3.5,13.2,4.8,13.2z M3.6,9.6c0-0.7,0.5-1.2,1.2-1.2h8.4c0.7,0,1.2,0.5,1.2,1.2v1.2c0,0.7-0.5,1.2-1.2,1.2H4.8
		c-0.7,0-1.2-0.5-1.2-1.2V9.6z"/>
	<path class="st0" d="M4.8,21.6h8.4c1.3,0,2.4-1.1,2.4-2.4v-2.4c0-1.3-1.1-2.4-2.4-2.4H4.8c-1.3,0-2.4,1.1-2.4,2.4v2.4
		C2.4,20.5,3.5,21.6,4.8,21.6z M3.6,16.8c0-0.7,0.5-1.2,1.2-1.2h8.4c0.7,0,1.2,0.5,1.2,1.2v2.4c0,0.7-0.5,1.2-1.2,1.2H4.8
		c-0.7,0-1.2-0.5-1.2-1.2V16.8z"/>
	<path class="st0" d="M14.4,22.8H3.6c-0.8,0-0.8,1.2,0,1.2c0,0,10.8,0,10.8,0C15.2,24,15.2,22.8,14.4,22.8z"/>
	<path class="st0" d="M14.4,25.2H3.6c-0.8,0-0.8,1.2,0,1.2c0,0,10.8,0,10.8,0C15.2,26.4,15.2,25.2,14.4,25.2z"/>
</g>
</svg>
