<?xml version="1.0" encoding="utf-8"?>
<!-- Generator: Adobe Illustrator 24.3.0, SVG Export Plug-In . SVG Version: 6.00 Build 0)  -->
<svg version="1.1" id="Layer_1" xmlns="http://www.w3.org/2000/svg" xmlns:xlink="http://www.w3.org/1999/xlink" x="0px" y="0px"
	 viewBox="0 0 36 36" style="enable-background:new 0 0 36 36;" xml:space="preserve">
<style type="text/css">
	.st0{fill:#2B4DFF;}
</style>
<g>
	<path class="st0" d="M33.7,2.3H2.3C1,2.3,0,3.4,0,4.6v21.9c0,1.3,1,2.3,2.3,2.3h15v3.5h-5.2c-0.4,0-0.7,0.3-0.7,0.7
		c0,0.4,0.3,0.7,0.7,0.7h11.8c0.4,0,0.7-0.3,0.7-0.7c0-0.4-0.3-0.7-0.7-0.7h-5.2v-3.5h15c1.3,0,2.3-1,2.3-2.3V4.6
		C36,3.4,35,2.3,33.7,2.3z M2.3,3.8h31.5c0.5,0,0.8,0.4,0.8,0.8v17.5h-1.8V8.6V7.6c0-1.3-1-2.3-2.3-2.3h-7.8c-1.3,0-2.3,1-2.3,2.3
		v1.1v13.5H1.4V4.6C1.4,4.1,1.8,3.8,2.3,3.8z M31.3,7.9h-9.5V7.6c0-0.5,0.4-0.8,0.8-0.8h7.8c0.5,0,0.8,0.4,0.8,0.8
		C31.3,7.6,31.3,7.9,31.3,7.9z M21.8,22.5V9.4h9.5v13.5v1.1c0,0.5-0.4,0.8-0.8,0.8h-7.8c-0.5,0-0.8-0.4-0.8-0.8L21.8,22.5L21.8,22.5
		z M33.7,27.3H2.3c-0.5,0-0.8-0.4-0.8-0.8v-2.9h18.9v0.3c0,1.3,1,2.3,2.3,2.3h7.8c1.3,0,2.3-1,2.3-2.3v-0.3h1.8v2.9
		C34.6,26.9,34.2,27.3,33.7,27.3z"/>
	<path class="st0" d="M25.6,23.5h1.9c0.4,0,0.7-0.3,0.7-0.7s-0.3-0.7-0.7-0.7h-1.9c-0.4,0-0.7,0.3-0.7,0.7
		C24.9,23.2,25.2,23.5,25.6,23.5z"/>
	<path class="st0" d="M3.5,8.8c0,0,0,0.1,0,0.1c0,0,0,0.1,0.1,0.1c0,0,0,0.1,0.1,0.1c0,0,0,0,0,0c0,0,0,0,0,0l2.5,2.3
		c0.1,0.1,0.3,0.2,0.5,0.2c0.2,0,0.4-0.1,0.5-0.2c0.3-0.3,0.3-0.7,0-1l-2-1.8l2-1.8c0.3-0.3,0.3-0.7,0-1c-0.3-0.3-0.7-0.3-1,0
		L3.7,8.2c0,0,0,0,0,0c0,0,0,0,0,0c0,0,0,0.1-0.1,0.1c0,0-0.1,0.1-0.1,0.1c0,0,0,0.1,0,0.1c0,0,0,0.1,0,0.1C3.5,8.7,3.5,8.8,3.5,8.8
		z"/>
	<path class="st0" d="M13.3,8.7l-2,1.8c-0.3,0.3-0.3,0.7,0,1c0.1,0.2,0.3,0.2,0.5,0.2c0.2,0,0.3-0.1,0.5-0.2l2.5-2.3c0,0,0,0,0,0
		c0,0,0,0,0,0c0,0,0-0.1,0.1-0.1C15,9,15,9,15,9c0,0,0-0.1,0-0.1c0,0,0-0.1,0-0.1c0,0,0-0.1,0-0.1c0,0,0-0.1,0-0.1
		c0,0,0-0.1-0.1-0.1c0,0,0-0.1-0.1-0.1c0,0,0,0,0,0s0,0,0,0l-2.5-2.3c-0.3-0.3-0.7-0.3-1,0c-0.3,0.3-0.3,0.7,0,1L13.3,8.7z"/>
	<path class="st0" d="M8.8,11.7c0,0,0.1,0,0.1,0c0.4,0,0.7-0.3,0.7-0.6l0.7-4.6c0.1-0.4-0.2-0.8-0.6-0.8C9.3,5.6,8.9,5.9,8.9,6.3
		l-0.7,4.6C8.2,11.3,8.4,11.7,8.8,11.7z"/>
	<path class="st0" d="M4.2,15h3.6c0.4,0,0.7-0.3,0.7-0.7s-0.3-0.7-0.7-0.7H4.2c-0.4,0-0.7,0.3-0.7,0.7S3.8,15,4.2,15z"/>
	<path class="st0" d="M4.2,17.7h6.1c0.4,0,0.7-0.3,0.7-0.7s-0.3-0.7-0.7-0.7H4.2c-0.4,0-0.7,0.3-0.7,0.7S3.8,17.7,4.2,17.7z"/>
	<path class="st0" d="M4.2,20.4h10.2c0.4,0,0.7-0.3,0.7-0.7S14.8,19,14.4,19H4.2c-0.4,0-0.7,0.3-0.7,0.7S3.8,20.4,4.2,20.4z"/>
</g>
</svg>
