<?xml version="1.0" encoding="utf-8"?>
<!-- Generator: Adobe Illustrator 24.3.0, SVG Export Plug-In . SVG Version: 6.00 Build 0)  -->
<svg version="1.1" id="Layer_1" xmlns="http://www.w3.org/2000/svg" xmlns:xlink="http://www.w3.org/1999/xlink" x="0px" y="0px"
	 viewBox="0 0 228 220" style="enable-background:new 0 0 228 220;" xml:space="preserve">
<style type="text/css">
	.st0{fill:#F0F0F0;}
	.st1{fill:#E1E1E1;}
	.st2{fill:#FAFAFA;}
	.st3{fill:#F5F5F5;}
	.st4{fill:#C4C8E0;}
	.st5{fill:#407BFF;}
	.st6{fill:#ECECEC;}
	.st7{fill:#FFFFFF;}
	.st8{fill:#040D43;}
	.st9{fill:#903C38;}
	.st10{fill:#740606;}
	.st11{opacity:0.2;enable-background:new    ;}
	.st12{opacity:0.5;fill:#FFFFFF;enable-background:new    ;}
	.st13{opacity:0.5;}
	.st14{opacity:0.3;enable-background:new    ;}
	.st15{opacity:0.2;fill:#007CFF;enable-background:new    ;}
</style>
<g>
	<g>
		<g>
			<polygon class="st0" points="203.2,191.1 14.6,191.1 3.3,63.1 192,63.1 			"/>
			<polygon class="st1" points="11.2,195.2 14.6,191.1 3.3,63.1 0,67.3 			"/>
			<path class="st2" d="M17.1,186.2L6.7,68.3C6.6,67.1,7.6,66,8.8,66h178.6c1.1,0,2,0.8,2.1,1.9l10.4,117.9c0.1,1.2-0.9,2.3-2.1,2.3
				H19.2C18.1,188.2,17.2,187.3,17.1,186.2z"/>
			<polygon class="st1" points="41.1,191.1 12.7,191.1 10.7,196.8 39.1,196.8 			"/>
			<polygon class="st3" points="41.1,191.1 228,191.1 226,196.8 39.1,196.8 			"/>
			<polygon class="st1" points="118.1,191.1 153.9,191.1 153.5,194.9 117.7,194.9 			"/>
		</g>
		<g>
			<path class="st4" d="M172.4,54.7h45.3c3.8,24.8-13.6,45.3-38.4,45.3c-7.9,0-16.1-2.1-23.5-6.1L172.4,54.7z"/>
			<path class="st5" d="M172.4,54.7L196.2,20c5.7,4.2,10.6,9.6,14.3,15.5c3.7,6,6.1,12.5,7.1,19.1h-45.2V54.7z"/>
			<path class="st4" d="M172.4,54.7l-6.8-45.3c5.3,0,10.7,0.9,15.9,2.7s10.2,4.5,14.8,7.9L172.4,54.7z"/>
			<path class="st0" d="M172.4,54.7l-16.7,39.2c-15.2-8.1-26.1-23.1-28.6-39.2c-3.8-24.8,13.6-45.3,38.4-45.3L172.4,54.7z"/>
		</g>
		<g>
			<path class="st6" d="M116.5,135.5h40.2c0.5,3.5,0.6,7,0.2,10.4c-0.4,3.4-1.3,6.6-2.5,9.7L116.5,135.5z"/>
			<path class="st1" d="M116.5,135.5l1-39.5c9.5,1.6,18.7,6.5,25.9,13.7s11.9,16.4,13.3,25.8H116.5z"/>
			<path class="st0" d="M116.5,135.5l-35.7,13.7c-2.3-4.4-3.8-9-4.5-13.7c-3.3-22,12.1-40.2,34.1-40.2c2.3,0,4.7,0.2,7.1,0.6
				L116.5,135.5z"/>
			<path class="st7" d="M116.5,135.5l37.8,20.1c-5.3,12.4-17.4,20.1-31.7,20.1c-16.8,0-33.6-10.6-41.7-26.4L116.5,135.5z"/>
		</g>
	</g>
	<g>
		<g>
			<g>
				<path class="st7" d="M109.2,107.5H53c-3.6,0-6.7-2.9-7-6.5l-2.8-34.6c-0.3-3.6,2.4-6.5,6-6.5h56.3c3.6,0,6.7,2.9,7,6.5l2.8,34.6
					C115.5,104.6,112.8,107.5,109.2,107.5z"/>
				<path class="st8" d="M109.2,107.8H53c-3.7,0-7-3-7.3-6.7l-2.8-34.6c-0.1-1.8,0.4-3.5,1.6-4.8c1.2-1.3,2.8-2,4.6-2h56.3
					c3.7,0,7,3,7.3,6.7l2.8,34.6c0.1,1.8-0.4,3.5-1.6,4.8C112.7,107.1,111,107.8,109.2,107.8z M49.1,60.2c-1.6,0-3.1,0.6-4.2,1.8
					c-1.1,1.2-1.6,2.7-1.5,4.4l2.8,34.6c0.3,3.4,3.3,6.2,6.8,6.2h56.3c1.6,0,3.1-0.6,4.2-1.8c1.1-1.2,1.6-2.7,1.5-4.4l-2.8-34.6
					c-0.3-3.4-3.3-6.2-6.8-6.2C105.4,60.2,49.1,60.2,49.1,60.2z"/>
			</g>
			<g>
				<path class="st4" d="M94,97.4c-2.2,2.4-5.1,4.1-8.3,5l-0.9-2.7c6.9-1.9,11.6-8.4,11-16C95.4,79.1,93.2,75,90,72l1.8-2
					C99.9,77.5,100.9,89.9,94,97.4z"/>
				<path class="st8" d="M91.7,70L90,72c-3.2-3-7.5-4.9-12.1-4.9S69.3,69,66.6,72l-2.1-2c3.3-3.6,8.1-5.7,13.2-5.7
					C82.7,64.4,87.8,66.4,91.7,70z"/>
				<path class="st8" d="M85.7,102.4c-6.5,1.8-13.8-0.1-19.1-5c-8.1-7.5-9.1-19.9-2.2-27.4l2.1,2c-2.8,3-4.3,7.1-3.9,11.7
					c0.7,9.2,8.8,16.6,17.9,16.6c1.5,0,2.9-0.2,4.3-0.6L85.7,102.4z"/>
			</g>
		</g>
		<g>
			<rect x="28.1" y="4" class="st8" width="4.5" height="0.5"/>
			<rect x="13.4" y="4" class="st8" width="10.3" height="0.5"/>
			<g>
				<path class="st7" d="M71.5,53.7H15.2c-3.6,0-6.7-2.9-7-6.5L5.4,12.6c-0.3-3.6,2.4-6.5,6-6.5h56.3c3.6,0,6.7,2.9,7,6.5l2.8,34.6
					C77.7,50.8,75.1,53.7,71.5,53.7z"/>
				<path class="st8" d="M71.5,54H15.2c-3.7,0-7-3-7.3-6.7L5.1,12.7C5,10.9,5.5,9.2,6.7,7.9s2.8-2,4.6-2h56.3c3.7,0,7,3,7.3,6.7
					l2.8,34.6c0.1,1.8-0.4,3.5-1.6,4.8C74.9,53.3,73.3,54,71.5,54z M11.4,6.4C9.8,6.4,8.3,7,7.2,8.2C6,9.4,5.5,11,5.7,12.6l2.8,34.6
					c0.3,3.4,3.3,6.2,6.8,6.2h56.3c1.6,0,3.1-0.6,4.2-1.8s1.6-2.7,1.5-4.4l-2.8-34.6c-0.3-3.4-3.3-6.2-6.8-6.2
					C67.7,6.4,11.4,6.4,11.4,6.4z"/>
			</g>
			<g>
				<polygon class="st4" points="10.5,16.1 40.3,16.1 40.1,13.1 10.2,13.1 				"/>
				<polygon class="st8" points="70.1,16.1 40.3,16.1 40.1,13.1 69.9,13.1 				"/>
				<polygon class="st4" points="11.1,23.8 19.6,23.8 19.4,20.8 10.9,20.8 				"/>
				<polygon class="st8" points="70.7,23.8 19.6,23.8 19.4,20.8 70.5,20.8 				"/>
				<polygon class="st4" points="11.7,31.4 38.3,31.4 38,28.5 11.5,28.5 				"/>
				<polygon class="st8" points="71.4,31.4 38.3,31.4 38,28.5 71.1,28.5 				"/>
				<polygon class="st4" points="12.3,39.1 57.6,39.1 57.4,36.1 12.1,36.1 				"/>
				<polygon class="st8" points="72,39.1 57.6,39.1 57.4,36.1 71.7,36.1 				"/>
				<polygon class="st4" points="13,46.8 33.9,46.8 33.7,43.8 12.7,43.8 				"/>
				<polygon class="st8" points="72.6,46.8 33.9,46.8 33.7,43.8 72.4,43.8 				"/>
			</g>
		</g>
		<g>
			<g>
				<path class="st7" d="M148.4,53.7H92.1c-3.6,0-6.7-2.9-7-6.5l-2.8-34.6c-0.3-3.6,2.4-6.5,6-6.5h56.3c3.6,0,6.7,2.9,7,6.5
					l2.8,34.6C154.7,50.8,152,53.7,148.4,53.7z"/>
				<path class="st8" d="M148.4,54H92.1c-3.7,0-7-3-7.3-6.7L82,12.7c-0.1-1.8,0.4-3.5,1.6-4.8s2.8-2,4.6-2h56.3c3.7,0,7,3,7.3,6.7
					l2.8,34.6c0.1,1.8-0.4,3.5-1.6,4.8C151.8,53.3,150.2,54,148.4,54z M88.3,6.4c-1.6,0-3.1,0.6-4.2,1.8s-1.6,2.7-1.5,4.4l2.8,34.6
					c0.3,3.4,3.3,6.2,6.8,6.2h56.3c1.6,0,3.1-0.6,4.2-1.8c1.1-1.2,1.6-2.7,1.5-4.4l-2.8-34.6c-0.3-3.4-3.3-6.2-6.8-6.2
					C144.6,6.4,88.3,6.4,88.3,6.4z"/>
			</g>
			<g>
				<polygon class="st4" points="120.2,46.8 119.2,46.8 116.5,13.1 117.5,13.1 				"/>
				<polygon class="st8" points="121.7,32.8 115.4,32.8 114.4,19.7 120.6,19.7 				"/>
				<polygon class="st4" points="107.9,46.8 106.9,46.8 104.1,13.1 105.1,13.1 				"/>
				<polygon class="st8" points="109.6,35.7 103.3,35.7 102.4,24.2 108.7,24.2 				"/>
				<polygon class="st4" points="95.5,46.8 94.5,46.8 91.8,13.1 92.8,13.1 				"/>
				<polygon class="st8" points="96.5,26.2 90.2,26.2 89.6,18.3 95.9,18.3 				"/>
				<polygon class="st4" points="132.5,46.8 131.5,46.8 128.8,13.1 129.8,13.1 				"/>
				<polygon class="st8" points="134.6,40.2 128.4,40.2 126.7,19.7 133,19.7 				"/>
				<polygon class="st4" points="144.9,46.8 143.9,46.8 141.1,13.1 142.1,13.1 				"/>
				<polygon class="st8" points="147.2,42.7 140.9,42.7 139.6,26.2 145.8,26.2 				"/>
			</g>
		</g>
		<g>
			<g>
				<path class="st7" d="M88.2,160.8H31.9c-3.6,0-6.7-2.9-7-6.5l-2.8-34.6c-0.3-3.6,2.4-6.5,6-6.5h56.3c3.6,0,6.7,2.9,7,6.5
					l2.8,34.6C94.4,157.9,91.8,160.8,88.2,160.8z"/>
				<path class="st8" d="M88.2,161.1H31.9c-3.7,0-7-3-7.3-6.7l-2.8-34.6c-0.1-1.8,0.4-3.5,1.6-4.8s2.8-2,4.6-2h56.3
					c3.7,0,7,3,7.3,6.7l2.8,34.6c0.1,1.8-0.4,3.5-1.6,4.8C91.6,160.4,90,161.1,88.2,161.1z M28.1,113.5c-1.6,0-3.1,0.6-4.2,1.8
					c-1.1,1.2-1.6,2.7-1.5,4.4l2.8,34.6c0.3,3.4,3.3,6.2,6.8,6.2h56.3c1.6,0,3.1-0.6,4.2-1.8s1.6-2.7,1.5-4.4l-2.8-34.6
					c-0.3-3.4-3.3-6.2-6.8-6.2C84.4,113.5,28.1,113.5,28.1,113.5z"/>
			</g>
			<g>
				<polygon class="st8" points="35.7,136.2 47.8,150.2 61.7,128.8 70.3,139.9 72.4,136.6 86.5,153.5 32.5,153.5 				"/>
				<polygon class="st4" points="76.2,137.1 70.5,149.2 52.5,120.6 44.1,138.8 41.4,134.4 32.5,153.5 86.5,153.5 				"/>
			</g>
		</g>
	</g>
	<g>
		<path class="st8" d="M191.9,57.3c1.5,2.8,2.8,5.6,4,8.5c1.2,2.9,2.3,5.9,3.1,9c0.2,0.8,0.4,1.6,0.6,2.4c0.1,0.3,0.2,1.1,0.2,1.7
			s0,1.2-0.1,1.7c-0.3,2.1-1.1,3.7-1.9,5.2c-1.6,3-3.6,5.4-5.8,7.8c-0.7,0.7-1.8,0.7-2.5,0c-0.6-0.6-0.7-1.4-0.3-2.1v-0.1
			c1.3-2.6,2.7-5.3,3.6-7.9c0.4-1.3,0.8-2.6,0.8-3.6c0-0.2,0-0.4,0-0.6c0-0.1,0-0.1-0.1-0.2l-0.1-0.4c-0.2-0.7-0.4-1.3-0.7-2
			c-0.9-2.7-2.1-5.4-3.3-8.1s-2.5-5.4-3.8-8v-0.1c-0.9-1.8-0.1-3.9,1.6-4.7C188.9,55,191,55.7,191.9,57.3z"/>
		<path class="st9" d="M189.9,91.2l-3,0.9l3.5,4.1c0,0,1.4-1.2,1.8-2.9c0.2-0.6-0.1-1.2-0.6-1.6l-0.5-0.4
			C190.9,91.1,190.4,91,189.9,91.2z"/>
		<polygon class="st9" points="182.8,94.6 186.6,97.6 190.5,96.2 186.9,92.1 		"/>
		<path class="st8" d="M170,36.4c-0.1,0.4-0.3,0.6-0.6,0.6c-0.2,0-0.4-0.4-0.3-0.8c0.1-0.4,0.3-0.6,0.6-0.6
			C169.9,35.7,170.1,36.1,170,36.4z"/>
		<path class="st10" d="M169.7,37.1c0,0-1.3,2-2.4,2.8c0.5,0.7,1.7,0.7,1.7,0.7L169.7,37.1z"/>
		<path class="st8" d="M171.8,34.7c0.1,0,0.1,0,0.2-0.1c0.1-0.1,0.1-0.2,0-0.3c-0.8-0.9-1.8-0.7-1.9-0.7c-0.1,0-0.2,0.1-0.2,0.3
			c0,0.1,0.1,0.2,0.3,0.2l0,0C170.2,34.1,171,34,171.8,34.7C171.6,34.6,171.7,34.7,171.8,34.7z"/>
		<path class="st9" d="M180.3,43.2c-0.7,3.4-1.1,8.2,1.3,10.4c0,0-0.9,3.5-7.3,3.5c-7,0-3.4-3-3.4-3c2.9-0.9,2.9-4.2,2.2-6.9
			L180.3,43.2z"/>
		<path class="st8" d="M169.7,53.5c0,0,1-2.4,2.1-2.8c1-0.4,7.7-1.5,9.2-0.5s2.6,4,2.6,4L169.7,53.5z"/>
		<path class="st8" d="M176.7,213.4c-0.6,0-1.2-0.1-1.4-0.4c-0.1-0.1-0.1-0.3,0-0.5c0.1-0.1,0.2-0.2,0.4-0.3
			c0.8-0.2,2.4,0.7,2.5,0.8l0.1,0.1c0,0,0,0.1-0.1,0.1C177.8,213.4,177.3,213.4,176.7,213.4z M176,212.5c-0.1,0-0.2,0-0.2,0
			c-0.1,0-0.2,0.1-0.2,0.2c-0.1,0.1,0,0.2,0,0.2c0.2,0.3,1.4,0.3,2.3,0.2C177.3,212.9,176.5,212.5,176,212.5z"/>
		<path class="st8" d="M178.1,213.3L178.1,213.3c-0.6-0.3-1.7-1.3-1.6-1.8c0-0.1,0.1-0.3,0.4-0.3c0.2,0,0.4,0,0.6,0.2
			c0.6,0.5,0.7,1.7,0.7,1.8C178.2,213.2,178.2,213.3,178.1,213.3C178.2,213.3,178.1,213.3,178.1,213.3z M177,211.4
			C177,211.4,176.9,211.4,177,211.4c-0.3,0-0.3,0.1-0.3,0.1c-0.1,0.3,0.7,1.1,1.3,1.5c-0.1-0.4-0.2-1.1-0.6-1.4
			C177.2,211.5,177.1,211.4,177,211.4z"/>
		<polygon class="st9" points="183.3,213.2 178.6,213.2 178.1,202.4 182.8,202.4 		"/>
		<path class="st8" d="M178.6,212.7h5.1c0.2,0,0.4,0.1,0.4,0.3l0.9,4.2c0.1,0.4-0.2,0.8-0.7,0.8c-1.8,0-4.5-0.1-6.8-0.1
			c-2.7,0-3,0.1-6.2,0.1c-1.9,0-2.5-1.9-1.6-2.1c3.7-0.8,4.6-0.9,7.8-2.8C177.8,212.8,178.2,212.7,178.6,212.7z"/>
		<path class="st8" d="M189.9,53.6c4.4,1,7.3,12.8,7.3,12.8l-7.3,5.5c0,0-4-2.5-5.4-8.1C183,58,185.5,52.6,189.9,53.6z"/>
		<path class="st11" d="M186.2,61.9c2.4,2.4,3.9,6.1,4.1,9.8l-0.4,0.3c0,0-4-2.5-5.4-8.1c-0.1-0.3-0.2-0.7-0.2-1L186.2,61.9z"/>
		<g>
			<g>
				
					<rect x="174.1" y="77.3" transform="matrix(0.9286 -0.3711 0.3711 0.9286 -20.1649 78.23)" class="st8" width="38.2" height="28.4"/>
				
					<rect x="174.1" y="77.4" transform="matrix(0.9286 -0.3711 0.3711 0.9286 -20.2186 78.1432)" class="st12" width="37.7" height="28.4"/>
			</g>
			<g class="st13">
				
					<rect x="173.6" y="86.1" transform="matrix(0.9286 -0.3711 0.3711 0.9286 -19.8969 71.3242)" class="st8" width="3.6" height="2.5"/>
				
					<rect x="179.1" y="83.9" transform="matrix(0.9286 -0.3711 0.3711 0.9286 -18.6842 73.2045)" class="st8" width="3.6" height="2.5"/>
				
					<rect x="184.6" y="81.8" transform="matrix(0.9286 -0.3711 0.3711 0.9286 -17.5034 75.1051)" class="st8" width="3.6" height="2.5"/>
				
					<rect x="190" y="79.6" transform="matrix(0.9286 -0.3711 0.3711 0.9286 -16.3111 76.9536)" class="st8" width="3.6" height="2.5"/>
				
					<rect x="195.5" y="77.4" transform="matrix(0.9286 -0.3711 0.3711 0.9286 -15.0984 78.8338)" class="st8" width="3.6" height="2.5"/>
				
					<rect x="201" y="75.2" transform="matrix(0.9286 -0.3711 0.3711 0.9286 -13.8871 80.7143)" class="st8" width="3.6" height="2.5"/>
				
					<rect x="175.2" y="90" transform="matrix(0.9286 -0.3711 0.3711 0.9286 -21.2214 72.197)" class="st8" width="3.6" height="2.5"/>
				
					<rect x="180.7" y="87.8" transform="matrix(0.9286 -0.3711 0.3711 0.9286 -20.0092 74.0773)" class="st8" width="3.6" height="2.5"/>
				
					<rect x="186.1" y="85.6" transform="matrix(0.9286 -0.3711 0.3711 0.9286 -18.8169 75.9257)" class="st8" width="3.6" height="2.5"/>
				
					<rect x="191.6" y="83.4" transform="matrix(0.9286 -0.3711 0.3711 0.9286 -17.6042 77.806)" class="st8" width="3.6" height="2.5"/>
				
					<rect x="197.1" y="81.3" transform="matrix(0.9286 -0.3711 0.3711 0.9286 -16.4234 79.7066)" class="st8" width="3.6" height="2.5"/>
				
					<rect x="202.5" y="79.1" transform="matrix(0.9286 -0.3711 0.3711 0.9286 -15.2311 81.555)" class="st8" width="3.6" height="2.5"/>
				
					<rect x="176.7" y="93.9" transform="matrix(0.9286 -0.3711 0.3711 0.9286 -22.5672 73.038)" class="st8" width="3.6" height="2.5"/>
				
					<rect x="182.2" y="91.7" transform="matrix(0.9286 -0.3711 0.3711 0.9286 -21.354 74.9182)" class="st8" width="3.6" height="2.5"/>
				
					<rect x="187.7" y="89.5" transform="matrix(0.9286 -0.3711 0.3711 0.9286 -20.1419 76.7985)" class="st8" width="3.6" height="2.5"/>
				
					<rect x="193.1" y="87.3" transform="matrix(0.9286 -0.3711 0.3711 0.9286 -18.9496 78.6469)" class="st8" width="3.6" height="2.5"/>
				
					<rect x="198.6" y="85.1" transform="matrix(0.9286 -0.3711 0.3711 0.9286 -17.7383 80.5274)" class="st8" width="3.6" height="2.5"/>
				
					<rect x="204.1" y="83" transform="matrix(0.9286 -0.3711 0.3711 0.9286 -16.5574 82.4281)" class="st8" width="3.6" height="2.5"/>
				
					<rect x="178.3" y="97.8" transform="matrix(0.9286 -0.3711 0.3711 0.9286 -23.8922 73.9107)" class="st8" width="3.6" height="2.5"/>
				
					<rect x="183.8" y="95.6" transform="matrix(0.9286 -0.3711 0.3711 0.9286 -22.6795 75.791)" class="st8" width="3.6" height="2.5"/>
				
					<rect x="189.2" y="93.4" transform="matrix(0.9286 -0.3711 0.3711 0.9286 -21.4867 77.6394)" class="st8" width="3.6" height="2.5"/>
				
					<rect x="194.7" y="91.2" transform="matrix(0.9286 -0.3711 0.3711 0.9286 -20.2746 79.5197)" class="st8" width="3.6" height="2.5"/>
				
					<rect x="200.2" y="89" transform="matrix(0.9286 -0.3711 0.3711 0.9286 -19.0619 81.3999)" class="st8" width="3.6" height="2.5"/>
				
					<rect x="205.6" y="86.8" transform="matrix(0.9286 -0.3711 0.3711 0.9286 -17.8696 83.2484)" class="st8" width="3.6" height="2.5"/>
				
					<rect x="179.8" y="101.6" transform="matrix(0.9286 -0.3711 0.3711 0.9286 -25.2052 74.7313)" class="st8" width="3.6" height="2.5"/>
				
					<rect x="185.3" y="99.4" transform="matrix(0.9286 -0.3711 0.3711 0.9286 -23.9931 76.6116)" class="st8" width="3.6" height="2.5"/>
				
					<rect x="190.8" y="97.3" transform="matrix(0.9286 -0.3711 0.3711 0.9286 -22.8122 78.5122)" class="st8" width="3.6" height="2.5"/>
				
					<rect x="196.2" y="95.1" transform="matrix(0.9286 -0.3711 0.3711 0.9286 -21.6207 80.3608)" class="st8" width="3.6" height="2.5"/>
				
					<rect x="201.7" y="92.9" transform="matrix(0.9286 -0.3711 0.3711 0.9286 -20.4086 82.2411)" class="st8" width="3.6" height="2.5"/>
				
					<rect x="207.2" y="90.7" transform="matrix(0.9286 -0.3711 0.3711 0.9286 -19.1946 84.1212)" class="st8" width="3.6" height="2.5"/>
				
					<rect x="181.4" y="105.5" transform="matrix(0.9286 -0.3711 0.3711 0.9286 -26.5307 75.6041)" class="st8" width="3.6" height="2.5"/>
				
					<rect x="186.9" y="103.3" transform="matrix(0.9286 -0.3711 0.3711 0.9286 -25.318 77.4843)" class="st8" width="3.6" height="2.5"/>
				
					<rect x="192.3" y="101.1" transform="matrix(0.9286 -0.3711 0.3711 0.9286 -24.1258 79.3328)" class="st8" width="3.6" height="2.5"/>
				
					<rect x="197.8" y="99" transform="matrix(0.9286 -0.3711 0.3711 0.9286 -22.9449 81.2334)" class="st8" width="3.6" height="2.5"/>
				
					<rect x="203.3" y="96.8" transform="matrix(0.9286 -0.3711 0.3711 0.9286 -21.7317 83.1136)" class="st8" width="3.6" height="2.5"/>
				
					<rect x="208.7" y="94.6" transform="matrix(0.9286 -0.3711 0.3711 0.9286 -20.5399 84.9621)" class="st8" width="3.6" height="2.5"/>
			</g>
			<g>
				<path class="st7" d="M202.8,79.6c-0.2-0.5,0-1.1,0.6-1.3c0.5-0.2,1.1,0,1.3,0.6c0.2,0.5,0,1.1-0.6,1.3S203,80.1,202.8,79.6z"/>
				<path class="st7" d="M201.9,93.4c-0.2-0.5,0-1.1,0.6-1.3c0.5-0.2,1.1,0,1.3,0.6c0.2,0.5,0,1.1-0.6,1.3
					C202.7,94.2,202.1,93.9,201.9,93.4z"/>
				<path class="st7" d="M189.5,93.9c-0.2-0.5,0-1.1,0.6-1.3c0.5-0.2,1.1,0,1.3,0.6c0.2,0.5,0,1.1-0.6,1.3
					C190.2,94.7,189.7,94.4,189.5,93.9z"/>
				<path class="st7" d="M181.6,106c-0.2-0.5,0-1.1,0.6-1.3c0.5-0.2,1.1,0,1.3,0.6c0.2,0.5,0,1.1-0.6,1.3
					C182.4,106.8,181.8,106.5,181.6,106z"/>
				<path class="st7" d="M182.5,106c-0.1,0-0.1,0-0.2-0.1c-0.2-0.1-0.2-0.3-0.1-0.5l7.8-12.1c0.1-0.1,0.2-0.2,0.3-0.2l12.2-0.5
					l0.8-13.5c0-0.2,0.2-0.4,0.4-0.3c0.2,0,0.4,0.2,0.3,0.4L203.2,93c0,0.2-0.2,0.3-0.4,0.3l-12.3,0.5l-7.7,12
					C182.8,106,182.7,106,182.5,106z"/>
			</g>
		</g>
		<path class="st8" d="M162.3,58.3c-1,5.1-1.6,15.4,1.2,36h25c-0.5-3.6-2.2-22.6,1.5-40.7c0,0-4.3-0.9-8.4-1.1
			c-3.2-0.2-7.8-0.3-10.6,0c-1.2,0.1-2.3,0.3-3.3,0.5C164.9,53.5,162.8,55.6,162.3,58.3z"/>
		<path class="st11" d="M166.2,66.1l-4.7,0.4c-0.2,6.1,0.2,14.9,2,27.8h0.2C166.5,85,170.3,71.8,166.2,66.1z"/>
		<g>
			<polygon class="st11" points="178.1,202.4 178.4,208 183,208 182.8,202.4 			"/>
		</g>
		<path class="st9" d="M182.5,38.2c-1.2,4.5-1.7,7.2-4.4,9c-4.2,2.8-9.3-0.4-9.5-5.2c-0.1-4.3,1.8-10.9,6.7-11.8
			C179.9,29.4,183.7,33.7,182.5,38.2z"/>
		<path class="st8" d="M172,38.2l-2.4,0.6l2.3-5.9c-0.2-0.4-0.9-2.5-0.2-4.5c0.2-0.5,0.7-0.9,1.2-0.9c5-0.1,10.3,2.7,13,4.9
			c0.5,0.4,0.6,1.1,0.3,1.7c-0.6,1-1.3,1.7-2.3,2.6c0,1.6-2.7,9.1-4.2,9.9c-1.5,0.8-4.3,0.5-5.1-0.9C173.8,44.4,171.2,42.6,172,38.2
			z"/>
		<path class="st9" d="M174.2,38.3c-0.3,1.2-1,2.2-1.8,2.8c-1.2,0.9-2.1,0.1-2.1-1.3c0-1.2,0.7-3.2,2-3.6
			C173.7,35.8,174.5,36.9,174.2,38.3z"/>
		<path class="st8" d="M217,211.8c0-0.6,0.1-1.2,0.3-1.4c0.1-0.1,0.3-0.1,0.5,0c0.1,0.1,0.2,0.2,0.3,0.3c0.2,0.8-0.7,2.4-0.7,2.5
			l-0.1,0.1c0,0-0.1,0-0.1-0.1C217.1,213,217,212.4,217,211.8z M217.9,211.1c0-0.1,0-0.2,0-0.2c0-0.1-0.1-0.2-0.2-0.2
			c-0.1-0.1-0.2,0-0.2,0c-0.3,0.2-0.3,1.4-0.2,2.3C217.5,212.5,217.9,211.6,217.9,211.1z"/>
		<path class="st8" d="M217.1,213.2L217.1,213.2c0.3-0.6,1.3-1.7,1.8-1.7c0.1,0,0.3,0.1,0.3,0.4c0,0.2,0,0.4-0.2,0.6
			c-0.5,0.6-1.7,0.7-1.8,0.7C217.2,213.4,217.2,213.3,217.1,213.2C217.1,213.3,217.1,213.3,217.1,213.2z M219,212.1
			C219,212.1,219,212,219,212.1c0-0.3-0.1-0.3-0.1-0.3c-0.3,0-1.1,0.7-1.4,1.3c0.4-0.1,1.1-0.2,1.4-0.6
			C219,212.4,219,212.2,219,212.1z"/>
		<polygon class="st9" points="217.2,213.3 212.6,213.6 210.1,202.7 214.6,202.4 		"/>
		<path class="st8" d="M217.2,212.2l-5.1-0.5c-0.2,0-0.4,0.1-0.4,0.3l-1.3,4.1c-0.1,0.4,0.2,0.9,0.6,0.9c1.8,0.1,4.5,0.3,6.8,0.5
			c2.7,0.2,0.9,0.2,4.1,0.5c1.9,0.2,2.6-1.7,1.8-2c-3.6-1.1-4.2-1.9-5.5-3.3C218,212.4,217.6,212.3,217.2,212.2z"/>
		<g>
			<polygon class="st11" points="210.1,202.7 211.4,208.3 216,208 214.6,202.4 			"/>
		</g>
		<path class="st4" d="M172.4,94.3c0,0,10.8,35.9,14.8,49.2c4.5,14.6,21.5,63,21.5,63l8.2-1.8c0,0-11.6-41.6-16.5-62
			c-3.7-15.6-11.9-48.5-11.9-48.5h-16.1V94.3z"/>
		<path class="st8" d="M207.2,204l0.8,3.2l9.9-1.1v-2.9L207.2,204z"/>
		<path class="st14" d="M178.3,110.9c6,0.8,8.3,21.5,9.2,33.7c-0.1-0.4-0.2-0.8-0.3-1.1c-2.2-7.3-6.4-21.3-9.8-32.5
			C177.6,110.9,178,110.9,178.3,110.9z"/>
		<path class="st4" d="M163.5,94.3c0,0,3.6,35,5.2,49.2c1.6,14.8,7.7,63.4,7.7,63.4h7.9c0,0-1-47.7-1.3-62.3
			c-0.3-15.9-3-50.3-3-50.3L163.5,94.3L163.5,94.3z"/>
		<path class="st8" d="M175.1,203.7l0.4,3.3h9.6l0.3-2.9L175.1,203.7z"/>
		<g>
			<path class="st8" d="M129.7,127.2c4.1,6.5,12.8,8.5,19.3,4.4s8.5-12.8,4.4-19.3s-12.8-8.5-19.3-4.4
				C127.5,112,125.5,120.6,129.7,127.2z M151.5,113.4c3.5,5.5,1.8,12.8-3.7,16.3s-12.8,1.8-16.3-3.7c-3.5-5.5-1.8-12.8,3.7-16.3
				C140.7,106.3,148,107.9,151.5,113.4z"/>
			<path class="st15" d="M152.1,122.1c-1.3,5.8-7.1,9.5-12.9,8.2c-5.8-1.3-9.5-7.1-8.2-12.9s7.1-9.5,12.9-8.2
				C149.7,110.5,153.4,116.3,152.1,122.1z"/>
			<path class="st8" d="M153.8,110.5l1.3,2.1c0.2,0.3,0.1,0.7-0.2,0.9l0,0c-0.3,0.2-0.7,0.1-0.9-0.2l-1.3-2.1
				c-0.2-0.3-0.1-0.7,0.2-0.9l0,0C153.1,110.1,153.6,110.2,153.8,110.5z"/>
			<path class="st8" d="M162.3,104.6c-1.5,1-3,2.1-4.5,3.2s-3,2.2-4.4,3.4c-0.3,0.3-0.4,0.7-0.3,1.1c0.2,0.5,0.8,0.7,1.2,0.4
				c1.7-0.8,3.3-1.6,4.9-2.5c1.6-0.9,3.2-1.8,4.8-2.7c1.4-0.8,2.7-1.6,4-2.4c0.4-0.2,0.5-0.7,0.3-1.1l-1.1-1.7
				c-0.2-0.4-0.7-0.5-1.1-0.2C164.9,102.9,163.5,103.7,162.3,104.6z"/>
		</g>
		<path class="st8" d="M169.2,60.1c-0.8,3.7-1.6,7.5-2.4,11.2l-2.6,11.2c-0.8,3.6-1.6,7.3-2.2,11.1l-2,11.2l0,0
			c-0.2,1-1.1,1.6-2,1.4c-0.8-0.1-1.4-0.9-1.5-1.7c-0.1-3.9-0.1-7.8,0.1-11.7c0.2-3.9,0.6-7.8,1.2-11.7c0.6-3.8,1.3-7.6,2-11.4
			s1.5-7.5,2.4-11.3c0.4-1.9,2.3-3.1,4.3-2.7C168.4,56.3,169.6,58.2,169.2,60.1z"/>
		<path class="st9" d="M159.5,103.7c-0.3-0.3-0.8-0.5-1.2-0.4l-1,0.2c-0.5,0.1-0.9,0.6-1,1.1l-0.3,2.3c-0.1,0.6,0.1,1.3,0.4,1.9
			l1.4,2.3c0.4,0.5,1,0.7,1.6,0.6l1.5-0.3c0.9-0.2,1.5-1.1,1.2-2l-0.4-1.2C161.6,108.2,161.5,105.9,159.5,103.7z"/>
		<path class="st8" d="M174.1,57.9c2.3,6-5.6,14.6-5.6,14.6l-9.9-3.3c0,0,0.8-8.2,4.2-12.9C167,50.6,172.4,53.3,174.1,57.9z"/>
	</g>
</g>
</svg>
