<?xml version="1.0" encoding="utf-8"?>
<!-- Generator: Adobe Illustrator 24.3.0, SVG Export Plug-In . SVG Version: 6.00 Build 0)  -->
<svg version="1.1" id="Layer_1" xmlns="http://www.w3.org/2000/svg" xmlns:xlink="http://www.w3.org/1999/xlink" x="0px" y="0px"
	 viewBox="0 0 228 220" style="enable-background:new 0 0 228 220;" xml:space="preserve">
<style type="text/css">
	.st0{fill:#040D43;}
	.st1{fill:#FFFFFF;}
</style>
<g id="Coding_workshop_1_">
	<g>
		<g>
			<g>
				<g>
					<path class="st0" d="M148.6,117.9l-41.3,0.3c-0.3,0-0.4,0.2-0.4,0.5v35.2c0,3.4-23.5,12.1-23.7,11.7l0,3.7
						c0,0.7,0.6,1.3,1.4,1.3h0.5c0,0,0,0,0,0h34.7c1.6,0,3.2-0.4,4.7-1l19.1-8c3.4-1.4,5.6-4.5,5.6-7.9v-35.2
						C149,118.1,148.9,117.9,148.6,117.9z"/>
					<g>
						<path class="st1" d="M102.7,116.1v35.2c0,3.5-2.2,6.6-5.7,8.1l-12.9,5.5c-0.8,0.4-0.6,1.5,0.4,1.5h35.3c1.6,0,3.2-0.3,4.6-0.9
							l14.2-6c3.5-1.5,5.8-4.7,5.8-8.1v-35.2c0-0.1-0.1-0.3-0.3-0.3H103C102.8,115.8,102.7,115.9,102.7,116.1z"/>
						<path class="st0" d="M119.8,166.6H84.5c-0.7,0-1-0.4-1.1-0.9c-0.1-0.5,0.2-0.9,0.6-1.1l12.9-5.5c3.4-1.4,5.6-4.5,5.6-7.9
							v-35.2c0-0.3,0.2-0.5,0.6-0.5h41.1c0.3,0,0.6,0.2,0.6,0.5v35.2c0,3.6-2.3,6.9-5.9,8.4l-14.2,6
							C123.1,166.3,121.4,166.6,119.8,166.6z M103,116.1v35.2c0,3.6-2.3,6.8-5.9,8.4l-12.9,5.5c-0.3,0.1-0.4,0.3-0.3,0.5
							c0,0.2,0.2,0.4,0.6,0.4h35.3c1.5,0,3.1-0.3,4.5-0.9l14.2-6c3.4-1.4,5.6-4.5,5.6-7.9v-35.2c0,0,0,0,0,0L103,116.1
							C103,116.1,103,116.1,103,116.1z"/>
					</g>
				</g>
				<g>
					<path class="st0" d="M25.4,136.2l178.2,0.4c1.6,0,3.1-1.2,3.3-2.7l14.5-111.5c0.3-2.7-1.7-5.4-4.4-5.3L40.9,18L25.4,136.2z"/>
					<g>
						<path class="st1" d="M210,17.7c3.1,0,5.8,3.1,5.4,6.2l-14.1,109.8c-0.2,1.6-1.9,2.9-3.4,2.9l-175-0.3c-1.9,0-3.1-1.6-2.9-3.4
							L34.6,21c0.2-1.6,1.2-3.3,2.8-3.3H210z"/>
						<path class="st0" d="M198,136.8l-175-0.3c-0.9,0-1.8-0.4-2.4-1c-0.6-0.7-0.9-1.7-0.8-2.7L34.3,21c0.2-1.7,1.4-3.5,3-3.5H210
							c1.5,0,3.1,0.7,4.2,2c1.1,1.3,1.7,2.9,1.5,4.4l-14.1,109.8C201.4,135.3,199.7,136.8,198,136.8z M37.4,18
							c-1.4,0-2.3,1.6-2.5,3.1L20.3,132.9c-0.1,0.9,0.1,1.7,0.6,2.3c0.5,0.6,1.2,0.9,2,0.9l175,0.3c1.5,0,3-1.3,3.2-2.6l14.1-109.8
							c0.2-1.4-0.3-2.8-1.3-4c-1-1.2-2.4-1.9-3.8-1.9H37.4z"/>
					</g>
					<path class="st0" d="M193.8,131.8l-165.4-0.3c-0.9,0-1.7-0.3-2.2-1c-0.6-0.6-0.8-1.5-0.7-2.5L38.9,25.2
						c0.2-1.6,1.3-3.3,2.8-3.3h163.2c1.4,0,2.9,0.7,3.9,1.9c1,1.2,1.5,2.7,1.4,4.1l-12.9,101C197,130.4,195.5,131.8,193.8,131.8z
						 M41.8,22.5c-1.3,0-2.1,1.4-2.3,2.8L26.1,128.2c-0.1,0.8,0.1,1.5,0.6,2.1c0.4,0.5,1.1,0.8,1.8,0.8l165.4,0.3
						c1.3,0,2.7-1.1,2.9-2.4l12.9-101c0.2-1.3-0.3-2.6-1.2-3.7c-1-1.1-2.2-1.7-3.5-1.7H41.8z"/>
				</g>
			</g>
		</g>
		<g>
			<g>
				<path class="st0" d="M187.5,36.4h-67.2c-0.1,0-0.1,0-0.2-0.1c0-0.1-0.1-0.1-0.1-0.2l0.5-3.4c0-0.1,0.1-0.2,0.3-0.2H188
					c0.1,0,0.1,0,0.2,0.1c0,0.1,0.1,0.1,0.1,0.2l-0.5,3.4C187.8,36.3,187.6,36.4,187.5,36.4z M120.6,35.9h66.7l0.4-2.8H121
					L120.6,35.9z"/>
				<polygon class="st0" points="202,41.7 133.5,41.7 134,38.4 202.5,38.4 				"/>
				<path class="st0" d="M193,47.6h-35.4c-0.1,0-0.1,0-0.2-0.1c0-0.1-0.1-0.1-0.1-0.2l0.5-3.4c0-0.1,0.1-0.2,0.3-0.2h35.4
					c0.1,0,0.1,0,0.2,0.1c0,0.1,0.1,0.1,0.1,0.2l-0.5,3.4C193.3,47.5,193.1,47.6,193,47.6z M157.9,47h34.9l0.4-2.8h-34.9L157.9,47z"
					/>
				<path class="st0" d="M181.5,80.9h-67.2c-0.1,0-0.1,0-0.2-0.1c0-0.1-0.1-0.1-0.1-0.2l0.5-3.4c0-0.1,0.1-0.2,0.3-0.2H182
					c0.1,0,0.1,0,0.2,0.1c0,0.1,0.1,0.1,0.1,0.2l-0.5,3.4C181.8,80.8,181.7,80.9,181.5,80.9z M114.6,80.4h66.7l0.4-2.8H115
					L114.6,80.4z"/>
				<path class="st0" d="M145.2,86.5h-17.6c-0.1,0-0.1,0-0.2-0.1c0-0.1-0.1-0.1-0.1-0.2l0.5-3.4c0-0.1,0.1-0.2,0.3-0.2h15.9
					c0.1,0,0.3,0.1,0.3,0.3c0,0.1-0.1,0.3-0.3,0.3h-15.7l-0.4,2.8h17.3c0.1,0,0.3,0.1,0.3,0.3S145.3,86.5,145.2,86.5z"/>
				<path class="st0" d="M196,86.5h-42.3c-0.1,0-0.3-0.1-0.3-0.3s0.1-0.3,0.3-0.3h42.1l0.4-2.8h-44.7c-0.1,0-0.3-0.1-0.3-0.3
					c0-0.1,0.1-0.3,0.3-0.3h45c0.1,0,0.1,0,0.2,0.1c0,0.1,0.1,0.1,0.1,0.2l-0.5,3.4C196.3,86.4,196.2,86.5,196,86.5z"/>
				<path class="st0" d="M195.3,92h-36.6c-0.1,0-0.3-0.1-0.3-0.3s0.1-0.3,0.3-0.3h36.4l0.4-2.8h-38.8c-0.1,0-0.3-0.1-0.3-0.3
					c0-0.1,0.1-0.3,0.3-0.3h39.1c0.1,0,0.1,0,0.2,0.1c0,0.1,0.1,0.1,0.1,0.2l-0.5,3.4C195.5,91.9,195.4,92,195.3,92z"/>
				<path class="st0" d="M150.8,97.3h-25c-0.1,0-0.1,0-0.2-0.1c0-0.1-0.1-0.1-0.1-0.2l0.5-3.4c0-0.1,0.1-0.2,0.3-0.2h20.5
					c0.1,0,0.3,0.1,0.3,0.3c0,0.1-0.1,0.3-0.3,0.3h-20.3l-0.4,2.8h24.7c0.1,0,0.3,0.1,0.3,0.3C151,97.2,150.9,97.3,150.8,97.3z"/>
				<polygon class="st0" points="185.3,52.8 118,52.8 118.5,49.5 185.7,49.5 				"/>
				<polygon class="st0" points="190,58.4 131.3,58.4 131.7,55 190.1,55 				"/>
				<path class="st0" d="M181.8,69.8h-27.1c-0.1,0-0.1,0-0.2-0.1c0-0.1-0.1-0.1-0.1-0.2l0.5-3.4c0-0.1,0.1-0.2,0.3-0.2h27.1
					c0.1,0,0.1,0,0.2,0.1c0,0.1,0.1,0.1,0.1,0.2l-0.5,3.4C182,69.7,181.9,69.8,181.8,69.8z M154.9,69.3h26.6l0.4-2.8h-26.6
					L154.9,69.3z"/>
				<polygon class="st0" points="189.1,75.1 162,75.1 162.4,71.7 189.6,71.7 				"/>
				<polygon class="st0" points="187.8,64 155.4,64 155.8,60.6 188,60.6 				"/>
				<polygon class="st1" points="178.6,102.9 111.3,102.9 111.8,99.5 179,99.5 				"/>
				<path class="st0" d="M160.1,108.7h-35.5c-0.1,0-0.1,0-0.2-0.1c0-0.1-0.1-0.1-0.1-0.2l0.5-3.4c0-0.1,0.1-0.2,0.3-0.2h33.8
					c0.1,0,0.3,0.1,0.3,0.3c0,0.1-0.1,0.3-0.3,0.3h-33.6l-0.4,2.8h35.2c0.1,0,0.3,0.1,0.3,0.3C160.3,108.6,160.2,108.7,160.1,108.7z
					"/>
				<path class="st0" d="M178.7,114.2h-30.1c-0.1,0-0.1,0-0.2-0.1c0-0.1-0.1-0.1-0.1-0.2l0.5-3.4c0-0.1,0.1-0.2,0.3-0.2h28.5
					c0.1,0,0.3,0.1,0.3,0.3c0,0.1-0.1,0.3-0.3,0.3h-28.3l-0.4,2.8h29.8c0.1,0,0.3,0.1,0.3,0.3C179,114.1,178.9,114.2,178.7,114.2z"
					/>
				<polygon class="st1" points="176.3,119.5 109.1,119.5 109.5,116.2 176.8,116.2 				"/>
				<path class="st0" d="M178.5,125.3h-56.1c-0.1,0-0.1,0-0.2-0.1c0-0.1-0.1-0.1-0.1-0.2l0.5-3.4c0-0.1,0.1-0.2,0.3-0.2h55.9
					c0.1,0,0.3,0.1,0.3,0.3c0,0.1-0.1,0.3-0.3,0.3H123l-0.4,2.8h55.8c0.1,0,0.3,0.1,0.3,0.3C178.7,125.2,178.6,125.3,178.5,125.3z"
					/>
			</g>
			<g>
				<polygon class="st0" points="109.5,75 102.9,75 103.4,71.8 109.9,71.8 				"/>
				<polygon class="st0" points="114.9,36.2 108.1,36.2 108.6,32.8 115.4,32.8 				"/>
				<polygon class="st0" points="115.6,31.1 108.8,31.1 109.3,27.7 116.1,27.7 				"/>
				<polygon class="st0" points="114.1,41.7 107.4,41.7 107.8,38.4 114.6,38.4 				"/>
				<polygon class="st0" points="113.2,47.3 106.7,47.3 107.2,43.9 113.6,43.9 				"/>
				<polygon class="st0" points="112.4,52.8 105.9,52.8 106.4,49.5 112.9,49.5 				"/>
				<polygon class="st0" points="111.7,58.4 105.1,58.4 105.6,55 112.1,55 				"/>
				<polygon class="st0" points="110.4,69.3 103.9,69.3 104.3,65.9 110.8,65.9 				"/>
				<polygon class="st0" points="111,63.7 104.8,63.7 105.2,60.4 111.4,60.4 				"/>
				<polygon class="st0" points="107.2,91.9 100.7,91.9 101.1,88.6 107.6,88.6 				"/>
				<polygon class="st0" points="108.1,86.2 101.6,86.2 102.1,82.8 108.6,82.8 				"/>
				<polygon class="st0" points="108.7,80.6 102.5,80.6 102.9,77.2 109.1,77.2 				"/>
				<polygon class="st0" points="102.8,124.8 96.2,124.8 96.7,121.5 103.2,121.5 				"/>
				<polygon class="st0" points="106.5,97 100,97 100.5,93.7 106.9,93.7 				"/>
				<polygon class="st0" points="105.8,102.6 99.2,102.6 99.7,99.2 106.2,99.2 				"/>
				<polygon class="st0" points="105,108.2 98.4,108.2 98.9,104.8 105.4,104.8 				"/>
				<polygon class="st0" points="103.7,119 97.2,119 97.6,115.7 104.1,115.7 				"/>
				<polygon class="st0" points="104.3,113.5 98.1,113.5 98.5,110.1 104.7,110.1 				"/>
			</g>
			<g>
				<polygon class="st0" points="80.2,30.3 47.9,30.3 48.3,27.1 80.7,27.1 				"/>
				<path class="st0" d="M85.9,36.2H51.8c-0.1,0-0.1,0-0.2-0.1c0-0.1-0.1-0.1-0.1-0.2l0.5-3.4c0-0.1,0.1-0.2,0.3-0.2h34.1
					c0.1,0,0.1,0,0.2,0.1c0,0.1,0.1,0.1,0.1,0.2L86.2,36C86.2,36.1,86,36.2,85.9,36.2z M52.1,35.7h33.6l0.4-2.8H52.5L52.1,35.7z"/>
				<path class="st0" d="M94.8,41.8H55.1c-0.1,0-0.1,0-0.2-0.1c0-0.1-0.1-0.1-0.1-0.2l0.5-3.4c0-0.1,0.1-0.2,0.3-0.2h39.7
					c0.1,0,0.1,0,0.2,0.1c0,0.1,0.1,0.1,0.1,0.2l-0.5,3.4C95.1,41.7,95,41.8,94.8,41.8z M55.4,41.2h39.2l0.4-2.8H55.8L55.4,41.2z"/>
				<path class="st0" d="M99.9,47.3H66.8c-0.1,0-0.1,0-0.2-0.1c0-0.1-0.1-0.1-0.1-0.2l0.5-3.4c0-0.1,0.1-0.2,0.3-0.2h33.2
					c0.1,0,0.1,0,0.2,0.1c0,0.1,0.1,0.1,0.1,0.2l-0.5,3.4C100.2,47.2,100.1,47.3,99.9,47.3z M67.1,46.8h32.6l0.4-2.8H67.4L67.1,46.8
					z"/>
				<polygon class="st0" points="68.1,74.8 41.9,74.8 42.3,71.5 68.5,71.5 				"/>
				<path class="st0" d="M68.5,80.7H49.3c-0.1,0-0.1,0-0.2-0.1c0-0.1-0.1-0.1-0.1-0.2l0.5-3.4c0-0.1,0.1-0.2,0.3-0.2H69
					c0.1,0,0.1,0,0.2,0.1c0,0.1,0.1,0.1,0.1,0.2l-0.5,3.4C68.8,80.6,68.6,80.7,68.5,80.7z M49.6,80.1h18.6l0.4-2.8H50L49.6,80.1z"/>
				<path class="st0" d="M75.4,86.2H57c-0.1,0-0.1,0-0.2-0.1c0-0.1-0.1-0.1-0.1-0.2l0.5-3.4c0-0.1,0.1-0.2,0.3-0.2h18.3
					c0.1,0,0.1,0,0.2,0.1c0,0.1,0.1,0.1,0.1,0.2L75.6,86C75.6,86.1,75.5,86.2,75.4,86.2z M57.3,85.7h17.8l0.4-2.8H57.7L57.3,85.7z"
					/>
				<path class="st0" d="M87.5,91.8H64.3c-0.1,0-0.1,0-0.2-0.1c0-0.1-0.1-0.1-0.1-0.2l0.5-3.4c0-0.1,0.1-0.2,0.3-0.2H88
					c0.1,0,0.1,0,0.2,0.1c0,0.1,0.1,0.1,0.1,0.2l-0.5,3.4C87.8,91.7,87.7,91.8,87.5,91.8z M64.6,91.3h22.7l0.4-2.8H65L64.6,91.3z"/>
				<polygon class="st0" points="68.7,52.6 45.3,52.6 45.7,49.3 69.2,49.3 				"/>
				<path class="st0" d="M97.9,58.4H61.6c-0.1,0-0.1,0-0.2-0.1c0-0.1-0.1-0.1-0.1-0.2l0.5-3.4c0-0.1,0.1-0.2,0.3-0.2h36.2
					c0.1,0,0.1,0,0.2,0.1c0,0.1,0.1,0.1,0.1,0.2l-0.5,3.4C98.1,58.3,98,58.4,97.9,58.4z M61.9,57.9h35.7l0.4-2.8H62.3L61.9,57.9z"/>
				<polygon class="st0" points="67.5,63.7 44.1,63.7 44.5,60.4 68,60.4 				"/>
				<path class="st0" d="M96.7,69.5H60.4c-0.1,0-0.1,0-0.2-0.1c0-0.1-0.1-0.1-0.1-0.2l0.5-3.4c0-0.1,0.1-0.2,0.3-0.2h36.2
					c0.1,0,0.1,0,0.2,0.1c0,0.1,0.1,0.1,0.1,0.2l-0.5,3.4C96.9,69.5,96.8,69.5,96.7,69.5z M60.7,69h35.7l0.4-2.8H61.1L60.7,69z"/>
				<polygon class="st0" points="68,97 38.9,97 39.3,93.8 68.5,93.8 				"/>
				<path class="st0" d="M86.9,102.9H39.3c-0.1,0-0.1,0-0.2-0.1c0-0.1-0.1-0.1-0.1-0.2l0.5-3.4c0-0.1,0.1-0.2,0.3-0.2h47.6
					c0.1,0,0.1,0,0.2,0.1c0,0.1,0.1,0.1,0.1,0.2l-0.5,3.4C87.1,102.8,87,102.9,86.9,102.9z M39.6,102.4h47.1l0.4-2.8H40L39.6,102.4z
					"/>
				<path class="st0" d="M86.7,108.5H59.4c-0.1,0-0.1,0-0.2-0.1c0-0.1-0.1-0.1-0.1-0.2l0.5-3.4c0-0.1,0.1-0.2,0.3-0.2h27.3
					c0.1,0,0.1,0,0.2,0.1c0,0.1,0.1,0.1,0.1,0.2l-0.5,3.4C87,108.4,86.9,108.5,86.7,108.5z M59.7,107.9h26.8l0.4-2.8H60.1
					L59.7,107.9z"/>
				<polygon class="st0" points="75.3,119.3 57,119.3 55.5,115.9 75.7,115.9 				"/>
				<path class="st0" d="M92.2,113.6H66c-0.1,0-0.1,0-0.2-0.1c0-0.1-0.1-0.1-0.1-0.2l0.5-3.4c0-0.1,0.1-0.2,0.3-0.2h26.2
					c0.1,0,0.1,0,0.2,0.1c0,0.1,0.1,0.1,0.1,0.2l-0.5,3.4C92.4,113.5,92.3,113.6,92.2,113.6z M66.3,113H92l0.4-2.8H66.7L66.3,113z"
					/>
				<path class="st0" d="M80.7,125.1H59.8c-0.1,0-0.3-0.1-0.3-0.3c0-0.1,0.1-0.3,0.3-0.3h20.7l0.4-2.8h-22c-0.1,0-0.3-0.1-0.3-0.3
					c0-0.1,0.1-0.3,0.3-0.3h22.3c0.1,0,0.1,0,0.2,0.1c0,0.1,0.1,0.1,0.1,0.2l-0.5,3.4C80.9,125,80.8,125.1,80.7,125.1z"/>
			</g>
		</g>
	</g>
	<g>
		<g>
			<g>
				<g>
					<polygon class="st1" points="212.3,199 211.6,205.3 207.4,205.8 207.4,198.3 					"/>
					<path class="st0" d="M207.4,206.1c-0.1,0-0.1,0-0.2-0.1c-0.1,0-0.1-0.1-0.1-0.2v-7.5c0-0.1,0-0.1,0.1-0.2
						c0.1,0,0.1-0.1,0.2-0.1l4.9,0.7c0.1,0,0.2,0.1,0.2,0.3l-0.7,6.3c0,0.1-0.1,0.2-0.2,0.2L207.4,206.1
						C207.4,206.1,207.4,206.1,207.4,206.1z M207.7,198.6v6.9l3.7-0.4l0.6-5.8L207.7,198.6z"/>
				</g>
				<g>
					<g>
						<path class="st1" d="M206.7,216.8c1.8,0.2,4.7,0.5,8,0c1.1-0.2,1.8-1.2,1.6-2.3c-0.7-3.1-2-8.9-4.2-11.5l-0.5,1.5l-0.8-1.4
							c-0.1-0.2-0.3-0.3-0.5-0.3l-1.7-0.2c-0.3,0-0.7,0.2-0.7,0.5l-0.3,1.3l-1-1.7l-0.4,6.2c-0.1,1.3-0.3,2.6-0.6,3.9l-0.5,2
							C205,215.7,205.7,216.6,206.7,216.8z"/>
						<path class="st0" d="M210.7,217.3c-1.6,0-3-0.1-4-0.3c-1.2-0.2-2-1.3-1.8-2.4l0.5-2c0.3-1.3,0.5-2.6,0.6-3.9l0.4-6.2
							c0-0.1,0.1-0.2,0.2-0.2c0.1,0,0.2,0,0.3,0.1l0.7,1.1l0.1-0.6c0.1-0.5,0.6-0.8,1-0.7l1.7,0.2c0.3,0,0.6,0.2,0.7,0.5l0.5,0.9
							l0.3-0.9c0-0.1,0.1-0.2,0.2-0.2c0.1,0,0.2,0,0.2,0.1c2.1,2.6,3.4,7.8,4.1,11l0.2,0.7c0.1,0.6,0,1.2-0.3,1.7
							c-0.3,0.5-0.9,0.8-1.5,0.9C213.4,217.2,212,217.3,210.7,217.3z M206.8,203.4l-0.4,5.4c-0.1,1.3-0.3,2.7-0.6,4l-0.5,2
							c-0.1,0.9,0.5,1.7,1.4,1.8c1.8,0.3,4.6,0.5,8,0c0.5-0.1,0.9-0.3,1.1-0.7c0.3-0.4,0.3-0.9,0.2-1.3l-0.2-0.7
							c-0.7-3-1.9-7.8-3.7-10.4l-0.4,1c0,0.1-0.1,0.2-0.2,0.2c-0.1,0-0.2,0-0.2-0.1l-0.8-1.4c-0.1-0.1-0.2-0.2-0.3-0.2l-1.7-0.2
							c-0.2,0-0.4,0.1-0.5,0.3l-0.3,1.3c0,0.1-0.1,0.2-0.2,0.2c-0.1,0-0.2,0-0.3-0.1L206.8,203.4z"/>
					</g>
					<path class="st0" d="M210.6,215.4c-2.2,0-3.5-0.5-3.5-0.5c-0.1,0-0.2-0.2-0.2-0.3c0-0.1,0.2-0.2,0.3-0.2c0,0,2.8,1,6.9,0
						c0.1,0,0.3,0.1,0.3,0.2c0,0.1-0.1,0.3-0.2,0.3C212.9,215.3,211.7,215.4,210.6,215.4z"/>
					<path class="st0" d="M212.7,210.6C212.7,210.6,212.6,210.6,212.7,210.6l-4-0.1c-0.1,0-0.3-0.1-0.3-0.3c0-0.1,0.1-0.3,0.3-0.3
						l4,0.1c0.1,0,0.3,0.1,0.3,0.3C212.9,210.5,212.8,210.6,212.7,210.6z"/>
				</g>
			</g>
			<g>
				<g>
					<polygon class="st1" points="192.5,195.7 191.9,204.8 186.8,204.8 186.5,195.7 					"/>
					<path class="st0" d="M191.9,205.1h-5.1c-0.1,0-0.3-0.1-0.3-0.3l-0.2-9.2c0-0.1,0-0.1,0.1-0.2c0-0.1,0.1-0.1,0.2-0.1h6
						c0.1,0,0.1,0,0.2,0.1c0,0.1,0.1,0.1,0.1,0.2l-0.6,9.2C192.1,205,192,205.1,191.9,205.1z M187,204.6h4.6l0.6-8.7h-5.4L187,204.6
						z"/>
				</g>
				<g>
					<g>
						<path class="st1" d="M193.2,210c0,0.9-0.6,1.6-1.4,1.8c-2.9,0.7-9.5,2.2-11.4,2.5c-2.4,0.4-5.4-0.4-6.7-1.8
							c-1.3-1.4,2.9-4.9,4.9-6.1c2.9-1.9,5.8-5.5,7-5.7c1.2-0.2,3.4,3.3,3.4,3.3l3.6-1.5C192.5,202.5,193.1,205.6,193.2,210z"/>
						<path class="st0" d="M179.1,214.7c-2.2,0-4.6-0.8-5.6-2c-0.3-0.3-0.4-0.6-0.3-1c0.3-1.8,3.6-4.5,5.2-5.5
							c1.4-0.9,2.8-2.3,4.1-3.4c1.3-1.3,2.3-2.2,3-2.3c1.2-0.2,3,2.4,3.5,3.2l3.4-1.4c0.1,0,0.2,0,0.2,0c0.1,0,0.1,0.1,0.1,0.2
							c0,0,0.6,3.2,0.7,7.6c0,1-0.7,1.9-1.6,2.1c-2.8,0.7-9.5,2.2-11.4,2.5C180,214.7,179.5,214.7,179.1,214.7z M185.6,201
							C185.5,201,185.5,201,185.6,201c-0.6,0.1-1.6,1.1-2.7,2.2c-1.3,1.2-2.7,2.6-4.2,3.5c-1.6,1-4.8,3.6-5,5.1c0,0.3,0,0.5,0.2,0.6
							c1.2,1.3,4.1,2.1,6.5,1.7c1.9-0.3,8.6-1.8,11.4-2.5c0.7-0.2,1.2-0.8,1.2-1.6c-0.1-3.5-0.5-6.3-0.6-7.2l-3.3,1.4
							c-0.1,0.1-0.3,0-0.3-0.1C187.8,202.8,186.3,201,185.6,201z"/>
					</g>
					<path class="st0" d="M179.1,212.5c-1.6,0-3-0.3-4-0.9c-0.1-0.1-0.2-0.2-0.1-0.4c0.1-0.1,0.2-0.2,0.4-0.1
						c3.8,2.5,13.8-1.2,15.8-1.9c0.1-0.1,0.3,0,0.3,0.2c0.1,0.1,0,0.3-0.2,0.3C189.3,210.4,183.6,212.5,179.1,212.5z"/>
					<path class="st0" d="M184.8,207.5c-0.1,0-0.1,0-0.2-0.1l-2.1-2.1c-0.1-0.1-0.1-0.3,0-0.4c0.1-0.1,0.3-0.1,0.4,0l2.1,2.1
						c0.1,0.1,0.1,0.3,0,0.4C184.9,207.4,184.9,207.5,184.8,207.5z"/>
				</g>
			</g>
			<g>
				<g>
					<path class="st1" d="M213.7,135.8c0,0,1.6,28.7,2.4,38.6c0.8,9.9-1.9,25.8-1.9,25.8l-7.9-0.4c0,0-0.5-19.4-1.1-24.8
						c0,0-3.3-7.3-4.3-13.8c-1-6.5-4.3-16.8-4.3-16.8s-2.7,51.3-3,55.3c0,0-6.2,0.3-8.4-1.1c0,0-3.9-18.7-3.4-28.9
						c0.6-10.2-0.1-35.5-0.1-35.5L213.7,135.8z"/>
					<path class="st0" d="M214.2,200.5C214.2,200.5,214.2,200.5,214.2,200.5l-7.9-0.4c-0.1,0-0.2-0.1-0.2-0.3
						c0-0.2-0.5-19.3-1.1-24.7c-0.3-0.6-3.4-7.6-4.3-13.8c-0.8-5-2.9-12.3-3.9-15.4c-0.4,8.4-2.7,50.3-2.9,53.9
						c0,0.1-0.1,0.2-0.3,0.2c-0.3,0-6.3,0.3-8.5-1.2c-0.1,0-0.1-0.1-0.1-0.2c0-0.2-3.9-18.9-3.4-28.9c0.6-10,0-35.2-0.1-35.4
						c0-0.1,0-0.1,0.1-0.2c0.1-0.1,0.1-0.1,0.2-0.1l31.9,1.4c0.1,0,0.2,0.1,0.3,0.2c0,0.3,1.6,28.8,2.4,38.6
						c0.8,9.8-1.9,25.8-1.9,25.9C214.4,200.4,214.3,200.5,214.2,200.5z M206.6,199.6l7.4,0.4c0.3-2,2.6-16.4,1.9-25.6
						c-0.8-9.3-2.2-35.6-2.4-38.4l-31.4-1.4c0.1,2.8,0.6,25.7,0,35.2c-0.5,9.6,3,27.1,3.3,28.7c1.9,1.1,6.8,1.1,7.9,1
						c0.3-5.4,2.9-54.6,3-55.1c0-0.1,0.1-0.2,0.2-0.2c0.1,0,0.2,0.1,0.3,0.2c0,0.1,3.4,10.4,4.3,16.8c1,6.4,4.2,13.7,4.3,13.7
						c0,0,0,0.1,0,0.1C206,180.1,206.5,197.3,206.6,199.6z"/>
				</g>
				<path class="st0" d="M209.1,175.3h-2.4c-0.1,0-0.3-0.1-0.3-0.3c0-0.1,0.1-0.3,0.3-0.3h2.4c0.1,0,0.3,0.1,0.3,0.3
					C209.3,175.2,209.2,175.3,209.1,175.3z"/>
				<path class="st0" d="M189.6,190.3c-0.1,0-0.3-0.1-0.3-0.3c-0.1-4.6-5.3-13.3-5.4-13.3c-0.1-0.1,0-0.3,0.1-0.4
					c0.1-0.1,0.3,0,0.4,0.1c0.2,0.4,5.4,8.9,5.5,13.6C189.8,190.1,189.7,190.3,189.6,190.3C189.6,190.3,189.6,190.3,189.6,190.3z"/>
			</g>
		</g>
		<g>
			<g>
				<path class="st1" d="M177,90.3c-0.4,0-4.1,6.2-5.8,9.1c-0.5,0.8-1.6,1.1-2.4,0.6l-13.3-8.2c-1.1-0.7-2-1.6-2.7-2.6
					c-1.1-1.7-1.8-3.4-3.3-4.6c-1.2-1-2.4-2.1-2.8-2.4c-0.2-0.2-1.3,0.6-0.5,1.9c0.2,0.4,1.2,1.3,1.4,1.6c0.4,0.6,0.4,1.4,0,2
					c-0.5,0.6-0.9,1.6-0.3,3c0.8,2,2.6,2.5,3.6,2.6c0.5,0.1,1,0.3,1.3,0.7l12.3,14.1c1.9,2.2,5.1,2.7,7.6,1.2
					c4-2.4,9.1-7.4,12.8-13.6L177,90.3z"/>
				<path class="st0" d="M169,110.5c-1.7,0-3.5-0.7-4.7-2.1L152,94.3c-0.3-0.3-0.7-0.6-1.2-0.6c-1.1-0.1-3-0.7-3.8-2.8
					c-0.6-1.5-0.1-2.6,0.4-3.2c0.4-0.5,0.4-1.2,0-1.7c-0.1-0.2-0.4-0.4-0.6-0.7c-0.3-0.3-0.7-0.7-0.8-0.9c-0.6-1-0.3-1.8,0.1-2.1
					c0.3-0.2,0.6-0.3,0.8-0.1c0.2,0.1,0.5,0.4,0.9,0.7c0.5,0.5,1.2,1.1,1.9,1.6c1.1,0.9,1.7,2,2.4,3.2c0.3,0.5,0.6,1,0.9,1.5
					c0.7,1,1.6,1.9,2.6,2.6l13.3,8.2c0.3,0.2,0.7,0.3,1.1,0.2c0.4-0.1,0.7-0.3,0.9-0.7c5.4-9.3,5.7-9.3,6-9.3c0,0,0.1,0,0.1,0
					l7.9,5.5c0.1,0.1,0.1,0.2,0.1,0.4c-4,6.7-9.3,11.4-12.9,13.7C171.2,110.2,170.1,110.5,169,110.5z M146.7,82.5
					c-0.1,0-0.2,0.1-0.3,0.3c-0.1,0.2-0.2,0.6,0.2,1.2c0.1,0.2,0.4,0.5,0.7,0.9c0.3,0.3,0.5,0.6,0.7,0.8c0.5,0.7,0.5,1.6-0.1,2.3
					c-0.6,0.8-0.7,1.7-0.3,2.7c0.7,1.9,2.4,2.4,3.4,2.5c0.6,0.1,1.1,0.3,1.5,0.8l12.3,14.1c1.8,2.1,4.9,2.6,7.2,1.1
					c3.5-2.2,8.7-6.8,12.6-13.3l-7.6-5.2c-0.5,0.5-2.1,3-5.5,9c-0.3,0.5-0.7,0.8-1.2,0.9c-0.5,0.1-1.1,0-1.5-0.2l-13.3-8.2
					c-1.1-0.7-2.1-1.6-2.8-2.7c-0.3-0.5-0.6-1-0.9-1.5c-0.7-1.2-1.3-2.2-2.3-3.1c-0.7-0.6-1.4-1.2-2-1.6
					C147.1,82.9,146.8,82.6,146.7,82.5z"/>
			</g>
			<g>
				<path class="st0" d="M222.7,101.9c0,0,0.9-16.4-11.5-21c-9.6-3.6-21.8-2-25.6-0.7c-9.4,3.3-14.1,15.7-14.1,15.7l11.1,1.6
					c0,0-3.3,35.8-1.9,43.8c0,0,8.9,1,12.7-0.5c3.8-1.5,16.2-3.6,22.1-0.8l-1.1-38.3L222.7,101.9z"/>
				<path class="st1" d="M186.9,142c-3.2,0-6.1-0.3-6.3-0.4c-0.1,0-0.2-0.1-0.2-0.2c-1.4-7.7,1.5-40.2,1.9-43.6l-10.8-1.5
					c-0.1,0-0.1-0.1-0.2-0.1c0-0.1,0-0.2,0-0.2c0-0.1,4.8-12.6,14.2-15.9c4.2-1.5,16.4-2.8,25.8,0.7c5.1,1.9,8.8,6.2,10.5,12.4
					c1.3,4.7,1.1,8.8,1.1,8.8c0,0.1-0.1,0.2-0.3,0.2c0,0,0,0,0,0l-8-0.1l1.1,38c0,0.1,0,0.2-0.1,0.2c-0.1,0.1-0.2,0.1-0.3,0
					c-5.9-2.7-18.2-0.6-21.9,0.9C191.8,141.8,189.3,142,186.9,142z M180.9,141.1c1.3,0.1,9,0.9,12.4-0.5c3.7-1.5,15.8-3.6,21.9-1
					l-1.1-37.9c0-0.1,0-0.1,0.1-0.2c0.1-0.1,0.1-0.1,0.2-0.1l8.1,0.1c0-2.1-0.1-16.3-11.3-20.4c-9.3-3.4-21.3-2.1-25.5-0.7
					c-8.4,2.9-13,13.4-13.8,15.3l10.7,1.5c0.1,0,0.2,0.1,0.2,0.3C182.8,97.9,179.5,132.9,180.9,141.1z"/>
			</g>
			<path class="st1" d="M207.3,132.4C207.3,132.4,207.2,132.4,207.3,132.4c-14.5-2.6-18.7-12.7-18.7-12.8c-0.1-0.1,0-0.3,0.1-0.3
				c0.1-0.1,0.3,0,0.3,0.1c0,0.1,4.2,10,18.3,12.5c0.1,0,0.2,0.2,0.2,0.3C207.5,132.3,207.4,132.4,207.3,132.4z"/>
			<g>
				<polygon class="st1" points="180.9,115.1 199,115.1 193.3,94.7 175.2,94.7 				"/>
				<path class="st0" d="M199,115.3h-18.1c-0.1,0-0.2-0.1-0.3-0.2L175,94.8c0-0.1,0-0.2,0-0.2c0-0.1,0.1-0.1,0.2-0.1h18.1
					c0.1,0,0.2,0.1,0.3,0.2l5.7,20.4c0,0.1,0,0.2,0,0.2C199.2,115.3,199.1,115.3,199,115.3z M181.1,114.8h17.6L193.1,95h-17.6
					L181.1,114.8z"/>
			</g>
			<g>
				<path class="st1" d="M220.5,101.9l-8-0.4c0,0-0.1,6.8-0.8,6.9c-2.6,0.4-7.9,0.5-11.4,0c-1.2-0.1-2.2-1.1-2.4-2.3
					c-0.2-0.9-0.7-2-1.9-2.8c-1.2-0.7,0,1.6-1.1,3.1c-0.6,0.8-2.5,0.5-5.1-0.2c-2.6-0.6-3.3,2.2-0.3,3.9c3.2,1.8,5.2,1.6,6.2,1.9
					c2,0.4,19.9,3.2,22.6,1.7C220.4,112.7,220.5,101.9,220.5,101.9z"/>
				<path class="st0" d="M214.8,114.6c-6.4,0-18.2-2-19.2-2.2c-0.2,0-0.5-0.1-0.8-0.1c-1.2-0.1-3-0.3-5.5-1.8
					c-1.8-1.1-2.3-2.5-1.9-3.4c0.3-0.7,1.1-1.3,2.5-0.9c2.4,0.6,4.4,0.9,4.9,0.3c0.5-0.7,0.5-1.6,0.5-2.2c0-0.5,0-0.9,0.3-1.1
					c0.2-0.1,0.5,0,0.7,0.1c1.1,0.7,1.8,1.7,2,2.9c0.2,1.1,1.1,1.9,2.2,2.1c3.4,0.4,8.7,0.4,11.3,0c0.3-0.4,0.6-3.7,0.6-6.6
					c0-0.1,0-0.1,0.1-0.2c0.1,0,0.1-0.1,0.2-0.1l8,0.4c0.1,0,0.3,0.1,0.3,0.3c0,1.1-0.2,11-2.4,12.2
					C217.8,114.4,216.5,114.6,214.8,114.6z M189.1,106.5c-0.6,0-1.1,0.2-1.2,0.7c-0.3,0.7,0.1,1.9,1.7,2.8c2.5,1.4,4.2,1.6,5.3,1.7
					c0.3,0,0.6,0.1,0.8,0.1c2.1,0.4,19.8,3.2,22.4,1.8c1.6-0.9,2.1-8.3,2.1-11.5l-7.4-0.3c0,0.5,0,1.8-0.1,3.1
					c-0.2,3.3-0.5,3.7-0.9,3.7c-2.6,0.4-8,0.5-11.5,0c-1.3-0.2-2.4-1.2-2.6-2.5c-0.2-1.1-0.8-2-1.8-2.6c-0.1-0.1-0.1-0.1-0.2-0.1
					c0,0.1,0,0.4,0,0.6c0,0.7,0,1.7-0.6,2.5c-0.7,1-2.7,0.6-5.4-0.1C189.5,106.6,189.3,106.5,189.1,106.5z"/>
			</g>
		</g>
		<g>
			<g>
				<g>
					<path class="st1" d="M193.1,80.5c0,0,2.1-1.3,2-2l0.6-3.8c0-0.3-0.2-0.7-0.5-0.8l-2.4-0.8c-0.3-0.1-0.5-0.4-0.5-0.8l0.2-3
						l-1-0.8c-0.1-0.1-0.1-0.2,0-0.3l1.5-1.8c0.5-0.7,1-2.4,1.4-2.2c0,0,8.6-1,9,3.3c0.1,0.6-0.1,1.3-0.5,1.8l-0.8,1.1
						c-0.8,1.1-1.2,2.4-1,3.7c0,0.3,0.4,2,0.6,3.2c0.1,0.7,0.5,1.3,1,1.7c0.7,0.5,1.5,1.2,1.4,1.2c0,0-1,0.7-2.5,1.3
						c-2.7,1.1-5.7,0.8-8.2-0.7L193.1,80.5z"/>
					<path class="st0" d="M198.3,82.4c-1.7,0-3.4-0.5-4.9-1.4l-0.4-0.2c-0.1,0-0.1-0.1-0.1-0.2c0-0.1,0-0.2,0.1-0.2
						c0.9-0.6,1.9-1.4,1.9-1.8c0,0,0,0,0,0l0.6-3.8c0-0.2-0.1-0.4-0.4-0.5l-2.4-0.8c-0.4-0.1-0.7-0.6-0.7-1l0.2-2.9l-0.9-0.8
						c-0.2-0.2-0.2-0.4,0-0.6l1.5-1.8c0.2-0.2,0.3-0.6,0.5-1c0.4-0.8,0.7-1.4,1.1-1.3c0.6-0.1,5.7-0.6,8.1,1.4
						c0.7,0.6,1.1,1.3,1.2,2.2c0.1,0.7-0.1,1.4-0.5,1.9l-0.8,1.1c-0.8,1.1-1.1,2.3-1,3.5c0,0.1,0.1,0.7,0.6,3.2
						c0.1,0.6,0.5,1.1,0.9,1.5c1.5,1.2,1.5,1.3,1.5,1.5c0,0.1-0.1,0.1-0.1,0.2c0,0-1,0.7-2.5,1.4C200.7,82.2,199.5,82.4,198.3,82.4z
						 M193.6,80.5L193.6,80.5c2.5,1.5,5.4,1.7,8,0.7c1.1-0.4,1.8-0.9,2.2-1.1c-0.2-0.1-0.5-0.4-1.2-0.9c-0.6-0.5-1-1.1-1.1-1.8
						c-0.4-1.9-0.6-3-0.6-3.2c-0.1-1.3,0.2-2.7,1.1-3.9l0.8-1.1c0.3-0.5,0.5-1,0.4-1.6c-0.1-0.7-0.4-1.4-1-1.8
						c-2.3-1.9-7.7-1.3-7.7-1.3c0,0,0,0-0.1,0c-0.1,0.1-0.4,0.7-0.6,1c-0.2,0.4-0.4,0.8-0.6,1.1l-1.5,1.8l0.9,0.8
						c0.1,0.1,0.1,0.1,0.1,0.2l-0.2,3c0,0.2,0.1,0.4,0.3,0.5l2.4,0.8c0.4,0.2,0.7,0.6,0.7,1c0,0,0,0,0,0l-0.6,3.8
						C195.4,79.2,194.2,80.1,193.6,80.5z"/>
				</g>
				<path class="st0" d="M194.1,57.5c2-0.1-0.5,1.9,6.7-0.2c2.9-0.8,1.4,2.6,2.2,2.3c2.8-0.8,2.7-0.8,4-0.4c0.9,0.2,1.5,1.9,1.3,3.2
					c-0.2,1.6-2.1,4.2-3.7,7c-0.9,1.4-2.4,1.6-4.2-0.6c-0.2-0.2,0.8-1.6,0.3-2.1c-1.3-1.5-1.9,0.8-3,0.1c-1-0.7-1.5-1.1-2.6-2.1
					c-1.3-1.2-3.6,0.7-4.4-2.1C190.3,61.2,191.4,57.7,194.1,57.5z"/>
			</g>
		</g>
	</g>
	<g>
		<g>
			<g>
				<g>
					<g>
						<path class="st1" d="M129.9,207.9c0,0,0.6,0,1.2-0.4c1.8-1.3,5.5-4.1,8-3.7c4.2,0.6,4.7,4,4.7,4s3.6-0.1,3.5,2.2
							c-0.1,1.8-1.1,4.1-4,5.4c-3.9,1.7-7.9,3.1-12.2,0.2c-0.8-0.6-1.8-0.8-2.9-0.7c-2.4,0.2-38.9,1-38.9,1c-8.3,0-16-4.6-19.9-12
							l-7.7-14.7l8.8-24.6l13.8,32.1C91.1,205.9,129.2,208,129.9,207.9z"/>
						<path class="st0" d="M136.4,217.6c-1.8,0-3.6-0.5-5.5-1.7c-0.8-0.5-1.8-0.8-2.7-0.7c-2.4,0.2-37.4,1-38.9,1
							c-8.5,0-16.2-4.7-20.1-12.2l-7.7-14.7c0-0.1,0-0.1,0-0.2l8.8-24.6c0-0.1,0.1-0.2,0.2-0.2c0.1,0,0.2,0.1,0.2,0.2l13.8,32
							c6.5,8.8,43.7,11.2,45.2,11c0,0,0,0,0,0c0,0,0.5,0,1-0.4l0.4-0.3c2-1.4,5.3-3.8,7.8-3.5c3.7,0.5,4.7,3.2,4.9,4
							c0.6,0,2.1,0.1,3,1c0.4,0.4,0.6,0.9,0.6,1.5c0,0.9-0.4,4-4.1,5.6C141.2,216.7,138.9,217.6,136.4,217.6z M128.7,214.6
							c0.9,0,1.8,0.3,2.6,0.8c4.3,2.8,8.1,1.5,12-0.2c3.4-1.5,3.8-4.4,3.8-5.2c0-0.5-0.1-0.8-0.4-1.2c-0.9-0.9-2.8-0.8-2.8-0.8
							c0,0,0,0,0,0c-0.1,0-0.2-0.1-0.3-0.2c0-0.1-0.5-3.3-4.5-3.8c-2.2-0.3-5.6,2.1-7.4,3.4l-0.4,0.3c-0.6,0.5-1.3,0.4-1.3,0.5
							c-0.9,0.1-10.4-0.5-20.5-2.1c-9.5-1.5-21.6-4.3-25.2-9.1c0,0,0,0,0-0.1l-13.5-31.5l-8.5,23.9l7.6,14.6
							c3.8,7.3,11.4,11.9,19.6,11.9c0.4,0,36.5-0.8,38.9-1C128.4,214.7,128.5,214.6,128.7,214.6z"/>
					</g>
					<g>
						<g>
							<path class="st1" d="M120.3,201.3l3.5-6.2l2.9,1.9c0.2,0.1,0.3,0.2,0.4,0.4l0.2,0.3c0.2,0.4,0.6,0.6,1,0.6
								c0.2,0,0.5,0.1,0.7,0.2l21.5,13.9c0.2,0.1,0.3,0.3,0.5,0.4l4.3,4.8l-6.1-1.4c-0.3-0.1-0.6-0.2-1-0.3l-22.6-11.8
								c-0.2-0.1-0.4-0.3-0.5-0.4l0,0c-0.2-0.4-0.6-0.6-1-0.6l-0.2,0c-0.2,0-0.4,0-0.6-0.1L120.3,201.3z"/>
							<path class="st0" d="M155.4,217.9C155.3,217.9,155.3,217.9,155.4,217.9l-6.1-1.4c-0.4-0.1-0.7-0.2-1-0.4l-22.6-11.8
								c-0.2-0.1-0.4-0.3-0.6-0.5l0,0c-0.2-0.3-0.5-0.4-0.8-0.4c0,0,0,0,0,0l-0.2,0c0,0,0,0,0,0c-0.2,0-0.5-0.1-0.7-0.2l-3.1-1.6
								c-0.1,0-0.1-0.1-0.1-0.2c0-0.1,0-0.1,0-0.2l3.5-6.2c0-0.1,0.1-0.1,0.2-0.1c0.1,0,0.1,0,0.2,0l2.9,1.9
								c0.2,0.1,0.4,0.3,0.5,0.5l0.2,0.3c0.2,0.3,0.5,0.5,0.8,0.5c0,0,0,0,0,0c0.3,0,0.6,0.1,0.8,0.2l21.5,13.9
								c0.2,0.1,0.4,0.3,0.5,0.5l4.3,4.8c0.1,0.1,0.1,0.2,0,0.3C155.5,217.9,155.4,217.9,155.4,217.9z M124.2,202.8
								c0.5,0,1,0.3,1.2,0.7l0,0c0.1,0.1,0.2,0.3,0.4,0.3l22.6,11.8c0.3,0.1,0.6,0.3,0.9,0.3l5.2,1.2l-3.8-4.2
								c-0.1-0.1-0.3-0.3-0.4-0.4l-21.5-13.9c-0.2-0.1-0.3-0.2-0.5-0.1c0,0,0,0,0,0c-0.5,0-1-0.3-1.3-0.7l-0.2-0.3
								c-0.1-0.1-0.2-0.2-0.3-0.3l-2.7-1.7l-3.3,5.7l2.9,1.5c0.1,0.1,0.3,0.1,0.4,0.1L124.2,202.8
								C124.2,202.8,124.2,202.8,124.2,202.8z"/>
						</g>
						<path class="st0" d="M149.4,215.4c0,0-0.1,0-0.1,0c-0.1-0.1-0.2-0.2-0.1-0.4l1.3-2.5c0.1-0.1,0.2-0.2,0.4-0.1
							c0.1,0.1,0.2,0.2,0.1,0.4l-1.3,2.5C149.6,215.3,149.5,215.4,149.4,215.4z"/>
						<g>
							<path class="st0" d="M118.8,192l5.1,3.1l-3.6,6.2l-5.1-3.1c-0.9-0.6-1.3-1.8-0.7-2.7l1.7-2.8
								C116.7,191.8,117.9,191.5,118.8,192z"/>
							<path class="st0" d="M120.3,201.6c0,0-0.1,0-0.1,0l-5.1-3.1c-1.1-0.6-1.4-2-0.8-3.1l1.7-2.8c0.3-0.5,0.8-0.9,1.3-1
								c0.6-0.1,1.2-0.1,1.7,0.3l5.1,3.1c0.1,0.1,0.2,0.2,0.1,0.4l-3.6,6.2C120.5,201.5,120.5,201.5,120.3,201.6
								C120.4,201.6,120.4,201.6,120.3,201.6z M117.8,192c-0.1,0-0.3,0-0.4,0.1c-0.4,0.1-0.8,0.4-1,0.8l-1.7,2.8
								c-0.5,0.8-0.2,1.8,0.6,2.3l4.9,3l3.4-5.7l-4.9-3C118.4,192.1,118.1,192,117.8,192z"/>
						</g>
						<path class="st0" d="M125.4,202.4c0,0-0.1,0-0.1,0c-0.1-0.1-0.2-0.2-0.1-0.4l1.7-2.9c0.1-0.1,0.2-0.2,0.4-0.1
							c0.1,0.1,0.2,0.2,0.1,0.4l-1.7,2.9C125.6,202.4,125.5,202.4,125.4,202.4z"/>
						<path class="st0" d="M135.7,204.9c0,0-0.1,0-0.1,0l-6.4-4c-0.1-0.1-0.2-0.2-0.1-0.4c0.1-0.1,0.2-0.2,0.4-0.1l6.4,4
							c0.1,0.1,0.2,0.2,0.1,0.4C135.9,204.8,135.8,204.9,135.7,204.9z"/>
						<path class="st0" d="M149.1,213.2c0,0-0.1,0-0.1,0l-2.5-1.6c-0.1-0.1-0.2-0.2-0.1-0.4c0.1-0.1,0.2-0.2,0.4-0.1l2.5,1.6
							c0.1,0.1,0.2,0.2,0.1,0.4C149.2,213.1,149.2,213.2,149.1,213.2z"/>
						<path class="st1" d="M119.8,199.1c0,0-0.1,0-0.1,0l-3.9-2.4c-0.1-0.1-0.2-0.2-0.1-0.4c0.1-0.1,0.2-0.2,0.4-0.1l3.9,2.4
							c0.1,0.1,0.2,0.2,0.1,0.4C119.9,199,119.9,199.1,119.8,199.1z"/>
					</g>
					<path class="st1" d="M129.9,207.9c0,0,5.3-0.7,8.6-0.2c2.6,0.4,10.3-1.5,8.7,3.5c-0.3,1.1-0.5,1.8-1.5,2.8
						c-0.5,0.6-2,1.7-2.8,2.1c-3.9,1.7-7.5,2.5-11.9-0.4c-0.8-0.6-1.8-0.8-2.8-0.7C127.7,215,129.7,207.9,129.9,207.9z"/>
					<path class="st0" d="M137,217.8c-1.9,0-3.9-0.6-6-2c-0.8-0.5-1.7-0.8-2.7-0.7c-0.6,0.1-2.7,0.1-2.8,0.1c-0.1,0-0.3-0.1-0.3-0.3
						c0-0.1,0.1-0.3,0.3-0.3c0,0,2.1-0.1,2.7-0.1c1-0.1,2.1,0.2,3,0.7c4.2,2.7,7.5,2.2,11.6,0.4c0.8-0.3,2.2-1.4,2.7-2
						c0.8-0.9,1.1-1.5,1.4-2.5l0.1-0.2c0.3-0.9,0.3-1.6-0.1-2.1c-0.8-1-3.1-1-5.2-0.9c-1.3,0-2.5,0.1-3.3-0.2
						c-4-1.2-8.4,0.2-8.4,0.2c-0.2,0.1-0.8,0-2.1-0.1c-0.1,0-0.3-0.1-0.2-0.3c0-0.1,0.1-0.3,0.3-0.2c1.2,0.1,1.8,0.1,2,0.1
						c0.2-0.1,4.6-1.5,8.7-0.2c0.7,0.2,1.9,0.2,3.1,0.1c2.2-0.1,4.7-0.1,5.6,1.1c0.5,0.6,0.5,1.5,0.2,2.6l-0.1,0.2
						c-0.3,1-0.5,1.7-1.5,2.7c-0.5,0.6-2,1.7-2.8,2.1C140.9,217.2,139,217.8,137,217.8z"/>
				</g>
				<g>
					<path class="st1" d="M49.1,147.5c0,0,16.2,2.1,21.5,8.7c6.8,8.3,9.7,20.6,10.7,25.9c0.3,1.6,0.2,3.2-0.1,4.7l-0.4,1.8
						c-1.4,6.3-7.1,10.6-13.5,10.3l0.3,0c-1-0.1-2.6-0.4-3-1.3l-1.7-3.1l-0.2,1.1c-1.3,8.2,5.4,19.6,5.4,19.6l-19.1-2.6
						c-9.8-1-19.2-4.9-26.7-11.3c-4.1-3.5-7.2-6.8-8.6-10.7c-2.3-6.7-2.1-8.6-2.7-16.8c-0.4-5.6,1.2-11.1,4.7-15.5
						C20.8,151.8,30.7,145.1,49.1,147.5z"/>
					<path class="st0" d="M68.2,215.4C68.2,215.4,68.2,215.4,68.2,215.4L49,212.8c-10.1-1-19.3-4.9-26.8-11.3
						c-3.6-3.1-7.2-6.6-8.7-10.8c-2-5.7-2.1-7.9-2.5-13.4c-0.1-1-0.2-2.2-0.3-3.5c-0.5-5.7,1.2-11.3,4.7-15.7
						c5-6.3,14.9-13.2,33.6-10.9c0,0,0,0,0,0c0.7,0.1,16.3,2.2,21.7,8.8c7.2,8.8,10,22.2,10.7,26.1c0.3,1.6,0.3,3.2-0.1,4.8
						l-0.4,1.8c-1.4,6.4-7.2,10.8-13.8,10.5c0,0-0.1,0-0.1,0c-1.1-0.1-2.4-0.6-2.8-1.5l-1.3-2.4l0,0.3c-1.2,8.1,5.3,19.3,5.4,19.4
						c0.1,0.1,0,0.2,0,0.3C68.4,215.3,68.3,215.4,68.2,215.4z M42,147.3c-13.9,0-21.8,5.8-26,11.1c-3.4,4.3-5.1,9.7-4.6,15.3
						c0.1,1.3,0.2,2.4,0.3,3.5c0.4,5.4,0.5,7.6,2.5,13.3c1.4,4.1,4.9,7.5,8.5,10.6c7.4,6.3,16.6,10.2,26.5,11.2l18.6,2.5
						c-1.3-2.2-6.3-11.9-5.2-19.3l0.2-1.1c0-0.1,0.1-0.2,0.2-0.2c0.1,0,0.2,0,0.3,0.1l1.7,3.1c0.4,0.8,1.7,1.1,2.8,1.2
						c0,0,0,0,0.1,0c6.1,0.1,11.5-4.1,12.9-10.1l0.4-1.8c0.3-1.5,0.4-3.1,0.1-4.6c-0.7-3.9-3.5-17.1-10.6-25.8
						c-5.2-6.4-21.2-8.6-21.4-8.6C46.5,147.4,44.2,147.3,42,147.3z"/>
				</g>
				<path class="st0" d="M64.1,197.6c-0.1,0-0.2-0.1-0.2-0.1l-4.5-9.5c-0.1-0.1,0-0.3,0.1-0.4c0.1-0.1,0.3,0,0.4,0.1l4.5,9.5
					c0.1,0.1,0,0.3-0.1,0.4C64.1,197.6,64.1,197.6,64.1,197.6z"/>
			</g>
			<g>
				<path class="st0" d="M51.7,115.1l1.2-0.8c1-0.6,1.4-1.8,1-2.9c-1.2-3.2-5.5-8.8-21.4-4.6c-16.1,4.4-13.3,30.2,0.5,35.8
					c13.7,5.5,18.4-22.9,18.4-22.9L51.7,115.1z"/>
				<g>
					<path class="st1" d="M49.7,115.7c0.2-1,1.5-1.2,2-0.3c1.2,2.1,1.8,3.6,2,4.5c0.3,1.2-0.9,2.4-0.3,3.7c0.6,1.3,1.6,2.8,1.6,5.1
						c0.1,2.3,2.4,12.7-5.7,12.4c-0.3,0-0.6,0.2-0.6,0.6c0,1.6,0.1,6,0.5,8.3c0.2,1.3-0.6,2.5-1.9,2.9c-3.3,0.9-9.3,2.2-13.8,0.7
						c-1.2-0.4-1.8-1.7-1.4-2.8c0.5-1.5,1.3-5.7,0.8-8.2c0,0,2.7-0.3,5.7-1.7c4.6-2.1,6.9-7.3,5.6-12.3c-0.3-1.1-0.9-2.6-0.3-4.2
						c1.6-4.1,4,0,4,0L49.7,115.7z"/>
					<path class="st0" d="M38.3,154.5c-1.7,0-3.4-0.2-4.9-0.7c-0.6-0.2-1.1-0.6-1.4-1.2c-0.3-0.6-0.3-1.3-0.1-1.9
						c0.5-1.4,1.3-5.6,0.8-8c0-0.1,0-0.1,0-0.2c0-0.1,0.1-0.1,0.2-0.1c0,0,2.7-0.3,5.6-1.6c4.5-2,6.8-7.1,5.5-12
						c0-0.1-0.1-0.3-0.1-0.4c-0.3-1-0.7-2.4-0.1-3.9c0.5-1.3,1.1-1.9,1.9-2c0.9-0.1,1.8,0.8,2.2,1.4l1.5-8.2c0.1-0.6,0.5-1,1.1-1.1
						c0.6-0.1,1.1,0.2,1.4,0.7c1.4,2.4,1.8,3.8,2,4.6c0.1,0.6,0,1.2-0.2,1.7c-0.2,0.7-0.4,1.3-0.1,1.9c0.1,0.2,0.2,0.4,0.3,0.7
						c0.6,1.1,1.3,2.5,1.3,4.5c0,0.3,0.1,0.7,0.1,1.2c0.3,2.6,0.8,7.4-1.5,9.9c-1.1,1.1-2.6,1.7-4.6,1.6c-0.1,0-0.2,0-0.2,0.1
						c-0.1,0.1-0.1,0.1-0.1,0.2c0,1.7,0.1,6,0.5,8.3c0.2,1.4-0.7,2.8-2.1,3.2C45.2,153.7,41.7,154.5,38.3,154.5z M33.2,142.8
						c0.4,2.6-0.3,6.5-0.9,8c-0.2,0.5-0.2,1,0.1,1.5c0.2,0.5,0.6,0.8,1.1,1c4.5,1.5,10.5,0.2,13.7-0.7c1.1-0.3,1.9-1.4,1.7-2.6
						c-0.4-2.4-0.4-6.6-0.5-8.4c0-0.2,0.1-0.4,0.2-0.6s0.4-0.2,0.6-0.2c1.8,0.1,3.2-0.4,4.2-1.4c2.2-2.3,1.7-7,1.4-9.5
						c-0.1-0.5-0.1-0.9-0.1-1.2c-0.1-1.9-0.7-3.2-1.3-4.3c-0.1-0.2-0.2-0.5-0.3-0.7c-0.4-0.8-0.2-1.6,0-2.3c0.2-0.5,0.3-1,0.2-1.5
						c-0.1-0.6-0.6-2-1.9-4.4c-0.2-0.4-0.6-0.4-0.8-0.4c-0.3,0-0.6,0.2-0.7,0.7l-1.6,8.8c0,0.1-0.1,0.2-0.2,0.2
						c-0.1,0-0.2,0-0.3-0.1c-0.3-0.5-1.2-1.8-2.1-1.7c-0.5,0-1,0.6-1.4,1.7c-0.5,1.3-0.2,2.6,0.1,3.6c0,0.2,0.1,0.3,0.1,0.5
						c1.3,5.1-1.1,10.4-5.8,12.6C36.2,142.3,34,142.7,33.2,142.8z"/>
				</g>
				<path class="st0" d="M25.9,112c0,0-7.9-3.8-13.7,1.6C6.4,119.1,0.9,131,9.5,144c5.4,8.2,7.5,14.6,8.3,18.3
					c0.3,1.2,1.9,1.5,2.6,0.5c3.5-5.2,9.8-16.8,6.8-27.6C23,120.5,25.9,112,25.9,112z"/>
				<path class="st0" d="M55.1,127.6c-0.1,0-0.2,0-0.2-0.1c-0.1-0.1,0-0.3,0.1-0.4c2.6-1.6,0.9-6,0.4-7.1l-7.4,3.8
					c-0.1,0.1-0.3,0-0.4-0.1c-0.1-0.1,0-0.3,0.1-0.4l7.6-3.9c0.1,0,0.1,0,0.2,0c0.1,0,0.1,0.1,0.2,0.1c0.1,0.2,2.8,6-0.5,8
					C55.1,127.6,55.1,127.6,55.1,127.6z"/>
				<path class="st0" d="M55.3,130.6c-0.1,0-0.1,0-0.2-0.1c-0.1-0.1-0.1-0.3,0-0.4l1-1c0.3-0.3,0.4-0.8,0.1-1.2l-0.7-1
					c-0.1-0.1-0.1-0.3,0.1-0.4c0.1-0.1,0.3-0.1,0.4,0.1l0.7,1c0.4,0.6,0.3,1.3-0.2,1.8l-1,1C55.4,130.6,55.3,130.6,55.3,130.6z"/>
				<path class="st0" d="M46.9,131.6c-0.2,0-0.3,0-0.5-0.1c-0.9-0.2-1.7-1-2.3-2.3c-0.1-0.1,0-0.3,0.1-0.4c0.1-0.1,0.3,0,0.4,0.1
					c0.6,1.1,1.2,1.8,1.9,2c0.8,0.2,1.4-0.3,1.4-0.3c0.1-0.1,0.3-0.1,0.4,0.1c0.1,0.1,0.1,0.3-0.1,0.4
					C48.2,131.2,47.7,131.6,46.9,131.6z"/>
				<g>
					<path class="st1" d="M23.9,111.3c0,0,7.4,2.2,4.4,9.3c0,0,3.4-2.5,3.3-6.3s-2.9-5.1-4.8-5S23.9,111.3,23.9,111.3z"/>
					<path class="st0" d="M28.3,120.9c-0.1,0-0.1,0-0.2-0.1c-0.1-0.1-0.1-0.2-0.1-0.3c0.9-2,0.9-3.8,0.2-5.3
						c-1.2-2.6-4.4-3.6-4.4-3.6c-0.1,0-0.1-0.1-0.2-0.1c0-0.1,0-0.2,0-0.2c0-0.1,1-2.2,3.1-2.2c1.2,0,2.4,0.4,3.3,1.1
						c0.8,0.7,1.8,1.9,1.8,4.2c0.1,3.9-3.3,6.4-3.4,6.5C28.4,120.9,28.4,120.9,28.3,120.9z M24.3,111.2c0.9,0.3,3.3,1.4,4.4,3.8
						c0.7,1.4,0.7,3,0.2,4.8c1-1,2.5-2.9,2.5-5.4c0-1.6-0.6-2.9-1.6-3.8c-0.8-0.7-1.9-1-2.9-1C25.5,109.5,24.6,110.6,24.3,111.2z"/>
				</g>
			</g>
		</g>
		<g>
			<path class="st0" d="M9.9,171.8c6.1,3.7,18.5,8.9,38.4,7.7c1.5-0.1,2.8,0.8,3.3,2.2l1.2,5c2.2,8.7,6.3,16.9,12,23.9l3,3.6
				c0.5,0.6,0,1.4-0.7,1.3l-13.1-1c-22.6-3-40.1-14.3-45.7-34.9l-1.5-5.5C6.3,172.3,8.3,170.8,9.9,171.8z"/>
		</g>
	</g>
	<g>
		<g>
			<path class="st1" d="M133.8,31.6h43.3c2.5,0,4.3,2,4.3,4.4v12.5c0,2.4-1.9,4.4-4.3,4.4c0,0-0.7,0-1.6,0v8.4l-5.7-8.4
				c-8.3,0-36,0-36,0c-2.5,0-4.5-2-4.5-4.4V36C129.3,33.6,131.4,31.6,133.8,31.6z"/>
			<path class="st0" d="M175.6,61.6c-0.1,0-0.2,0-0.2-0.1l-5.6-8.2h-35.9c-2.6,0-4.8-2.1-4.8-4.7V36c0-2.6,2.2-4.7,4.8-4.7h43.3
				c2.6,0,4.6,2.1,4.6,4.7v12.5c0,2.6-2,4.7-4.6,4.7h-1.3v8.1C175.8,61.5,175.7,61.6,175.6,61.6C175.6,61.6,175.6,61.6,175.6,61.6z
				 M133.8,31.9c-2.3,0-4.3,1.9-4.3,4.2v12.5c0,2.3,2,4.2,4.3,4.2h36c0.1,0,0.2,0,0.2,0.1l5.2,7.7V53c0-0.1,0.1-0.3,0.3-0.3h1.6
				c2.3,0,4.1-1.8,4.1-4.2V36c0-2.3-1.8-4.2-4.1-4.2H133.8z"/>
		</g>
		<g>
			<path class="st0" d="M150.1,45.4c0,0-0.1,0-0.1,0l-6-2.7c-0.1,0-0.2-0.1-0.2-0.2c0-0.1,0.1-0.2,0.2-0.2l6-2.7
				c0.1-0.1,0.3,0,0.3,0.1c0.1,0.1,0,0.3-0.1,0.3l-5.4,2.5l5.4,2.5c0.1,0.1,0.2,0.2,0.1,0.3C150.3,45.3,150.2,45.4,150.1,45.4z"/>
			<path class="st0" d="M158.6,45.4c-0.1,0-0.2-0.1-0.2-0.2c-0.1-0.1,0-0.3,0.1-0.3l5.4-2.5l-5.4-2.5c-0.1-0.1-0.2-0.2-0.1-0.3
				c0.1-0.1,0.2-0.2,0.3-0.1l6,2.7c0.1,0,0.2,0.1,0.2,0.2c0,0.1-0.1,0.2-0.2,0.2l-6,2.7C158.7,45.4,158.7,45.4,158.6,45.4z"/>
			<path class="st0" d="M151.9,48.6C151.9,48.6,151.8,48.6,151.9,48.6c-0.2-0.1-0.3-0.2-0.2-0.4l4.6-12.1c0.1-0.1,0.2-0.2,0.3-0.2
				c0.1,0.1,0.2,0.2,0.2,0.3l-4.6,12.1C152.1,48.5,152,48.6,151.9,48.6z"/>
		</g>
	</g>
	<g>
		<g>
			<path class="st0" d="M143.4,195c-0.1,0-0.2-0.1-0.2-0.2c-0.1-0.1,0-0.3,0.1-0.3c13.6-6,25.9-15.8,35.6-28.2
				c0.1-0.1,0.3-0.1,0.4,0c0.1,0.1,0.1,0.3,0,0.4c-9.8,12.5-22.1,22.3-35.8,28.3C143.4,195,143.4,195,143.4,195z"/>
			<path class="st0" d="M142.1,201.9c-0.1,0-0.2-0.1-0.2-0.2c-0.1-0.1,0-0.3,0.2-0.3c13.1-5.1,24.8-13.1,34.8-23.9
				c0.1-0.1,0.3-0.1,0.4,0c0.1,0.1,0.1,0.3,0,0.4C167.1,188.7,155.3,196.8,142.1,201.9C142.1,201.9,142.1,201.9,142.1,201.9z"/>
		</g>
		<g>
			<path class="st0" d="M84.5,11c-0.1,0-0.2-0.1-0.3-0.2c0-0.1,0.1-0.3,0.2-0.3c13.6-3.1,27.1-3.3,40-0.6c0.1,0,0.2,0.2,0.2,0.3
				c0,0.1-0.2,0.2-0.3,0.2C111.5,7.7,98.1,7.9,84.5,11C84.6,11,84.6,11,84.5,11z"/>
			<path class="st0" d="M129.5,5.5C129.5,5.5,129.5,5.5,129.5,5.5c-11.2-2.9-22.8-3.6-34.6-2.2c-0.1,0-0.3-0.1-0.3-0.2
				c0-0.1,0.1-0.3,0.2-0.3c11.9-1.5,23.6-0.7,34.7,2.2c0.1,0,0.2,0.2,0.2,0.3C129.8,5.4,129.7,5.5,129.5,5.5z"/>
		</g>
		<circle class="st0" cx="137" cy="195.5" r="1.8"/>
		<g>
			<path class="st0" d="M14.6,92.8c-0.1,0-0.1,0-0.2-0.1c-0.1-0.1-0.1-0.3,0-0.4l1-1c0.1-0.1,0.3-0.1,0.4,0c0.1,0.1,0.1,0.3,0,0.4
				l-1,1C14.7,92.8,14.7,92.8,14.6,92.8z"/>
			<path class="st0" d="M11.2,96.3c-0.1,0-0.1,0-0.2-0.1c-0.1-0.1-0.1-0.3,0-0.4l1-1c0.1-0.1,0.3-0.1,0.4,0c0.1,0.1,0.1,0.3,0,0.4
				l-1,1C11.3,96.3,11.3,96.3,11.2,96.3z"/>
			<path class="st0" d="M12.1,92.8c-0.1,0-0.1,0-0.2-0.1l-1-1c-0.1-0.1-0.1-0.3,0-0.4c0.1-0.1,0.3-0.1,0.4,0l1,1
				c0.1,0.1,0.1,0.3,0,0.4C12.3,92.8,12.2,92.8,12.1,92.8z"/>
			<path class="st0" d="M15.6,96.2c-0.1,0-0.1,0-0.2-0.1l-1-1c-0.1-0.1-0.1-0.3,0-0.4c0.1-0.1,0.3-0.1,0.4,0l1,1
				c0.1,0.1,0.1,0.3,0,0.4C15.7,96.2,15.7,96.2,15.6,96.2z"/>
		</g>
		<path class="st0" d="M134.9,10.4c-0.3,0-0.6-0.1-0.9-0.2c-0.7-0.3-1.2-0.8-1.5-1.4c-0.6-1.3,0-2.9,1.3-3.5c0.6-0.3,1.3-0.3,2-0.1
			c0.7,0.3,1.2,0.8,1.5,1.4c0.6,1.3,0,2.9-1.3,3.5C135.6,10.3,135.2,10.4,134.9,10.4z M134.9,5.6c-0.3,0-0.6,0.1-0.8,0.2
			c-1.1,0.5-1.5,1.7-1.1,2.8c0.2,0.5,0.6,0.9,1.2,1.1c0.5,0.2,1.1,0.2,1.6,0c1.1-0.5,1.5-1.7,1.1-2.8c-0.2-0.5-0.6-0.9-1.2-1.1
			C135.4,5.6,135.1,5.6,134.9,5.6z M133.9,5.5L133.9,5.5L133.9,5.5z"/>
	</g>
</g>
</svg>
