<?xml version="1.0" encoding="utf-8"?>
<!-- Generator: Adobe Illustrator 24.3.0, SVG Export Plug-In . SVG Version: 6.00 Build 0)  -->
<svg version="1.1" id="Layer_1" xmlns="http://www.w3.org/2000/svg" xmlns:xlink="http://www.w3.org/1999/xlink" x="0px" y="0px"
	 viewBox="0 0 228 220" style="enable-background:new 0 0 228 220;" xml:space="preserve">
<style type="text/css">
	.st0{fill:#FFFFFF;}
	.st1{fill:#040D43;}
	.st2{fill:#C4C8E0;}
	.st3{fill:#31313D;}
	.st4{fill:#EAEEF1;}
	.st5{fill:#31313B;}
	.st6{clip-path:url(#SVGID_4_);}
	.st7{fill:#6E6E80;}
	.st8{fill:#080435;}
	.st9{fill:#9BBFCF;}
</style>
<g>
	<g>
		<g>
			<path class="st0" d="M156.9,187.8H64.4c-3.7,0-6.7-3-6.7-6.7V42.7c0-3.7,3-6.7,6.7-6.7h92.5c3.7,0,6.7,3,6.7,6.7v138.4
				C163.7,184.8,160.6,187.8,156.9,187.8z"/>
		</g>
		<g>
			<path class="st1" d="M57.7,185.5V40.9c0-2.7,2.3-5,5.1-5h96.3c2.8,0,5.1,2.2,5.1,5v144.6c0,2.7-2.3,5-5.1,5H62.8
				C60,190.5,57.7,188.3,57.7,185.5z M161.4,40.9c0-1.3-1-2.3-2.3-2.3H62.8c-1.3,0-2.3,1-2.3,2.3v144.6c0,1.3,1,2.3,2.3,2.3h96.3
				c1.3,0,2.3-1,2.3-2.3V40.9z"/>
		</g>
	</g>
	<g>
		<g>
			<g>
				<path class="st2" d="M49,46.9l-2.6,0.1c-0.5,0-1-0.3-1.2-0.8c-0.4-1.4-0.9-2.7-1.5-3.9c-0.2-0.5-0.1-1.1,0.3-1.4l2.1-1.6
					c0.5-0.4,0.6-1.1,0.2-1.6l-2.3-3.1c-0.4-0.5-1.1-0.6-1.6-0.2l-2.2,1.7c-0.4,0.3-1,0.3-1.4-0.1c-0.4-0.3-0.7-0.6-1.1-0.9
					c-0.4-0.3-0.6-0.9-0.3-1.4l1.2-2.5c0.3-0.6,0-1.2-0.5-1.5L34.6,28c-0.6-0.3-1.2,0-1.5,0.5L31.9,31c-0.2,0.5-0.8,0.7-1.3,0.6
					c-0.8-0.2-1.6-0.4-2.5-0.5c-0.5-0.1-0.9-0.5-1-1.1L27,27.2c0-0.6-0.6-1.1-1.2-1.1l-3.9,0.2c-0.6,0-1.1,0.6-1.1,1.2l0.2,2.9
					c0,0.5-0.3,1-0.9,1.2c-1,0.3-2,0.6-3,1c-0.5,0.2-1.1,0-1.4-0.4l-1.6-2.3c-0.4-0.5-1.1-0.7-1.6-0.3l-3.2,2.2
					c-0.5,0.4-0.7,1.1-0.3,1.6l1.6,2.3c0.3,0.4,0.3,1.1-0.1,1.4c-0.6,0.6-1.2,1.3-1.7,2c-0.3,0.4-0.9,0.6-1.4,0.3l-2.5-1.2
					c-0.6-0.3-1.2,0-1.5,0.5l-1.7,3.5c-0.3,0.6,0,1.2,0.5,1.5l2.4,1.2c0.5,0.2,0.7,0.8,0.6,1.3c-0.2,0.8-0.4,1.5-0.5,2.3
					c-0.1,0.5-0.5,0.9-1.1,1l-2.6,0.1c-0.6,0-1.1,0.6-1.1,1.2l0.2,3.9c0,0.6,0.6,1.1,1.2,1.1l2.5-0.1c0.5,0,1,0.3,1.2,0.9
					c0.3,1.4,0.8,2.7,1.4,3.9c0.2,0.5,0.1,1.1-0.4,1.4l-1.9,1.4c-0.5,0.4-0.6,1.1-0.2,1.6l2.3,3.1c0.4,0.5,1.1,0.6,1.6,0.2l1.8-1.4
					c0.4-0.3,1-0.3,1.5,0.1c0.4,0.4,0.9,0.8,1.3,1.1c0.4,0.3,0.6,0.9,0.3,1.4l-1,2.1c-0.3,0.6,0,1.2,0.5,1.5l3.5,1.7
					c0.6,0.3,1.2,0,1.5-0.5l1-2c0.2-0.5,0.8-0.7,1.3-0.6c0.9,0.2,1.8,0.4,2.7,0.6c0.5,0.1,1,0.5,1,1.1l0.1,2.2
					c0,0.6,0.6,1.1,1.2,1.1l3.9-0.2c0.6,0,1.1-0.6,1.1-1.2l-0.1-2.2c0-0.5,0.3-1,0.8-1.2c1.1-0.3,2.1-0.6,3.1-1.1
					c0.5-0.2,1.1,0,1.4,0.4l1.3,1.9c0.4,0.5,1.1,0.7,1.6,0.3l3.2-2.2c0.5-0.4,0.7-1.1,0.3-1.6l-1.3-1.9c-0.3-0.4-0.3-1.1,0.1-1.4
					c0.6-0.7,1.2-1.4,1.8-2.1c0.3-0.4,0.9-0.6,1.4-0.3l2.1,1c0.6,0.3,1.2,0,1.5-0.5l1.7-3.5c0.3-0.6,0-1.3-0.5-1.5l-2.1-1
					c-0.5-0.2-0.7-0.8-0.6-1.3c0.2-0.8,0.4-1.7,0.5-2.5c0.1-0.5,0.5-1,1.1-1l2.5-0.1c0.6,0,1.1-0.6,1.1-1.2L50.2,48
					C50.1,47.4,49.6,46.9,49,46.9z M39.1,50.5c0.4,7.7-5.4,14.2-13.1,14.6c-7.7,0.4-14.2-5.4-14.6-13.1c-0.4-7.7,5.4-14.2,13.1-14.6
					C32.1,37,38.6,42.9,39.1,50.5z"/>
			</g>
		</g>
		<g>
			<g>
				<path class="st0" d="M50.4,45.7l-2.6,0.1c-0.5,0-1-0.3-1.2-0.8c-0.4-1.4-0.9-2.7-1.5-3.9c-0.2-0.5-0.1-1.1,0.3-1.4l2.1-1.6
					c0.5-0.4,0.6-1.1,0.2-1.6l-2.3-3.1c-0.4-0.5-1.1-0.6-1.6-0.2l-2.2,1.7c-0.4,0.3-1,0.3-1.4-0.1c-0.4-0.3-0.7-0.6-1.1-0.9
					c-0.4-0.3-0.6-0.9-0.3-1.4l1.2-2.5c0.3-0.6,0-1.2-0.5-1.5L36,26.7c-0.6-0.3-1.2,0-1.5,0.5l-1.2,2.5c-0.2,0.5-0.8,0.7-1.3,0.6
					c-0.8-0.2-1.6-0.4-2.5-0.5c-0.5-0.1-0.9-0.5-1-1.1l-0.2-2.9c0-0.6-0.6-1.1-1.2-1.1L23.3,25c-0.6,0-1.1,0.6-1.1,1.2l0.2,2.9
					c0,0.5-0.3,1-0.9,1.2c-1,0.3-2,0.6-3,1c-0.5,0.2-1.1,0-1.4-0.4l-1.6-2.3c-0.4-0.5-1.1-0.7-1.6-0.3l-3.2,2.2
					c-0.5,0.4-0.7,1.1-0.3,1.6l1.6,2.3c0.3,0.4,0.3,1.1-0.1,1.4c-0.6,0.6-1.2,1.3-1.7,2c-0.3,0.4-0.9,0.6-1.4,0.3l-2.5-1.2
					c-0.6-0.3-1.2,0-1.5,0.5l-1.7,3.5c-0.3,0.6,0,1.2,0.5,1.5L6,43.6c0.5,0.2,0.7,0.8,0.6,1.3c-0.2,0.8-0.4,1.5-0.5,2.3
					c-0.1,0.5-0.5,0.9-1.1,1l-2.6,0.1c-0.6,0-1.1,0.6-1.1,1.2l0.2,3.9c0,0.6,0.6,1.1,1.2,1.1l2.5-0.1c0.5,0,1,0.3,1.2,0.9
					c0.3,1.4,0.8,2.7,1.4,3.9c0.2,0.5,0.1,1.1-0.4,1.4l-1.9,1.4C5.1,62.3,5,63,5.4,63.5l2.3,3.1c0.4,0.5,1.1,0.6,1.6,0.2l1.8-1.4
					c0.4-0.3,1-0.3,1.5,0.1c0.4,0.4,0.9,0.8,1.3,1.1c0.4,0.3,0.6,0.9,0.3,1.4l-1,2.1c-0.3,0.6,0,1.2,0.5,1.5l3.5,1.7
					c0.6,0.3,1.2,0,1.5-0.5l1-2c0.2-0.5,0.8-0.7,1.3-0.6c0.9,0.2,1.8,0.4,2.7,0.6c0.5,0.1,1,0.5,1,1.1l0.1,2.2
					c0,0.6,0.6,1.1,1.2,1.1L30,75c0.6,0,1.1-0.6,1.1-1.2l-0.1-2.2c0-0.5,0.3-1,0.8-1.2c1.1-0.3,2.1-0.6,3.1-1.1
					c0.5-0.2,1.1,0,1.4,0.4l1.3,1.9c0.4,0.5,1.1,0.7,1.6,0.3l3.2-2.2c0.5-0.4,0.7-1.1,0.3-1.6l-1.3-1.9c-0.3-0.4-0.3-1.1,0.1-1.4
					c0.6-0.7,1.2-1.4,1.8-2.1c0.3-0.4,0.9-0.6,1.4-0.3l2.1,1c0.6,0.3,1.2,0,1.5-0.5l1.7-3.5c0.3-0.6,0-1.3-0.5-1.5l-2.1-1
					c-0.5-0.2-0.7-0.8-0.6-1.3c0.2-0.8,0.4-1.7,0.5-2.5c0.1-0.5,0.5-1,1.1-1l2.5-0.1c0.6,0,1.1-0.6,1.1-1.2l-0.2-3.9
					C51.6,46.1,51,45.6,50.4,45.7z M40.5,49.2c0.4,7.7-5.4,14.2-13.1,14.6c-7.7,0.4-14.2-5.4-14.6-13.1c-0.4-7.7,5.4-14.2,13.1-14.6
					C33.5,35.7,40.1,41.6,40.5,49.2z"/>
				<path class="st3" d="M26,75.3c-0.3,0-0.6-0.1-0.8-0.3c-0.3-0.2-0.4-0.5-0.4-0.9l-0.1-2.2c0-0.5-0.4-0.9-0.9-0.9
					c-0.9-0.1-1.8-0.3-2.7-0.6c-0.5-0.1-1,0.1-1.2,0.5l-1,2c-0.3,0.6-1.1,0.9-1.7,0.6l-3.5-1.7c-0.3-0.2-0.5-0.4-0.6-0.7
					c-0.1-0.3-0.1-0.7,0.1-1l1-2.1c0.2-0.4,0.1-1-0.3-1.2c-0.5-0.4-0.9-0.7-1.3-1.1c-0.4-0.3-0.9-0.4-1.3-0.1L9.4,67
					c-0.3,0.2-0.6,0.3-0.9,0.2c-0.3,0-0.6-0.2-0.8-0.5l-2.3-3.1C5,63.3,5,63,5,62.7c0-0.3,0.2-0.6,0.5-0.8l1.9-1.4
					c0.4-0.3,0.5-0.8,0.3-1.2c-0.6-1.3-1-2.6-1.4-3.9c-0.1-0.5-0.6-0.8-1-0.8l-2.5,0.1c-0.7,0-1.3-0.5-1.3-1.2l-0.2-3.9
					c0-0.3,0.1-0.7,0.3-0.9c0.2-0.3,0.5-0.4,0.9-0.4L5.1,48c0.5,0,0.9-0.4,0.9-0.9c0.1-0.8,0.3-1.6,0.5-2.3c0.1-0.5-0.1-1-0.5-1.2
					l-2.4-1.2c-0.6-0.3-0.9-1.1-0.6-1.7l1.7-3.5c0.1-0.3,0.4-0.5,0.7-0.6c0.3-0.1,0.7-0.1,1,0.1l2.5,1.2c0.4,0.2,1,0.1,1.2-0.3
					c0.5-0.7,1.1-1.3,1.7-2c0.3-0.3,0.4-0.9,0.1-1.3l-1.6-2.3c-0.4-0.6-0.2-1.4,0.3-1.8l3.2-2.2c0.3-0.2,0.6-0.3,0.9-0.2
					c0.3,0.1,0.6,0.3,0.8,0.5l1.6,2.3c0.3,0.4,0.8,0.6,1.2,0.4c1-0.4,2-0.8,3-1c0.5-0.1,0.8-0.6,0.8-1l-0.2-2.9
					c0-0.7,0.5-1.3,1.2-1.3l3.9-0.2c0.7,0,1.3,0.5,1.3,1.2l0.2,2.9c0,0.5,0.4,0.9,0.9,0.9c0.8,0.1,1.7,0.3,2.5,0.5
					c0.5,0.1,0.9-0.1,1.2-0.5l1.2-2.5c0.3-0.6,1.1-0.9,1.7-0.6l3.5,1.7c0.6,0.3,0.9,1.1,0.6,1.7l-1.2,2.5c-0.2,0.4-0.1,1,0.3,1.3
					c0.4,0.3,0.7,0.6,1.1,0.9c0.4,0.3,0.9,0.3,1.3,0.1l2.2-1.7c0.6-0.4,1.4-0.3,1.8,0.3l2.3,3.1c0.2,0.3,0.3,0.6,0.2,0.9
					c0,0.3-0.2,0.6-0.5,0.8l-2.1,1.6c-0.4,0.3-0.5,0.8-0.3,1.3c0.6,1.2,1.1,2.6,1.5,3.9c0.1,0.5,0.6,0.8,1,0.7l2.6-0.1
					c0.3,0,0.7,0.1,0.9,0.3c0.3,0.2,0.4,0.5,0.4,0.9l0.2,3.9c0,0.7-0.5,1.3-1.2,1.3l-2.5,0.1c-0.5,0-0.9,0.4-1,0.9
					c-0.1,0.8-0.3,1.7-0.5,2.5c-0.1,0.5,0.1,0.9,0.5,1.2l2.1,1c0.6,0.3,0.9,1.1,0.6,1.7l-1.7,3.5c-0.1,0.3-0.4,0.5-0.7,0.6
					c-0.3,0.1-0.7,0.1-1-0.1l-2.1-1c-0.4-0.2-1-0.1-1.3,0.3c-0.5,0.7-1.2,1.5-1.8,2.1c-0.3,0.3-0.4,0.9-0.1,1.3l1.3,1.9
					C43,68.3,43,68.7,43,69c-0.1,0.3-0.2,0.6-0.5,0.8L39.2,72c-0.6,0.4-1.4,0.2-1.8-0.3l-1.3-1.9c-0.3-0.4-0.8-0.6-1.2-0.4
					c-1,0.4-2.1,0.8-3.2,1.1c-0.5,0.1-0.8,0.6-0.8,1l0.1,2.2c0,0.3-0.1,0.7-0.3,0.9c-0.2,0.3-0.5,0.4-0.9,0.4L26,75.3
					C26,75.3,26,75.3,26,75.3z M20.8,70.1c0.1,0,0.2,0,0.3,0c0.9,0.2,1.8,0.4,2.7,0.6c0.6,0.1,1.1,0.6,1.1,1.2l0.1,2.2
					c0,0.3,0.1,0.5,0.3,0.7c0.2,0.2,0.5,0.3,0.7,0.3l3.9-0.2c0.3,0,0.5-0.1,0.7-0.3c0.2-0.2,0.3-0.5,0.3-0.7l-0.1-2.2
					c0-0.6,0.4-1.1,0.9-1.3c1.1-0.3,2.1-0.6,3.1-1.1c0.5-0.2,1.2-0.1,1.5,0.4l1.3,1.9c0.2,0.2,0.4,0.4,0.7,0.4
					c0.3,0.1,0.5,0,0.8-0.2l3.2-2.2c0.2-0.2,0.4-0.4,0.4-0.7c0-0.3,0-0.5-0.2-0.8l-1.3-1.9c-0.3-0.5-0.3-1.2,0.1-1.6
					c0.6-0.7,1.2-1.4,1.8-2.1c0.4-0.5,1-0.6,1.6-0.4l2.1,1c0.2,0.1,0.5,0.1,0.8,0c0.3-0.1,0.5-0.3,0.6-0.5l1.7-3.5
					c0.2-0.5,0-1.1-0.5-1.4l-2.1-1c-0.5-0.3-0.8-0.9-0.7-1.4c0.2-0.8,0.4-1.6,0.5-2.5c0.1-0.6,0.6-1.1,1.2-1.1l2.5-0.1
					c0.6,0,1-0.5,1-1.1l-0.2-3.9c0-0.3-0.1-0.5-0.3-0.7c-0.2-0.2-0.5-0.3-0.7-0.3l-2.6,0.1c-0.6,0-1.1-0.4-1.3-0.9
					c-0.4-1.3-0.8-2.6-1.5-3.9c-0.3-0.5-0.1-1.2,0.4-1.6l2.1-1.6c0.2-0.2,0.4-0.4,0.4-0.7c0-0.3,0-0.5-0.2-0.8l-2.3-3.1
					c-0.3-0.4-1-0.5-1.4-0.2l-2.2,1.7c-0.5,0.4-1.1,0.3-1.6-0.1c-0.4-0.3-0.7-0.6-1.1-0.9c-0.5-0.4-0.6-1-0.4-1.6l1.2-2.5
					c0.2-0.5,0-1.1-0.5-1.4L36,26.8c-0.5-0.2-1.1,0-1.4,0.5l-1.2,2.5c-0.3,0.5-0.9,0.8-1.4,0.7c-0.8-0.2-1.6-0.4-2.4-0.5
					c-0.6-0.1-1-0.6-1.1-1.2l-0.2-2.9c0-0.6-0.5-1-1.1-1l-3.9,0.2c-0.6,0-1,0.5-1,1.1l0.2,2.9c0,0.6-0.4,1.1-0.9,1.3
					c-1,0.3-2,0.6-3,1c-0.5,0.2-1.2,0-1.5-0.5l-1.6-2.3c-0.2-0.2-0.4-0.4-0.7-0.4c-0.3-0.1-0.5,0-0.8,0.2l-3.2,2.2
					c-0.5,0.3-0.6,1-0.3,1.4l1.6,2.3c0.3,0.5,0.3,1.2-0.1,1.6c-0.6,0.6-1.2,1.3-1.7,1.9c-0.4,0.5-1,0.6-1.5,0.4l-2.5-1.2
					c-0.5-0.2-1.1,0-1.4,0.5l-1.7,3.5c-0.2,0.5,0,1.1,0.5,1.4l2.4,1.2c0.5,0.3,0.8,0.9,0.7,1.5c-0.2,0.8-0.4,1.5-0.5,2.3
					c-0.1,0.6-0.6,1-1.2,1.1l-2.6,0.1c-0.6,0-1,0.5-1,1.1l0.2,3.9c0,0.6,0.5,1,1.1,1l2.5-0.1c0.6,0,1.2,0.4,1.3,1
					c0.3,1.3,0.8,2.6,1.4,3.9c0.3,0.5,0.1,1.2-0.4,1.5L5.7,62c-0.2,0.2-0.4,0.4-0.4,0.7c0,0.3,0,0.5,0.2,0.8l2.3,3.1
					C8,66.8,8.2,66.9,8.5,67c0.3,0,0.5,0,0.8-0.2l1.8-1.4c0.5-0.4,1.2-0.3,1.6,0.1c0.4,0.4,0.9,0.8,1.3,1.1c0.5,0.4,0.6,1,0.3,1.6
					l-1,2.1c-0.1,0.2-0.1,0.5-0.1,0.8c0.1,0.3,0.3,0.5,0.5,0.6l3.5,1.7c0.5,0.2,1.1,0,1.4-0.5l1-2C19.8,70.4,20.3,70.1,20.8,70.1z
					 M26.6,64c-3.5,0-6.7-1.3-9.3-3.6c-2.8-2.5-4.4-5.9-4.6-9.7c-0.2-3.7,1.1-7.3,3.5-10.1c2.5-2.8,5.9-4.4,9.7-4.6
					c3.7-0.2,7.3,1.1,10.1,3.5c2.8,2.5,4.4,5.9,4.6,9.7C41,56.9,35.1,63.6,27.4,64C27.1,64,26.9,64,26.6,64z M26.6,36.2
					c-0.3,0-0.5,0-0.8,0c-3.7,0.2-7,1.8-9.5,4.6c-2.5,2.7-3.7,6.3-3.5,9.9c0.2,3.7,1.8,7,4.6,9.5c2.7,2.5,6.3,3.7,9.9,3.5
					c7.6-0.4,13.4-6.9,13-14.5c-0.2-3.7-1.8-7-4.6-9.5C33.2,37.5,30,36.2,26.6,36.2z"/>
			</g>
		</g>
	</g>
	<g>
		<g>
			<g>
				<path class="st4" d="M86.7,61.3l-1.1-0.2c-0.2,0-0.4-0.2-0.4-0.5c0-0.6-0.1-1.2-0.2-1.8c0-0.2,0.1-0.5,0.3-0.5l1-0.4
					c0.2-0.1,0.4-0.4,0.3-0.6L86,55.7c-0.1-0.2-0.4-0.4-0.6-0.3l-1.1,0.5c-0.2,0.1-0.5,0-0.6-0.2c-0.1-0.2-0.2-0.3-0.4-0.5
					c-0.1-0.2-0.1-0.4,0-0.6l0.8-0.9c0.2-0.2,0.2-0.5-0.1-0.7L82.8,52c-0.2-0.2-0.5-0.2-0.7,0.1L81.3,53c-0.1,0.2-0.4,0.2-0.6,0.1
					c-0.3-0.2-0.6-0.3-1-0.5c-0.2-0.1-0.3-0.3-0.3-0.5l0.2-1.2c0.1-0.3-0.1-0.5-0.4-0.6L77.7,50c-0.3-0.1-0.5,0.1-0.6,0.4l-0.2,1.2
					c0,0.2-0.2,0.4-0.5,0.4c-0.4,0-0.9,0-1.3,0.1c-0.2,0-0.4-0.1-0.5-0.3l-0.4-1.1c-0.1-0.3-0.4-0.4-0.6-0.3L72,50.9
					c-0.3,0.1-0.4,0.4-0.3,0.6l0.4,1.1c0.1,0.2,0,0.5-0.2,0.6c-0.3,0.2-0.6,0.4-0.9,0.6c-0.2,0.1-0.4,0.1-0.6,0l-0.9-0.8
					c-0.2-0.2-0.5-0.1-0.7,0.1l-1.1,1.3c-0.2,0.2-0.1,0.5,0.1,0.7l0.9,0.7c0.2,0.1,0.2,0.4,0.1,0.6c-0.2,0.3-0.3,0.6-0.4,0.9
					c-0.1,0.2-0.3,0.3-0.5,0.3l-1.1-0.2c-0.3-0.1-0.5,0.1-0.6,0.4l-0.3,1.6c-0.1,0.3,0.1,0.5,0.4,0.6l1,0.2c0.2,0,0.4,0.2,0.4,0.5
					c0,0.6,0,1.2,0.2,1.7c0,0.2-0.1,0.4-0.3,0.5l-0.9,0.4c-0.2,0.1-0.4,0.4-0.3,0.6l0.6,1.5c0.1,0.2,0.4,0.4,0.6,0.3l0.9-0.4
					c0.2-0.1,0.5,0,0.6,0.2c0.1,0.2,0.3,0.4,0.4,0.6c0.1,0.2,0.1,0.4,0,0.6l-0.6,0.8c-0.2,0.2-0.2,0.5,0.1,0.7l1.3,1.1
					c0.2,0.2,0.5,0.2,0.7-0.1l0.6-0.7c0.2-0.2,0.4-0.2,0.6-0.1c0.3,0.2,0.7,0.4,1.1,0.5c0.2,0.1,0.3,0.3,0.3,0.5l-0.2,0.9
					c-0.1,0.3,0.1,0.5,0.4,0.6l1.6,0.3c0.3,0.1,0.5-0.1,0.6-0.4L76,70c0-0.2,0.2-0.4,0.5-0.4c0.5,0,0.9,0,1.4-0.1
					c0.2,0,0.4,0.1,0.5,0.3l0.3,0.9c0.1,0.3,0.4,0.4,0.6,0.3l1.6-0.6c0.3-0.1,0.4-0.4,0.3-0.6l-0.3-0.9c-0.1-0.2,0-0.5,0.2-0.6
					c0.3-0.2,0.7-0.4,1-0.7c0.2-0.1,0.4-0.1,0.6,0l0.7,0.6c0.2,0.2,0.5,0.1,0.7-0.1l1.1-1.3c0.2-0.2,0.1-0.5-0.1-0.7l-0.8-0.6
					c-0.2-0.1-0.2-0.4-0.1-0.6c0.2-0.3,0.3-0.6,0.5-1c0.1-0.2,0.3-0.3,0.5-0.3l1,0.2c0.3,0.1,0.5-0.1,0.6-0.4l0.3-1.6
					C87.2,61.6,87,61.4,86.7,61.3z M82.3,61.8c-0.6,3.2-3.7,5.3-6.9,4.7c-3.2-0.6-5.3-3.7-4.7-6.9c0.6-3.2,3.7-5.3,6.9-4.7
					C80.8,55.5,82.9,58.6,82.3,61.8z"/>
			</g>
		</g>
	</g>
	<g>
		<g>
			<g>
				<g>
					<g>
						<path class="st5" d="M130.6,18.8l-0.3-1.1l1.6-1.2l4.9,0.8L130.6,18.8z M130.4,17.8l0.2,0.9l5.3-1.3l-4.1-0.7L130.4,17.8z"/>
					</g>
				</g>
				<g>
					<g>
						<polygon class="st2" points="136.9,17.4 129.8,16 124.3,18.1 						"/>
					</g>
				</g>
				<g>
					<g>
						<polygon class="st2" points="131.4,15.1 136.9,17.4 131.9,12 						"/>
					</g>
				</g>
				<g>
					<g>
						<polygon class="st5" points="131.4,15.1 131.8,16.4 136.9,17.4 						"/>
					</g>
				</g>
			</g>
		</g>
		<g>
			<path class="st5" d="M102.4,42.5C102.4,42.5,102.4,42.5,102.4,42.5c-1.1,0-2-0.7-2.6-1.9c-0.9-1.8-1.1-4.6-0.5-7.8
				c0.2-1.4,0.6-2.7,1.1-4.1c-0.7-0.3-1.5-0.5-2.2-0.5c-4.6-0.4-8.4,2.6-11.3,8.9l-0.2-0.1c2.9-6.4,6.8-9.4,11.5-9
				c0.8,0.1,1.6,0.2,2.3,0.5c0.8-2,1.8-3.9,3.1-5.6c2.5-3.3,5.7-5.7,9.5-7.2c4.5-1.7,9.8-2.1,15.6-1l0,0.2c-5.8-1-11.1-0.7-15.5,1
				c-3.8,1.5-7,3.9-9.4,7.1c-1.2,1.7-2.3,3.6-3.1,5.5c1.5,0.6,2.8,1.7,3.8,3.1c1.4,1.9,2.2,4.3,2.2,6.4
				C106.5,40.9,104.9,42.5,102.4,42.5z M100.6,28.9c-0.5,1.3-0.9,2.7-1.1,4c-0.6,3-0.4,5.9,0.5,7.7c0.6,1.2,1.4,1.8,2.4,1.8
				c0,0,0,0,0,0c2.5,0,3.9-1.5,4.1-4.1c0.1-2.1-0.7-4.4-2.1-6.3C103.3,30.5,102,29.5,100.6,28.9z"/>
		</g>
	</g>
	<g>
		<g>
			<path class="st1" d="M69.5,164.4h27.9H69.5z"/>
			<path class="st1" d="M97.4,164.9H69.5c-0.2,0-0.4-0.2-0.4-0.4s0.2-0.4,0.4-0.4h27.9c0.2,0,0.4,0.2,0.4,0.4S97.6,164.9,97.4,164.9
				z"/>
		</g>
		<g>
			<path class="st1" d="M69.5,169.3h41H69.5z"/>
			<path class="st1" d="M110.5,169.8h-41c-0.2,0-0.4-0.2-0.4-0.4s0.2-0.4,0.4-0.4h41c0.2,0,0.4,0.2,0.4,0.4S110.7,169.8,110.5,169.8
				z"/>
		</g>
		<g>
			<path class="st1" d="M115.5,169.3h27.7H115.5z"/>
			<path class="st1" d="M143.3,169.8h-27.7c-0.2,0-0.4-0.2-0.4-0.4s0.2-0.4,0.4-0.4h27.7c0.2,0,0.4,0.2,0.4,0.4
				S143.5,169.8,143.3,169.8z"/>
		</g>
		<g>
			<path class="st1" d="M100.4,164.4h27.9H100.4z"/>
			<path class="st1" d="M128.3,164.9h-27.9c-0.2,0-0.4-0.2-0.4-0.4s0.2-0.4,0.4-0.4h27.9c0.2,0,0.4,0.2,0.4,0.4
				S128.5,164.9,128.3,164.9z"/>
		</g>
		<g>
			<path class="st1" d="M69.5,174.1h27.9H69.5z"/>
			<path class="st1" d="M97.4,174.6H69.5c-0.2,0-0.4-0.2-0.4-0.4c0-0.2,0.2-0.4,0.4-0.4h27.9c0.2,0,0.4,0.2,0.4,0.4
				C97.8,174.4,97.6,174.6,97.4,174.6z"/>
		</g>
		<g>
			<path class="st1" d="M69.5,179h41H69.5z"/>
			<path class="st1" d="M110.5,179.5h-41c-0.2,0-0.4-0.2-0.4-0.4s0.2-0.4,0.4-0.4h41c0.2,0,0.4,0.2,0.4,0.4S110.7,179.5,110.5,179.5
				z"/>
		</g>
		<g>
			<path class="st1" d="M115.5,179h27.7H115.5z"/>
			<path class="st1" d="M143.3,179.5h-27.7c-0.2,0-0.4-0.2-0.4-0.4s0.2-0.4,0.4-0.4h27.7c0.2,0,0.4,0.2,0.4,0.4
				S143.5,179.5,143.3,179.5z"/>
		</g>
		<g>
			<path class="st1" d="M100.4,174.1h27.9H100.4z"/>
			<path class="st1" d="M128.3,174.6h-27.9c-0.2,0-0.4-0.2-0.4-0.4c0-0.2,0.2-0.4,0.4-0.4h27.9c0.2,0,0.4,0.2,0.4,0.4
				C128.7,174.4,128.5,174.6,128.3,174.6z"/>
		</g>
	</g>
	<g>
		<circle class="st4" cx="122.2" cy="47.9" r="1.8"/>
	</g>
	<g>
		<circle class="st4" cx="129.1" cy="47.9" r="1.8"/>
	</g>
	<g>
		<circle class="st4" cx="135.9" cy="47.9" r="1.8"/>
	</g>
	<g>
		<circle class="st4" cx="142.8" cy="47.9" r="1.8"/>
	</g>
	<g>
		<circle class="st4" cx="149.8" cy="47.9" r="1.8"/>
	</g>
	<g>
		<g>
			<circle class="st4" cx="44.6" cy="16.3" r="2.5"/>
		</g>
		<g>
			<ellipse transform="matrix(0.1614 -0.9869 0.9869 0.1614 27.2724 39.0346)" class="st4" cx="36.6" cy="3.5" rx="2.5" ry="2.5"/>
		</g>
		<g>
			<circle class="st4" cx="30.3" cy="18.8" r="2.5"/>
		</g>
		<g>
			<polygon class="st4" points="30.3,19 30.2,18.6 44.2,16.2 36.4,3.6 36.8,3.4 44.9,16.4 			"/>
		</g>
	</g>
	<g>
		<g>
			<ellipse transform="matrix(0.1408 -0.99 0.99 0.1408 124.6537 220.7774)" class="st4" cx="189.5" cy="38.6" rx="2.5" ry="2.5"/>
		</g>
		<g>
			<circle class="st4" cx="175.8" cy="44.9" r="2.5"/>
		</g>
		<g>
			
				<ellipse transform="matrix(0.2475 -0.9689 0.9689 0.2475 91.7463 224.2547)" class="st4" cx="190.2" cy="53.1" rx="2.5" ry="2.5"/>
		</g>
		<g>
			<polygon class="st4" points="190.1,53.1 189.3,38.9 175.9,45.1 175.7,44.7 189.7,38.3 190.4,53.1 			"/>
		</g>
	</g>
	<g>
		<g>
			<g>
				<g>
					<path class="st0" d="M67.2,130.9c-0.4,0.2-0.8,0.2-1.2,0.2c0-0.1,0-0.2,0-0.3c0.1-0.5,1.2-1.2,1.2-1.5
						c-0.1-0.7-1.4,0.4-2.5,0.7c-0.7,0.2-2.1,1.3-2.3,1.6l1.3,1.6c0.1,0.1,0.2,0.1,0.3,0.2c1.4,0.6,3-0.3,3-0.3
						c0.2-0.1,0.8-0.4,0.9-0.5C67.9,132.5,67.2,130.9,67.2,130.9z"/>
				</g>
			</g>
			<g>
				<g>
					<path class="st1" d="M65.2,133.7c-0.4,0-0.8-0.1-1.2-0.2c-0.1,0-0.2-0.1-0.3-0.2c0,0-0.1,0-0.1-0.1c0,0,0-0.1,0-0.1
						c0,0,0.1,0,0.1,0c0,0,0.1,0,0.1,0.1c0.1,0.1,0.1,0.1,0.2,0.1c1.1,0.4,2,0.3,2.8-0.3c0.5-0.4,0.8-0.8,0.9-0.9
						c0.2-0.7,0.3-1.5,0.2-1.6c0,0,0,0,0,0c-0.8,0.5-1.5,0.6-2.1,0.6h0c0,0-0.1,0-0.1-0.1c0,0,0-0.1,0.1-0.1c0.5,0,1.3-0.1,2-0.5
						c0.1,0,0.1,0,0.2,0c0.2,0.1,0,1.2-0.1,1.7c0,0,0,0,0,0C67.8,132.2,67,133.7,65.2,133.7z"/>
				</g>
			</g>
			<g>
				<g>
					<path class="st1" d="M62.1,132l0.1,0c0.1-0.1,0.1-0.2,0.2-0.3c1.3-1.5,2.2-1.7,2.3-1.7c0.4-0.1,0.9-0.3,1.3-0.5
						c0.5-0.2,0.9-0.4,1.1-0.3c0,0,0,0,0,0c0,0,0,0,0,0.1c0,0,0,0,0,0c0,0,0,0,0,0.1c0,0.1-0.2,0.3-0.4,0.6
						c-0.2,0.2-0.4,0.4-0.6,0.6c0,0,0,0,0,0c0,0,0,0-0.1,0.1c0,0,0,0,0,0c-0.1,0.2-0.2,0.3-0.2,0.5c0,0,0,0,0,0c0,0,0,0,0.1,0.1h0
						c0,0,0.1,0,0.1-0.1c0,0,0,0,0,0c0-0.4,0.5-0.8,0.8-1.1c0.3-0.3,0.5-0.5,0.5-0.7c0-0.1-0.1-0.2-0.1-0.2
						c-0.2-0.1-0.6,0.1-1.2,0.3c-0.4,0.2-0.9,0.4-1.3,0.5c-0.4,0.1-1.1,0.5-2,1.3c-0.1,0.1-0.3,0.3-0.4,0.4
						C62.3,131.7,62.2,131.8,62.1,132z"/>
				</g>
			</g>
			<g>
				<g>
					<path class="st1" d="M65.6,131.9C65.6,131.9,65.6,131.9,65.6,131.9c-0.9-0.7-1.8-0.3-1.8-0.3c0,0-0.1,0-0.1,0c0,0,0-0.1,0-0.1
						c0,0,1-0.4,1.9,0.3C65.7,131.8,65.7,131.8,65.6,131.9C65.6,131.9,65.6,131.9,65.6,131.9z"/>
				</g>
			</g>
		</g>
		<g>
			<path class="st0" d="M67.2,131.7c0,0,0.8-0.2,1.4-1.2c0.6-1,1.1-0.6,0.6,0.3c-0.2,0.4-0.8,1.4-1.5,1.3
				C67,132.1,67.2,131.7,67.2,131.7z"/>
		</g>
		<g>
			<path class="st1" d="M67.4,132C67.4,132,67.4,132.1,67.4,132C67.4,132.1,67.5,132,67.4,132C67.5,132,67.4,132,67.4,132z
				 M69.4,129.9c-0.1-0.1-0.3,0-0.5,0.2c0,0,0,0,0,0.1c0,0,0,0,0,0.1c-0.1,0.1-0.1,0.2-0.2,0.3c-0.1,0.2-0.3,0.4-0.4,0.6
				c0,0,0,0-0.1,0.1c0,0,0,0,0,0c0,0,0,0,0,0c0,0,0,0-0.1,0c0,0,0,0,0,0h0c0,0-0.1,0.1-0.1,0.1c0,0,0,0,0,0
				c-0.1,0.1-0.2,0.2-0.3,0.2c0,0,0,0,0,0c0,0,0,0-0.1,0c0,0,0,0-0.1,0c0,0-0.1,0-0.1,0c0,0-0.1,0-0.1,0c0,0,0,0,0,0c0,0,0,0,0,0
				c0,0,0,0.1,0,0.2c0,0,0,0,0,0c0,0,0,0.1,0,0.1c0,0,0,0,0,0c0,0,0.1,0.1,0.1,0.1c0,0,0,0,0,0c0,0,0,0,0,0c0,0,0,0,0,0c0,0,0,0,0,0
				c0,0,0,0,0,0c0.1,0,0.1,0,0.2,0c0,0,0.1,0,0.1,0c0,0,0,0,0,0c0,0,0,0,0,0c0,0,0,0,0,0c0,0,0.1,0,0.1,0c0,0,0,0,0.1,0
				c0,0,0,0,0.1,0h0c0.2,0,0.3-0.1,0.5-0.3c0,0,0.1-0.1,0.1-0.1c0,0,0,0,0,0c0,0,0.1-0.1,0.1-0.1c0.2-0.3,0.4-0.6,0.5-0.8
				C69.5,130.4,69.6,130,69.4,129.9z M68.9,131.3c0,0.1-0.1,0.1-0.1,0.2c0,0,0,0,0,0c0,0.1-0.1,0.1-0.1,0.1
				c-0.2,0.2-0.4,0.3-0.6,0.4c0,0,0,0-0.1,0c0,0,0,0-0.1,0c0,0-0.1,0-0.1,0c0,0-0.1,0-0.1,0c0,0,0,0,0,0c0,0,0,0,0,0
				c-0.1,0-0.1,0-0.2,0c0,0,0,0-0.1,0c0,0,0,0,0,0c0,0,0,0,0,0c0,0,0,0,0,0c0,0,0,0-0.1,0c0,0,0,0,0,0c0,0,0-0.1,0-0.1
				c0,0,0,0,0.1,0c0,0,0,0,0.1,0c0,0,0,0,0,0c0,0,0,0,0.1,0c0,0,0,0,0.1,0c0.1,0,0.1-0.1,0.2-0.1c0,0,0,0,0.1-0.1c0,0,0,0,0,0
				c0,0,0,0,0,0c0,0,0.1,0,0.1-0.1c0,0,0,0,0,0c0,0,0.1,0,0.1-0.1c0,0,0,0,0.1-0.1c0,0,0,0,0.1-0.1c0.2-0.2,0.4-0.4,0.5-0.7
				c0-0.1,0.1-0.1,0.1-0.2c0,0,0,0,0-0.1c0,0,0,0,0.1-0.1c0.2-0.2,0.3-0.3,0.4-0.2c0.1,0,0.1,0.3-0.1,0.8
				C69.1,131,69,131.1,68.9,131.3z M67.4,132C67.4,132,67.4,132.1,67.4,132C67.4,132.1,67.5,132,67.4,132
				C67.5,132,67.4,132,67.4,132z"/>
		</g>
		<g>
			<path class="st0" d="M67,132.4c0,0,1-0.6,1.1-1.8s0.8-1,0.8,0.1c0,0.5-0.3,1.6-1,1.8C67.3,132.8,67,132.4,67,132.4z"/>
		</g>
		<g>
			<path class="st1" d="M67.5,132C67.5,132,67.4,132.1,67.5,132C67.4,132.1,67.4,132.1,67.5,132c0,0.1-0.1,0.1-0.1,0.1c0,0,0,0,0,0
				C67.4,132.1,67.5,132.1,67.5,132C67.5,132.1,67.5,132.1,67.5,132C67.5,132,67.5,132,67.5,132z M68.9,130.2
				C68.9,130.2,68.9,130.2,68.9,130.2c0-0.1,0-0.1,0-0.1c-0.1-0.2-0.2-0.3-0.4-0.3c0,0,0,0,0,0c-0.2,0-0.4,0.2-0.5,0.9
				c0,0,0,0.1,0,0.1c0,0,0,0,0,0c0,0,0,0,0,0c0,0,0,0.1,0,0.1c0,0.2-0.1,0.3-0.1,0.4c0,0,0,0.1,0,0.1l0,0c0,0,0,0,0,0.1v0
				c0,0,0,0.1-0.1,0.1c0,0.1-0.1,0.1-0.1,0.2c0,0.1-0.1,0.1-0.1,0.2c0,0,0,0,0,0c0,0,0,0,0,0.1c0,0,0,0,0,0c0,0,0,0,0,0c0,0,0,0,0,0
				c0,0,0,0,0,0c0,0,0,0,0,0l0,0c-0.2,0.1-0.3,0.2-0.3,0.2c0,0,0,0,0,0c0,0,0,0,0,0.1c0,0,0,0.1,0.1,0.1c0,0,0,0,0.1,0
				c0,0,0,0,0.1,0h0c0,0,0,0,0.1,0h0c0,0,0.1,0,0.1,0c0,0,0.1,0,0.1,0c0,0,0,0,0.1,0c0,0,0.1,0,0.1,0h0c0,0,0,0,0,0h0c0,0,0,0,0.1,0
				c0.1,0,0.1,0,0.2-0.1c0.4-0.1,0.6-0.5,0.8-0.9c0-0.1,0-0.1,0.1-0.2v0c0-0.1,0-0.1,0.1-0.2c0.1-0.2,0.1-0.4,0.1-0.6
				C69,130.5,69,130.4,68.9,130.2z M68.7,131.6c0,0.1,0,0.1-0.1,0.2v0c0,0.1-0.1,0.1-0.1,0.2c-0.1,0.2-0.3,0.5-0.6,0.5c0,0,0,0,0,0
				c0,0,0,0,0,0c0,0,0,0-0.1,0c0,0-0.1,0-0.1,0c-0.1,0-0.2,0-0.2,0c-0.1,0-0.1,0-0.1,0c0,0-0.1,0-0.1,0c0,0,0,0-0.1,0c0,0,0,0-0.1,0
				c0,0,0,0,0,0c0,0,0,0,0.1-0.1c0,0,0,0,0,0c0,0,0.1,0,0.1-0.1c0,0,0,0,0,0c0,0,0.1-0.1,0.1-0.1h0c0,0,0,0,0,0c0,0,0,0,0.1-0.1
				c0,0,0,0,0.1-0.1c0,0,0.1-0.1,0.1-0.1c0,0,0.1-0.1,0.1-0.1c0.1-0.1,0.1-0.2,0.2-0.3c0,0,0,0,0,0c0,0,0,0,0,0c0,0,0-0.1,0.1-0.1v0
				c0,0,0,0,0-0.1c0,0,0-0.1,0-0.1c0,0,0-0.1,0-0.1c0,0,0,0,0,0c0-0.1,0-0.1,0-0.2c0-0.1,0-0.2,0-0.3c0-0.5,0.2-0.8,0.3-0.8
				c0.1,0,0.2,0.1,0.3,0.3c0,0,0,0,0,0.1c0,0,0,0.1,0,0.1c0,0.1,0,0.2,0,0.3C68.9,130.9,68.8,131.3,68.7,131.6z M67.5,132
				C67.5,132,67.4,132.1,67.5,132C67.4,132.1,67.4,132.1,67.5,132c0,0.1-0.1,0.1-0.1,0.1c0,0,0,0,0,0
				C67.4,132.1,67.5,132.1,67.5,132C67.5,132.1,67.5,132.1,67.5,132C67.5,132,67.5,132,67.5,132z"/>
		</g>
		<g>
			<path class="st0" d="M66.3,132.8c0,0,1.1-0.5,1-1.7c-0.2-1.2,0.6-1.1,0.8-0.1c0.1,0.5,0,1.7-0.7,2
				C66.7,133.2,66.3,132.8,66.3,132.8z"/>
		</g>
		<g>
			<path class="st1" d="M68.2,131.2C68.2,131.2,68.2,131.2,68.2,131.2c0-0.1,0-0.1,0-0.2c0,0,0-0.1,0-0.1c0,0,0,0,0,0
				c0-0.1,0-0.1,0-0.2c0-0.1,0-0.1-0.1-0.1c0,0,0-0.1,0-0.1c0,0,0,0,0,0c0,0,0-0.1,0-0.1c-0.2-0.3-0.3-0.4-0.5-0.4
				c-0.2,0-0.3,0.2-0.3,0.7c0,0,0,0.1,0,0.1c0,0,0,0,0,0v0c0,0,0,0.1,0,0.1c0,0,0,0,0,0c0,0,0,0,0,0.1c0,0,0,0,0,0.1
				c0.1,1-0.9,1.5-0.9,1.5c0,0,0,0,0,0c0,0,0,0,0,0.1c0,0,0.2,0.2,0.5,0.2c0,0,0,0,0.1,0c0,0,0,0,0,0c0,0,0.1,0,0.1,0c0,0,0,0,0,0
				c0,0,0,0,0.1,0h0c0,0,0,0,0,0c0,0,0,0,0,0c0.1,0,0.3,0,0.4-0.1c0.2-0.1,0.3-0.2,0.4-0.3c0,0,0-0.1,0.1-0.1h0c0,0,0,0,0,0
				c0,0,0,0,0,0c0,0,0,0,0,0v0c0,0,0,0,0-0.1c0.1-0.1,0.1-0.2,0.1-0.3h0c0,0,0-0.1,0-0.1c0,0,0-0.1,0-0.1c0,0,0,0,0,0
				C68.2,131.7,68.2,131.5,68.2,131.2z M67.9,132.1C67.9,132.2,67.9,132.2,67.9,132.1c0,0.1-0.1,0.2-0.1,0.2c0,0.1-0.1,0.1-0.1,0.2
				c0,0,0,0.1-0.1,0.1c0,0,0,0-0.1,0.1c-0.1,0.1-0.2,0.1-0.2,0.2c-0.1,0-0.1,0-0.2,0.1c-0.1,0-0.1,0-0.2,0h0c0,0,0,0,0,0
				c0,0,0,0,0,0c0,0-0.1,0-0.1,0c-0.2,0-0.4-0.1-0.4-0.2c0.2-0.1,0.6-0.4,0.8-0.8c0,0,0-0.1,0-0.1c0,0,0-0.1,0.1-0.1c0,0,0,0,0-0.1
				c0-0.1,0-0.2,0-0.3c0,0,0-0.1,0-0.1c0,0,0,0,0,0v0c0,0,0,0,0-0.1c0,0,0-0.1,0-0.1c0-0.1,0-0.1,0-0.2c0,0,0-0.1,0-0.1
				c0-0.3,0.1-0.5,0.2-0.5c0.1,0,0.2,0.1,0.3,0.2c0,0,0,0.1,0.1,0.1c0,0,0,0,0,0.1l0,0c0,0.1,0.1,0.2,0.1,0.3c0,0,0,0,0,0.1
				c0,0,0,0,0,0v0c0,0,0,0,0,0.1v0c0,0,0,0.1,0,0.1c0,0,0,0,0,0.1c0,0,0,0,0,0c0,0,0,0.1,0,0.1C68.1,131.6,68,131.8,67.9,132.1
				C68,132.1,67.9,132.1,67.9,132.1z"/>
		</g>
		<g>
			<path class="st0" d="M65.8,132.5c0.3-0.1,0.6-0.2,0.8-0.6c0.4-1,0.9-1,0.9-0.3c0,0.7-0.4,1.5-1.1,1.8L65.8,132.5z"/>
		</g>
		<g>
			<path class="st1" d="M66.3,133.4C66.3,133.4,66.3,133.4,66.3,133.4c-0.1-0.1-0.1-0.1,0-0.1c0.7-0.3,1-1.1,1.1-1.7
				c0-0.2-0.1-0.4-0.2-0.4c-0.1,0-0.4,0.2-0.6,0.7c-0.2,0.5-0.5,0.6-0.8,0.7c0,0-0.1,0-0.1-0.1c0,0,0-0.1,0.1-0.1
				c0.3-0.1,0.6-0.2,0.7-0.6c0.2-0.6,0.5-0.9,0.7-0.8c0.2,0,0.3,0.2,0.3,0.5C67.5,132.3,67.1,133.2,66.3,133.4
				C66.3,133.4,66.3,133.4,66.3,133.4z"/>
		</g>
		<g>
			<defs>
				<path id="SVGID_1_" d="M46,127.1c0,0,3.7-0.8,6.8,2.9c2.1,2.5,4.2,6.8,4.8,6.7c0.6-0.1,5.1-5.7,5.1-5.7s2,1.6,1.8,4.7
					c0,0-2.5,8.1-7.6,8c-5.2-0.1-10.4-8.9-10.4-8.9L46,127.1z"/>
			</defs>
			<use xlink:href="#SVGID_1_"  style="overflow:visible;fill:#040D43;"/>
			<clipPath id="SVGID_2_">
				<use xlink:href="#SVGID_1_"  style="overflow:visible;"/>
			</clipPath>
		</g>
		<g>
			<g>
				<g>
					<g>
						<g>
							<path class="st1" d="M54.3,187.9v1.8c0.1,0,0.2,0,0.3,0c2.3,0,4.2,1.5,4.2,3.3h-4.4h-3.9c0,0-1.3-1.6,0-5.2
								C50.8,187,54.3,187.9,54.3,187.9z"/>
						</g>
					</g>
				</g>
			</g>
			<g>
				<g>
					<g>
						<g>
							<path class="st4" d="M52.4,191.2C52.4,191.2,52.4,191.2,52.4,191.2C52.4,191.2,52.4,191.2,52.4,191.2
								c0.3-0.8,0.8-1.2,1.2-1.4c0.4-0.2,0.7-0.2,0.7-0.2c0,0,0.1,0,0.1,0.1c0,0,0,0.1-0.1,0.1C54.3,189.8,53.1,189.8,52.4,191.2
								C52.5,191.2,52.5,191.2,52.4,191.2z"/>
						</g>
					</g>
				</g>
			</g>
		</g>
		<g>
			<g>
				<g>
					<g>
						<g>
							<path class="st1" d="M37.5,187.9v1.8c-0.1,0-0.2,0-0.3,0c-2.3,0-4.2,1.5-4.2,3.3h4.4h3.9c0,0,0.9-1.3,0-5.2
								C41.2,186.9,37.5,187.9,37.5,187.9z"/>
						</g>
					</g>
				</g>
			</g>
			<g>
				<g>
					<g>
						<g>
							<path class="st4" d="M39.4,191.2C39.4,191.2,39.4,191.2,39.4,191.2c-0.7-1.4-1.9-1.4-1.9-1.4c0,0-0.1,0-0.1-0.1
								c0,0,0-0.1,0.1-0.1c0,0,0.3,0,0.7,0.2C38.6,190,39.1,190.4,39.4,191.2C39.5,191.2,39.5,191.2,39.4,191.2
								C39.4,191.2,39.4,191.2,39.4,191.2z"/>
						</g>
					</g>
				</g>
			</g>
		</g>
		<g>
			<defs>
				<path id="SVGID_3_" d="M54.6,148.1c0,0,1.5,16.2,0.5,40.6h-6.9c0,0-0.9-20.4-2.4-28l-3.3,28H35c0.9-23.8,3-39.3,3-39.3
					L54.6,148.1z"/>
			</defs>
			<use xlink:href="#SVGID_3_"  style="overflow:visible;fill:#C4C8E0;"/>
			<clipPath id="SVGID_4_">
				<use xlink:href="#SVGID_3_"  style="overflow:visible;"/>
			</clipPath>
			<g class="st6">
				<polygon class="st2" points="35,188.7 42.5,188.7 46.9,150.3 41.4,152.1 				"/>
			</g>
		</g>
		<g>
			<g>
				<g>
					<g>
						<path class="st1" d="M55,153.7c-1.2-0.3-3-1.2-3.2-3.6l0.2,0c0.2,2.3,1.9,3.1,3.1,3.4L55,153.7z"/>
					</g>
				</g>
			</g>
		</g>
		<g>
			<defs>
				<path id="SVGID_5_" d="M45.1,128.2c3.5-0.9,5.6-0.4,6.6,1.5c0.9,1.8,2.3,3,2.5,6.1c0.4,7.5,0.6,14.5,0.6,14.5s-4.8,2.9-17.1,1.1
					c0,0,0.2-12,0.3-15.5C38,135.1,39.4,129.6,45.1,128.2z"/>
			</defs>
			<use xlink:href="#SVGID_5_"  style="overflow:visible;fill:#040D43;"/>
			<clipPath id="SVGID_6_">
				<use xlink:href="#SVGID_5_"  style="overflow:visible;"/>
			</clipPath>
		</g>
		<g>
			<defs>
				<path id="SVGID_7_" d="M45,127.4l0.6,0c0.6,0,1-0.5,1-1.1l0-2.2c0-0.6-0.5-1-1.1-1l-0.6,0c-0.6,0-1,0.5-1,1.1l0,2.2
					C44,126.9,44.5,127.4,45,127.4z"/>
			</defs>
			<use xlink:href="#SVGID_7_"  style="overflow:visible;fill:#FFFFFF;"/>
			<clipPath id="SVGID_8_">
				<use xlink:href="#SVGID_7_"  style="overflow:visible;"/>
			</clipPath>
		</g>
		<g>
			<g>
				<g>
					<g>
						<path class="st1" d="M44,123.7c0,0.1,0,0.1,0.1,0.1C44.1,123.8,44.1,123.8,44,123.7C44.1,123.7,44,123.7,44,123.7z
							 M46.7,125.5C46.7,125.5,46.7,125.5,46.7,125.5l0-0.7l0-0.1l0-0.1l0-0.5c0-0.3-0.1-0.6-0.4-0.8c-0.2-0.2-0.5-0.3-0.8-0.3
							l-0.6,0c-0.4,0-0.8,0.2-1,0.6c0,0,0,0,0,0c0,0,0,0,0,0.1c0,0,0,0.1,0,0.1c0,0.1-0.1,0.3-0.1,0.4l0,0.1l0,1.3l0,0.7
							c0,0.2,0,0.3,0.1,0.5c0,0,0,0,0,0.1c0,0,0,0,0,0c0.1,0.1,0.1,0.2,0.2,0.3c0.1,0.1,0.3,0.2,0.5,0.3c0.1,0,0.2,0,0.3,0h0l0.6,0
							c0.1,0,0.2,0,0.3,0h0c0,0,0,0,0.1,0c0.2-0.1,0.4-0.2,0.6-0.4c0.1-0.2,0.2-0.4,0.2-0.7L46.7,125.5z M46.3,127
							c-0.1,0.1-0.2,0.1-0.3,0.2c-0.1,0-0.1,0-0.2,0c-0.1,0-0.1,0-0.2,0l-0.5,0h0l-0.1,0c-0.3,0-0.5-0.1-0.7-0.3
							c-0.2-0.2-0.3-0.4-0.3-0.7l0-0.6c0,0,0,0,0,0l0-1.6v0c0-0.1,0-0.2,0-0.3c0,0,0-0.1,0-0.1c0,0,0,0,0,0c0,0,0,0,0-0.1
							c0.2-0.3,0.5-0.5,0.9-0.6l0.6,0h0c0.2,0,0.5,0.1,0.7,0.3c0.2,0.2,0.3,0.4,0.3,0.7l0,0.5l0,0.1l0,0.1l0,1.4v0l0,0.1
							C46.6,126.6,46.5,126.9,46.3,127z M44,123.7c0,0.1,0,0.1,0.1,0.1C44.1,123.8,44.1,123.8,44,123.7
							C44.1,123.7,44,123.7,44,123.7z"/>
					</g>
				</g>
			</g>
		</g>
		<g>
			<g>
				<g>
					<g>
						<path class="st1" d="M37.4,154.8l0-0.2c2.8-0.2,4.3-3.2,4.3-3.2l0.1,0.1C41.9,151.6,40.3,154.7,37.4,154.8z"/>
					</g>
				</g>
			</g>
		</g>
		<g>
			<g>
				<g>
					<g>
						<g>
							<path class="st0" d="M43.3,123.2c1.4,1.6,3.5,2.1,4.7,1c1.2-1,0.7-3.5-0.5-4.8c-1.4-1.6-3.5-2.1-4.7-1
								C41.7,119.4,41.9,121.6,43.3,123.2z"/>
						</g>
					</g>
				</g>
			</g>
			<g>
				<g>
					<g>
						<g>
							<path class="st1" d="M47.6,119.3c-0.1-0.1-0.3-0.3-0.4-0.4c-0.8-0.7-1.7-1.1-2.6-1.2c-0.7,0-1.4,0.2-1.8,0.6
								c-1.2,1.1-1,3.3,0.5,4.9c0.2,0.2,0.4,0.4,0.6,0.6c0,0,0.1,0.1,0.1,0.1c0,0,0.1,0,0.1,0.1c0.7,0.5,1.5,0.8,2.2,0.9
								c0.1,0,0.2,0,0.2,0c0.1,0,0.1,0,0.2,0c0.1,0,0.3,0,0.4-0.1c0.4-0.1,0.7-0.3,1-0.5C49.3,123.2,48.8,120.7,47.6,119.3z
								 M46.3,124.7c-0.5,0-1-0.2-1.5-0.5c-0.2-0.1-0.5-0.3-0.7-0.5c0,0-0.1,0-0.1-0.1c0,0,0,0,0,0c-0.2-0.2-0.4-0.3-0.6-0.5
								c-1.4-1.6-1.6-3.7-0.5-4.7c0.3-0.2,0.6-0.4,0.9-0.5c0.2-0.1,0.5-0.1,0.8-0.1c0.9,0.1,1.8,0.5,2.5,1.2
								c0.1,0.1,0.3,0.3,0.4,0.4c1.4,1.6,1.4,3.9,0.5,4.7c-0.3,0.3-0.8,0.5-1.3,0.5c-0.1,0-0.1,0-0.2,0
								C46.5,124.7,46.4,124.7,46.3,124.7z"/>
						</g>
					</g>
				</g>
			</g>
			<g>
				<g>
					<g>
						<g>
							<path class="st1" d="M43.9,118.9c0,0,1,0.7,0.5,1.3c-0.4,0.6-1.1,0.1-1.1,0.1s1.5,0.8,0.9,1.6c-0.6,0.8-1.7-0.5-1.7-0.5
								l-0.2-1.5L43.9,118.9z"/>
						</g>
					</g>
				</g>
			</g>
			<g>
				<g>
					<g>
						<g>
							<path class="st1" d="M44.1,119.5c0,0,2.2,1,3.5-1.1c0,0,0.5-1.7-2-1.9c0,0-0.7-0.1-1.3,0.3c0,0,0.8-0.6,0.1-0.9
								c-0.7-0.3-1.7,0.3-2.4,1.4c0,0,0.1-1-0.7-0.7c-0.8,0.3-1.4,1.2-1,2.5c0,0-0.3-0.3-0.6-0.2c-0.3,0.1,0,0.5,0.3,0.5
								c0,0-0.8,0-0.8,0.3c0.1,0.4,0.8,0.1,0.8,0.1s-0.6,3.4,2.4,3.6c0,0-0.5,1.3,1,0.4c0,0,0.3,0.8,0.7,0c0,0-0.2-0.1-0.4-1.2
								C43.6,122.2,44.1,119.5,44.1,119.5z"/>
						</g>
					</g>
				</g>
			</g>
			<g>
				<g>
					<g>
						<g>
							<path class="st1" d="M45.6,120.6C45.6,120.6,45.7,120.6,45.6,120.6c0-0.1,0-0.1,0-0.1c0,0-0.5-0.1-0.7,0.4c0,0,0,0.1,0,0.1
								c0,0,0.1,0,0.1,0C45.2,120.7,45.6,120.6,45.6,120.6C45.6,120.6,45.6,120.6,45.6,120.6z"/>
						</g>
					</g>
				</g>
			</g>
			<g>
				<g>
					<g>
						<g>
							<path class="st1" d="M47.3,119.6C47.3,119.6,47.3,119.6,47.3,119.6c0-0.1,0-0.1,0-0.1c0,0-0.5-0.1-0.7,0.4c0,0,0,0.1,0,0.1
								c0,0,0.1,0,0.1,0C46.9,119.7,47.2,119.6,47.3,119.6C47.3,119.6,47.3,119.6,47.3,119.6z"/>
						</g>
					</g>
				</g>
			</g>
			<g>
				<g>
					<g>
						<g>
							<path class="st1" d="M45.4,121.4c0,0.1,0.2,0.2,0.3,0.2c0.1,0,0.2-0.2,0.1-0.3c0-0.1-0.2-0.2-0.3-0.2
								C45.4,121.1,45.3,121.3,45.4,121.4z"/>
						</g>
					</g>
				</g>
			</g>
			<g>
				<g>
					<g>
						<g>
							<path class="st1" d="M47,120.6c0,0.1,0.2,0.2,0.3,0.2c0.1,0,0.2-0.2,0.1-0.3c0-0.1-0.2-0.2-0.3-0.2
								C47,120.3,47,120.4,47,120.6z"/>
						</g>
					</g>
				</g>
			</g>
			<g>
				<g>
					<g>
						<g>
							<path class="st1" d="M46.9,122C46.9,122,46.9,122,46.9,122c-0.1-0.1-0.1-0.1,0-0.1c0.2-0.1,0.3-0.3,0.3-0.3c0,0,0-0.1,0.1,0
								c0,0,0.1,0,0,0.1C47.3,121.5,47.3,121.8,46.9,122C47,122,46.9,122,46.9,122z"/>
						</g>
					</g>
				</g>
			</g>
			<g>
				<g>
					<g>
						<g>
							<path class="st0" d="M43.9,123.1c0.4,0.1,0.7-0.1,0.8-0.3c0.1-0.3-0.3-0.6-0.6-0.6c-0.4-0.1-0.7,0.1-0.8,0.3
								C43.3,122.7,43.5,123,43.9,123.1z"/>
						</g>
					</g>
				</g>
			</g>
		</g>
		<g>
			<path class="st2" d="M46.9,128.5c0,0,2.5,8.3,3.7,19.6l-1.9,3.3l-2.2-3.6c0,0,0.5-10-0.8-19.1L46.9,128.5z"/>
		</g>
		<g>
			<path class="st2" d="M47.2,126.8c0,0,0.1,2.2-0.3,2.6c-0.4,0.4-1.4-0.2-1.7-0.7c-0.4-0.4-0.6-1.3-0.6-1.3L47.2,126.8z"/>
		</g>
		<g>
			<path class="st7" d="M46.7,125.4c0,0-0.1,1.5-0.8,1.6s0.4,0.6,0.8,1c0.4,0.4,0.4,1.8,1.1,1.2s1.1-2.1,0.8-2.5
				C48,125.7,46.7,125.2,46.7,125.4z"/>
		</g>
		<g>
			<g>
				<g>
					<g>
						<path class="st5" d="M40,159.9c-0.1-0.2-0.4-0.3-0.6-0.4l-4.3-0.3l-0.8-0.1l-3.9-0.3l-0.8-0.1l-3.5-0.3c-0.5,0-1,0.4-1,0.9
							l-1,9c0,0.3,0,0.5,0.2,0.7c0.1,0.2,0.4,0.3,0.6,0.4l13.2,1c0.1,0,0.1,0,0.2,0c0.4-0.1,0.8-0.4,0.8-0.9l0.5-4.7l0-0.1l0,0
							l0.5-4.1C40.2,160.4,40.2,160.1,40,159.9z M25,169.3c-0.2,0-0.4-0.1-0.5-0.3c-0.1-0.2-0.2-0.3-0.1-0.5l0.5-4.7l0-0.1l0-0.2
							l0.4-4c0-0.4,0.4-0.7,0.8-0.7L25,169.3z"/>
					</g>
				</g>
			</g>
			<g id="XMLID_54_">
				<g>
					<g>
						<path class="st0" d="M37.3,170.4l-13.2-1c-0.4,0-0.8-0.5-0.7-0.9l1-9c0.1-0.5,0.5-0.9,0.9-0.8l13.2,1c0.4,0,0.8,0.5,0.7,0.9
							l-1,9C38.1,170.1,37.7,170.4,37.3,170.4z"/>
					</g>
				</g>
			</g>
			<g>
				<g>
					<g>
						<polygon class="st5" points="38.8,164.8 24,163.7 24,163.4 38.8,164.6 						"/>
					</g>
				</g>
			</g>
			<g>
				<g>
					<g>
						<path class="st5" d="M27.5,164.6L27.5,164.6c-0.2,0-0.3-0.2-0.3-0.4l0.1-0.9c0-0.2,0.2-0.3,0.4-0.3l0,0c0.2,0,0.3,0.2,0.3,0.4
							l-0.1,0.9C27.8,164.5,27.7,164.6,27.5,164.6z"/>
					</g>
				</g>
			</g>
			<g>
				<g>
					<g>
						<path class="st5" d="M34.5,165.1L34.5,165.1c-0.2,0-0.3-0.2-0.3-0.4l0.1-0.9c0-0.2,0.2-0.3,0.4-0.3l0,0c0.2,0,0.3,0.2,0.3,0.4
							l-0.1,0.9C34.8,165,34.7,165.1,34.5,165.1z"/>
					</g>
				</g>
			</g>
			<g>
				<g>
					<g>
						<path class="st5" d="M34.2,159.3l-0.7-0.1l0.1-1.2c0-0.3,0-0.7-0.2-0.9c-0.1-0.1-0.2-0.2-0.3-0.2l-2.6-0.2
							c-0.4,0-0.7,0.4-0.8,1l-0.1,1.2l-0.7-0.1l0.1-1.2c0.1-1,0.8-1.8,1.6-1.7l2.6,0.2c0.3,0,0.6,0.2,0.9,0.5
							c0.3,0.4,0.4,0.9,0.4,1.5L34.2,159.3z"/>
					</g>
				</g>
			</g>
			<g>
				<g>
					<g>
						<path class="st5" d="M39.1,159.9c-0.1-0.2-0.4-0.3-0.6-0.4l-4.3-0.3l-0.8-0.1l-3.9-0.3l-0.8-0.1l-3.5-0.3c-0.5,0-1,0.4-1,0.9
							l-1,9c0,0.3,0,0.5,0.2,0.7c0.1,0.2,0.4,0.3,0.6,0.4l13.2,1c0.1,0,0.1,0,0.2,0c0.4-0.1,0.8-0.4,0.8-0.9l0.5-4.7l0-0.1l0,0
							l0.5-4.1C39.3,160.3,39.2,160.1,39.1,159.9z M39.1,160.6l-0.4,4l0,0.2l-0.5,4.7c0,0.4-0.4,0.7-0.8,0.7l-13.2-1
							c-0.2,0-0.4-0.1-0.5-0.3c-0.1-0.2-0.2-0.3-0.1-0.5l0.5-4.7l0-0.1l0-0.2l0.4-4c0-0.4,0.4-0.7,0.8-0.7l13.2,1
							c0.2,0,0.4,0.1,0.5,0.3C39,160.2,39.1,160.4,39.1,160.6z"/>
					</g>
				</g>
			</g>
		</g>
		<g>
			<g>
				<g>
					<g>
						<path class="st0" d="M33.6,156.9c0.6-2.5-1-3.7-1-3.7l-2.3-0.4c0,0-0.5,0.7-0.5,1.3c0.1,0.6,0.7,1.2,0.5,2
							c-0.3,1.3,1.3,1.7,1.5,2C32.1,158.6,33.1,158.8,33.6,156.9z"/>
					</g>
				</g>
				<g>
					<g>
						<path class="st8" d="M31.8,158c-0.1-0.1-0.2-0.2-0.4-0.3c0,0,0,0,0,0c0,0,0,0,0,0c0,0,0,0-0.1,0c0,0-0.1,0-0.1-0.1
							c0,0,0,0,0,0c0,0,0,0,0,0c-0.1-0.1-0.2-0.1-0.3-0.2c0,0,0,0,0,0c0,0,0,0,0,0c0,0,0,0,0,0c-0.2-0.2-0.4-0.5-0.5-0.8
							c0-0.1,0-0.3,0-0.4c0,0,0,0,0,0c0,0,0,0.1-0.1,0.2c0,0.1,0,0.2,0,0.3c0,0.1,0,0.2,0.1,0.3c0,0,0,0,0,0c0,0,0,0,0,0.1
							c0,0,0,0,0,0.1c0,0,0,0,0,0c0,0,0,0,0,0c0,0,0,0.1,0.1,0.1c0,0,0,0,0,0c0.1,0.1,0.1,0.2,0.2,0.3c0,0,0,0,0,0c0,0,0,0,0,0
							c0,0,0,0,0,0c0,0,0,0,0,0c0,0,0,0,0,0c0,0,0,0,0.1,0c0,0,0,0,0.1,0c0,0,0,0,0.1,0c0,0,0.1,0.1,0.1,0.1c0,0,0,0,0,0
							c0,0,0,0,0,0c0,0,0,0,0,0.1c0,0,0,0,0,0c0,0,0,0,0,0c0,0,0,0,0.1,0c0,0,0,0,0.1,0c0,0,0,0,0,0c0,0,0.1,0,0.1,0
							c0,0,0.1,0,0.1,0c0,0,0.1,0,0.1,0.1c0,0,0,0,0,0C31.7,158,31.7,158,31.8,158C31.8,158,31.8,158,31.8,158c0,0.1,0,0.1,0.1,0.2
							c0,0,0,0,0.1,0C31.9,158.1,31.9,158.1,31.8,158z M33.3,153.9c-0.3-0.5-0.6-0.8-0.6-0.8l0,0l-2.4-0.5l0,0c0,0-0.2,0.4-0.4,0.8
							c-0.1,0.2-0.1,0.4-0.1,0.6c0,0.3,0.1,0.5,0.3,0.8c0.1,0.3,0.3,0.6,0.3,0.9c0,0.1,0,0.2,0,0.3c0,0,0,0,0,0c0,0.1,0,0.1,0,0.2
							c0,0,0,0.1,0,0.1c0,0,0,0,0,0c0,0.1,0,0.1,0,0.2c0,0.4,0.2,0.7,0.5,0.9c0,0,0,0,0,0c0,0,0,0,0,0c0,0,0,0,0,0
							c0.1,0.1,0.2,0.2,0.4,0.3c0,0,0,0,0,0c0,0,0,0,0,0c0,0,0,0,0,0c0,0,0,0,0,0c0,0,0,0,0.1,0c0,0,0,0,0,0h0
							c0.2,0.1,0.3,0.2,0.4,0.3c0,0,0.1,0.1,0.1,0.1c0,0,0,0,0,0c0,0,0,0,0,0c0.2,0.1,0.4,0.2,0.6,0.2c0,0,0,0,0,0
							c0.3-0.1,0.6-0.4,0.7-0.7c0,0,0,0,0,0c0.2-0.3,0.3-0.6,0.3-0.9c0-0.1,0.1-0.3,0.1-0.4v0C33.9,155.3,33.6,154.5,33.3,153.9z
							 M33.6,156.4c0,0.2-0.1,0.3-0.1,0.5c-0.1,0.2-0.1,0.5-0.2,0.6c-0.3,0.7-0.6,0.8-0.8,0.9c-0.2,0-0.3,0-0.5-0.1c0,0,0,0,0,0
							c0,0,0,0,0,0c-0.1,0-0.1-0.1-0.1-0.1c-0.1-0.1-0.2-0.2-0.4-0.3c0,0,0,0,0,0c0,0,0,0,0,0c0,0,0,0-0.1,0c0,0-0.1,0-0.1-0.1
							c0,0,0,0,0,0c0,0,0,0,0,0c-0.1-0.1-0.2-0.1-0.3-0.2c0,0,0,0,0,0c0,0,0,0,0,0c0,0,0,0,0,0c-0.2-0.2-0.4-0.5-0.5-0.8
							c0-0.1,0-0.3,0-0.4c0,0,0,0,0,0c0-0.1,0-0.2,0-0.3c0-0.4-0.1-0.7-0.3-1c-0.1-0.2-0.2-0.5-0.2-0.7c0-0.2,0-0.4,0.1-0.6
							c0.1-0.3,0.3-0.6,0.4-0.7l2.3,0.4c0.1,0,0.3,0.3,0.6,0.7C33.5,154.5,33.8,155.3,33.6,156.4z M31.8,158
							c-0.1-0.1-0.2-0.2-0.4-0.3c0,0,0,0,0,0c0,0,0,0,0,0c0,0,0,0-0.1,0c0,0-0.1,0-0.1-0.1c0,0,0,0,0,0c0,0,0,0,0,0
							c-0.1-0.1-0.2-0.1-0.3-0.2c0,0,0,0,0,0c0,0,0,0,0,0c0,0,0,0,0,0c-0.2-0.2-0.4-0.5-0.5-0.8c0-0.1,0-0.3,0-0.4c0,0,0,0,0,0
							c0,0,0,0.1-0.1,0.2c0,0.1,0,0.2,0,0.3c0,0.1,0,0.2,0.1,0.3c0,0,0,0,0,0c0,0,0,0,0,0.1c0,0,0,0,0,0.1c0,0,0,0,0,0c0,0,0,0,0,0
							c0,0,0,0.1,0.1,0.1c0,0,0,0,0,0c0.1,0.1,0.1,0.2,0.2,0.3c0,0,0,0,0,0c0,0,0,0,0,0c0,0,0,0,0,0c0,0,0,0,0,0c0,0,0,0,0,0
							c0,0,0,0,0.1,0c0,0,0,0,0.1,0c0,0,0,0,0.1,0c0,0,0.1,0.1,0.1,0.1c0,0,0,0,0,0c0,0,0,0,0,0c0,0,0,0,0,0.1c0,0,0,0,0,0
							c0,0,0,0,0,0c0,0,0,0,0.1,0c0,0,0,0,0.1,0c0,0,0,0,0,0c0,0,0.1,0,0.1,0c0,0,0.1,0,0.1,0c0,0,0.1,0,0.1,0.1c0,0,0,0,0,0
							C31.7,158,31.7,158,31.8,158C31.8,158,31.8,158,31.8,158c0,0.1,0,0.1,0.1,0.2c0,0,0,0,0.1,0C31.9,158.1,31.9,158.1,31.8,158z"
							/>
					</g>
				</g>
			</g>
			<g>
				<g>
					<g>
						<path class="st0" d="M32.9,156.5c0,0-0.5,1.9-1.2,1.8c-0.7-0.1-0.6-0.5-0.4-0.8L32.9,156.5z"/>
					</g>
				</g>
				<g>
					<g>
						<path class="st8" d="M31.9,158.3c-0.1,0-0.1,0-0.2,0c-0.3,0-0.5-0.1-0.6-0.3c-0.1-0.1,0-0.3,0.1-0.5c0,0,0,0,0.1,0
							c0,0,0,0,0,0.1c-0.1,0.2-0.1,0.3-0.1,0.4c0.1,0.1,0.2,0.2,0.5,0.2c0.5,0.1,1-1.2,1.1-1.8c0,0,0,0,0.1,0c0,0,0,0,0,0.1
							C32.9,156.6,32.5,158.2,31.9,158.3z"/>
					</g>
				</g>
			</g>
			<g>
				<g>
					<g>
						<path class="st0" d="M32.1,156.3c0,0-0.3,1.6-1.1,1.7c-0.4,0-0.7-0.2-0.7-0.2L32.1,156.3z"/>
					</g>
				</g>
				<g>
					<g>
						<path class="st8" d="M31.1,157.9c0,0-0.1,0-0.1,0c-0.4,0-0.7-0.2-0.8-0.3c0,0,0-0.1,0-0.1c0,0,0.1,0,0.1,0
							c0,0,0.3,0.3,0.7,0.2c0.8-0.1,1.1-1.6,1.1-1.6c0,0,0,0,0.1,0c0,0,0,0,0,0.1c0,0-0.1,0.4-0.3,0.8
							C31.7,157.6,31.4,157.9,31.1,157.9z"/>
					</g>
				</g>
			</g>
			<g>
				<g>
					<g>
						<path class="st0" d="M31.4,156.1c-0.1,0.5-0.7,1.8-1.3,1.6c-0.6-0.2-0.4-0.6-0.3-0.8c0.1-0.2,0.4-0.5,0.5-0.8L31.4,156.1z"/>
					</g>
				</g>
				<g>
					<g>
						<path class="st8" d="M30.4,157.7c-0.1,0-0.2,0-0.3,0c-0.2-0.1-0.4-0.2-0.4-0.4c-0.1-0.2,0-0.5,0.1-0.6
							c0.1-0.1,0.1-0.2,0.2-0.3c0.1-0.1,0.2-0.3,0.3-0.4c0,0,0,0,0.1,0c0,0,0,0,0,0.1c-0.1,0.1-0.2,0.3-0.3,0.4
							c-0.1,0.1-0.2,0.2-0.2,0.3c-0.1,0.1-0.2,0.3-0.1,0.5c0,0.1,0.2,0.2,0.4,0.3c0.1,0,0.2,0,0.4-0.1c0.4-0.3,0.8-1.1,0.8-1.5
							c0,0,0-0.1,0.1,0c0,0,0,0,0,0.1c0,0.4-0.4,1.2-0.9,1.5C30.5,157.7,30.4,157.7,30.4,157.7z"/>
					</g>
				</g>
			</g>
		</g>
		<g>
			<path class="st1" d="M44,126.8c0,0-12-0.2-14.8,26.7c0,0,1.1,1.6,5,0.9c0,0,3.4-15,7.6-17.8C44.8,134.4,44,126.8,44,126.8z"/>
		</g>
		<g>
			<path class="st7" d="M43.8,125.6c0,0,1.1,1.2,1.7,1.3c0.8,0.1,0.2,0.4,0,1.3c-0.2,0.9-0.3,1.3-0.7,1.4c-0.4,0-3.2-1.2-3.2-2.1
				C41.7,126.6,43.5,125.2,43.8,125.6z"/>
		</g>
		<g>
			<path class="st1" d="M45.7,160.9C45.7,160.9,45.7,160.9,45.7,160.9c-0.1,0-0.2-0.1-0.2-0.2c0.3-2.8,2.2-4.7,2.2-4.7
				c0.1-0.1,0.2-0.1,0.3,0c0.1,0.1,0.1,0.2,0,0.3c0,0-1.9,1.8-2.1,4.5C45.9,160.8,45.8,160.9,45.7,160.9z"/>
		</g>
		<g>
			<path class="st1" d="M46.9,122.9c-0.3,0-0.5,0-0.5,0c0,0-0.1,0-0.1-0.1c0,0,0-0.1,0.1-0.1c0,0,1,0.2,1.4-0.2c0,0,0.1,0,0.1,0
				c0,0,0,0.1,0,0.1C47.6,122.9,47.2,122.9,46.9,122.9z"/>
		</g>
	</g>
	<g>
		<g>
			<g>
				<g>
					<path class="st1" d="M153.1,148.8l-1-0.2c-0.2,0-0.3-0.2-0.3-0.4c0-0.5-0.1-1.1-0.2-1.6c0-0.2,0.1-0.4,0.3-0.5l0.9-0.4
						c0.2-0.1,0.3-0.3,0.2-0.6l-0.6-1.4c-0.1-0.2-0.3-0.3-0.6-0.2l-1,0.4c-0.2,0.1-0.4,0-0.5-0.2c-0.1-0.1-0.2-0.3-0.3-0.4
						c-0.1-0.2-0.1-0.4,0-0.5l0.7-0.8c0.2-0.2,0.1-0.5,0-0.6l-1.1-1c-0.2-0.2-0.5-0.1-0.6,0l-0.7,0.8c-0.1,0.2-0.4,0.2-0.5,0.1
						c-0.3-0.2-0.6-0.3-0.9-0.4c-0.2-0.1-0.3-0.3-0.3-0.5l0.2-1.1c0-0.2-0.1-0.5-0.3-0.5l-1.5-0.3c-0.2,0-0.5,0.1-0.5,0.3l-0.2,1.1
						c0,0.2-0.2,0.3-0.4,0.3c-0.4,0-0.8,0-1.2,0.1c-0.2,0-0.4-0.1-0.5-0.3l-0.4-1c-0.1-0.2-0.3-0.3-0.6-0.3l-1.4,0.5
						c-0.2,0.1-0.3,0.3-0.3,0.6l0.4,1c0.1,0.2,0,0.4-0.2,0.5c-0.3,0.2-0.6,0.4-0.8,0.6c-0.2,0.1-0.4,0.1-0.5,0l-0.8-0.7
						c-0.2-0.2-0.5-0.1-0.6,0.1l-1,1.1c-0.2,0.2-0.1,0.5,0.1,0.6l0.8,0.7c0.2,0.1,0.2,0.4,0.1,0.5c-0.1,0.3-0.3,0.5-0.4,0.8
						c-0.1,0.2-0.3,0.3-0.5,0.3l-1-0.2c-0.2,0-0.5,0.1-0.5,0.3l-0.3,1.5c0,0.2,0.1,0.5,0.3,0.5l0.9,0.2c0.2,0,0.4,0.2,0.3,0.4
						c0,0.5,0,1.1,0.1,1.6c0,0.2-0.1,0.4-0.3,0.5l-0.8,0.4c-0.2,0.1-0.3,0.3-0.2,0.6l0.6,1.4c0.1,0.2,0.3,0.3,0.6,0.2l0.8-0.3
						c0.2-0.1,0.4,0,0.5,0.2c0.1,0.2,0.2,0.4,0.4,0.5c0.1,0.2,0.1,0.4,0,0.5l-0.6,0.7c-0.2,0.2-0.1,0.5,0,0.6l1.1,1
						c0.2,0.2,0.5,0.1,0.6,0l0.6-0.7c0.1-0.2,0.4-0.2,0.5-0.1c0.3,0.2,0.6,0.3,0.9,0.5c0.2,0.1,0.3,0.3,0.3,0.5l-0.2,0.8
						c0,0.2,0.1,0.5,0.3,0.5l1.5,0.3c0.2,0,0.5-0.1,0.5-0.3l0.2-0.8c0-0.2,0.2-0.3,0.4-0.3c0.4,0,0.8,0,1.3-0.1
						c0.2,0,0.4,0.1,0.5,0.3l0.3,0.8c0.1,0.2,0.3,0.3,0.6,0.3l1.4-0.5c0.2-0.1,0.3-0.3,0.3-0.6l-0.3-0.8c-0.1-0.2,0-0.4,0.2-0.5
						c0.3-0.2,0.6-0.4,0.9-0.6c0.2-0.1,0.4-0.1,0.5,0l0.7,0.6c0.2,0.2,0.5,0.1,0.6-0.1l1-1.1c0.2-0.2,0.1-0.5-0.1-0.6l-0.7-0.6
						c-0.2-0.1-0.2-0.4-0.1-0.5c0.2-0.3,0.3-0.6,0.4-0.9c0.1-0.2,0.3-0.3,0.5-0.3l0.9,0.2c0.2,0,0.5-0.1,0.5-0.3l0.3-1.5
						C153.5,149.1,153.4,148.8,153.1,148.8z M149.1,149.2c-0.6,2.9-3.3,4.7-6.2,4.2c-2.9-0.6-4.7-3.3-4.2-6.2
						c0.6-2.9,3.3-4.7,6.2-4.2C147.8,143.6,149.7,146.3,149.1,149.2z"/>
				</g>
			</g>
		</g>
		<g>
			<g>
				<g>
					<g>
						<g>
							<path class="st5" d="M181.2,68.2l6.8,0.6l1.8,2.1l-0.8,1.4L181.2,68.2z M187.9,69l-5.7-0.5l6.7,3.6l0.6-1.1L187.9,69z"/>
						</g>
					</g>
					<g>
						<g>
							<polygon class="st2" points="181,68.2 191,68.9 197.6,73.4 							"/>
						</g>
					</g>
					<g>
						<g>
							<polygon class="st2" points="189.1,67 181,68.2 189.5,62.7 							"/>
						</g>
					</g>
					<g>
						<g>
							<polygon class="st5" points="189.1,67 188.1,68.7 181,68.2 							"/>
						</g>
					</g>
				</g>
			</g>
			<g>
				<g>
					<path class="st1" d="M194.2,67.4c5.3-1.8,11.7,0,15.1,4.5c1,1.3,1.7,3,1.5,4.7c-0.1,0.7-0.5,1.6-1.2,1.7c-0.3,0.1-0.8,0-1-0.2
						c-0.4-0.4-0.2-1.1,0.1-1.6c0.7-1.3,2.4-1.8,3.8-1.4c1.5,0.3,2.8,1.4,3.8,2.6c2.4,3,2.8,6.9,2.5,10.6c0,0.2,0.3,0.2,0.3,0
						c0.3-3.7-0.1-7.8-2.6-10.8c-1.1-1.3-2.5-2.5-4.2-2.8c-1.4-0.2-2.9,0.2-3.8,1.4c-0.4,0.5-0.7,1.3-0.3,1.9
						c0.3,0.5,0.8,0.6,1.3,0.6c1.5-0.2,1.8-2.3,1.6-3.5c-0.4-3.3-3.5-6-6.3-7.3c-3.3-1.6-7.1-1.9-10.6-0.8
						C193.9,67.2,194,67.5,194.2,67.4L194.2,67.4z"/>
				</g>
			</g>
		</g>
		<g>
			<g>
				<path class="st1" d="M138.6,113.5c-0.5,0-0.9-0.2-1.2-0.6c-0.5-0.7-0.3-1.6,0.4-2l11-7.6l-13.6-29.8l-37.5-1.4l-2.8,13.4
					c-0.2,0.8-0.9,1.3-1.7,1.1c-0.8-0.2-1.3-0.9-1.1-1.7l3.1-14.6c0.1-0.7,0.8-1.2,1.5-1.2l39.6,1.4c0.6,0,1,0.3,1.3,0.9l14.5,31.7
					c0.3,0.6,0.1,1.4-0.5,1.8l-12,8.3C139.1,113.4,138.9,113.5,138.6,113.5z"/>
			</g>
			<g>
				<path class="st1" d="M164,84.4c-2.4,0-4.8-0.2-7.2-0.6c-4.1-0.7-8.3-1.9-12.4-3.6c-6.9-3-11.3-6.5-11.4-6.5l0.4-0.5
					c0,0,4.4,3.5,11.2,6.4c4,1.7,8.1,2.9,12.2,3.6C162,84,167,83.9,171.9,83l0.1,0.6C169.4,84.1,166.7,84.4,164,84.4z"/>
			</g>
			<g>
				<circle class="st1" cx="200.9" cy="149.4" r="9.9"/>
			</g>
			<g>
				<circle class="st1" cx="201.3" cy="152.9" r="1.7"/>
			</g>
			<g>
				<path class="st1" d="M193.7,152.2c-3.8,0-6.6-1-8.6-3c-3-3.1-3.9-8.6-2.7-16.8c1.4-9.8-1.1-14.5-3.9-20c-1.5-2.9-3.1-6-4.3-10.1
					c-1.5-5.1-1.5-8.9,0-11.3c1-1.7,2.4-1.9,2.5-1.9l0.1,0.6l-0.1-0.3l0.1,0.3c0,0-1.2,0.2-2.1,1.7c-1.7,2.7-0.9,7.4,0.1,10.8
					c1.2,4.1,2.7,7.1,4.3,10c2.9,5.6,5.4,10.4,4,20.3c-1.2,8-0.3,13.3,2.5,16.3c2.3,2.3,5.8,3.2,10.9,2.7l0.1,0.6
					C195.5,152.2,194.6,152.2,193.7,152.2z"/>
			</g>
			<g>
				<g>
					<path class="st0" d="M180.9,80.1l-0.4,2.1c-0.3,1.6-1.9,2.7-3.6,2.3l-41.6-9.5c-1.6-0.4-2.6-1.9-2.3-3.5l0,0
						c0.3-1.6,1.8-2.6,3.4-2.3l42.1,7.4C180.2,76.8,181.3,78.4,180.9,80.1z"/>
					<path class="st1" d="M177.6,84.8c-0.2,0-0.5,0-0.7-0.1l-41.6-9.5c-1.7-0.4-2.8-2.1-2.5-3.8c0.4-1.8,2-2.9,3.8-2.6l42.1,7.4
						c0.9,0.2,1.6,0.6,2.1,1.4c0.5,0.7,0.7,1.6,0.5,2.5l-0.4,2.1c-0.2,0.9-0.7,1.6-1.4,2.1C178.8,84.6,178.2,84.8,177.6,84.8z
						 M135.9,69.3c-1.3,0-2.4,0.9-2.6,2.1c-0.3,1.4,0.6,2.8,2,3.1l41.6,9.5c0.7,0.2,1.4,0,2-0.4c0.6-0.4,1-1,1.2-1.7l0.4-2.1
						c0.1-0.7,0-1.4-0.4-2s-1-1-1.7-1.1l-42.1-7.4C136.3,69.4,136.1,69.3,135.9,69.3z"/>
				</g>
				<g>
					<circle class="st0" cx="178" cy="80.6" r="1.4"/>
					<path class="st1" d="M178.1,82.1c-0.5,0-1-0.2-1.3-0.7l0,0c-0.5-0.7-0.3-1.6,0.4-2.1c0.7-0.5,1.6-0.3,2.1,0.4
						c0.5,0.7,0.3,1.6-0.4,2.1C178.6,82,178.3,82.1,178.1,82.1z M177,81.3c0.4,0.6,1.2,0.7,1.8,0.4c0.6-0.4,0.7-1.2,0.4-1.8
						c-0.4-0.6-1.2-0.7-1.8-0.4C176.8,79.9,176.6,80.7,177,81.3L177,81.3z"/>
				</g>
				<g>
					<path class="st1" d="M174.9,80.5c-0.3-0.1-0.5-0.4-0.4-0.7c0.1-0.3,0.4-0.5,0.7-0.4c0.3,0.1,0.5,0.4,0.4,0.7
						C175.5,80.4,175.2,80.6,174.9,80.5z"/>
				</g>
				<g>
					<circle class="st0" cx="136.1" cy="72" r="1.4"/>
					<path class="st1" d="M136.1,73.5c-0.1,0-0.2,0-0.3,0c-0.8-0.2-1.3-1-1.2-1.8c0.1-0.4,0.3-0.7,0.6-1c0.3-0.2,0.7-0.3,1.1-0.2
						l0,0c0.8,0.2,1.3,1,1.2,1.8c-0.1,0.4-0.3,0.7-0.6,1C136.7,73.4,136.4,73.5,136.1,73.5z M136.1,70.7c-0.2,0-0.5,0.1-0.7,0.2
						c-0.3,0.2-0.5,0.5-0.5,0.8c-0.1,0.7,0.3,1.4,1,1.5c0.3,0.1,0.7,0,1-0.2c0.3-0.2,0.5-0.5,0.5-0.8c0.1-0.7-0.3-1.4-1-1.5
						C136.3,70.8,136.2,70.7,136.1,70.7z"/>
				</g>
				<g>
					<path class="st1" d="M139.3,72.1c0.3,0.1,0.5,0.4,0.4,0.7c-0.1,0.3-0.4,0.5-0.7,0.4c-0.3-0.1-0.5-0.4-0.4-0.7
						C138.6,72.2,138.9,72,139.3,72.1z"/>
				</g>
			</g>
			<g>
				<g>
					<path class="st0" d="M205.5,156.2l-3.5,1.2c-2.7,0.9-5.7-0.5-6.6-3.3l-22.6-70c-0.9-2.6,0.6-5.5,3.2-6.4l0,0
						c2.6-0.9,5.5,0.4,6.5,3l26.1,68.8C209.7,152.2,208.3,155.2,205.5,156.2z"/>
					<path class="st1" d="M200.4,158c-0.8,0-1.7-0.2-2.4-0.6c-1.3-0.7-2.3-1.8-2.7-3.2l-22.6-70c-0.4-1.4-0.3-2.8,0.3-4.1
						c0.6-1.3,1.7-2.2,3.1-2.7c1.3-0.5,2.8-0.4,4.1,0.2c1.3,0.6,2.3,1.7,2.8,3l26.1,68.8c0.5,1.4,0.5,2.9-0.2,4.2
						c-0.6,1.3-1.7,2.3-3.1,2.8l-3.5,1.2C201.6,157.9,201,158,200.4,158z M177.8,77.7c-0.5,0-1.1,0.1-1.6,0.3
						c-1.2,0.4-2.2,1.3-2.7,2.4c-0.6,1.1-0.7,2.4-0.3,3.6l22.6,70c0.4,1.2,1.3,2.3,2.4,2.8c1.2,0.6,2.5,0.7,3.7,0.2l3.5-1.2
						c1.2-0.4,2.2-1.3,2.8-2.5c0.6-1.2,0.6-2.5,0.1-3.7l-26.1-68.8C181.6,78.9,179.8,77.7,177.8,77.7z"/>
				</g>
				<g>
					<ellipse class="st0" cx="202.3" cy="152.4" rx="2.4" ry="2.4"/>
					<path class="st1" d="M202.3,155c-0.4,0-0.8-0.1-1.1-0.3c-0.6-0.3-1.1-0.8-1.3-1.5c-0.2-0.7-0.2-1.4,0.1-2
						c0.6-1.3,2.2-1.8,3.5-1.2c0.6,0.3,1.1,0.8,1.3,1.5c0.2,0.7,0.2,1.4-0.1,2C204.1,154.4,203.2,155,202.3,155z M202.3,150.2
						c-0.8,0-1.6,0.5-2,1.2l0,0c-0.3,0.5-0.3,1.1-0.1,1.7c0.2,0.6,0.6,1,1.1,1.3c1.1,0.5,2.4,0.1,2.9-1c0.3-0.5,0.3-1.1,0.1-1.7
						c-0.2-0.6-0.6-1-1.1-1.3C202.9,150.2,202.6,150.2,202.3,150.2z"/>
				</g>
				<g>
					<path class="st1" d="M199.6,147.6c-0.2-0.5,0.1-1.1,0.6-1.2c0.5-0.2,1.1,0.1,1.3,0.6c0.2,0.5-0.1,1.1-0.6,1.2
						C200.3,148.4,199.7,148.1,199.6,147.6z"/>
				</g>
				<g>
					<ellipse class="st0" cx="177.9" cy="82.8" rx="2.4" ry="2.4"/>
					<path class="st1" d="M177.9,85.4c-1.1,0-2.1-0.7-2.5-1.7c-0.2-0.7-0.2-1.4,0.1-2c0.3-0.6,0.8-1.1,1.5-1.3
						c1.4-0.5,2.8,0.2,3.3,1.6l0,0c0.2,0.7,0.2,1.4-0.1,2c-0.3,0.6-0.8,1.1-1.5,1.3C178.5,85.3,178.2,85.4,177.9,85.4z M177.9,80.6
						c-0.2,0-0.5,0-0.7,0.1c-0.6,0.2-1,0.6-1.3,1.1c-0.3,0.5-0.3,1.1-0.1,1.7c0.4,1.1,1.7,1.7,2.8,1.3c0.6-0.2,1-0.6,1.3-1.1
						c0.3-0.5,0.3-1.1,0.1-1.7l0,0C179.7,81.1,178.8,80.6,177.9,80.6z"/>
				</g>
				<g>
					<path class="st1" d="M181.6,90.3c0.2,0.5-0.1,1.1-0.6,1.2c-0.5,0.2-1.1-0.1-1.3-0.6c-0.2-0.5,0.1-1.1,0.6-1.2
						C180.9,89.6,181.4,89.8,181.6,90.3z"/>
				</g>
			</g>
			<g>
				<path class="st0" d="M188.3,181.2l-2.7-1.6c-3.8-2.2-4.8-7.3-2.2-10.8l12.1-16.7c2.3-3.1,6.5-4,9.9-2l0,0c3.4,2,4.6,6.3,2.8,9.8
					l-9.4,18.3C196.8,182,192,183.4,188.3,181.2z"/>
				<path class="st1" d="M192.1,182.6c-1.4,0-2.7-0.4-4-1.1l-2.7-1.6c-1.9-1.1-3.2-3-3.7-5.1c-0.4-2.1,0-4.4,1.3-6.1l12.1-16.7
					c1.1-1.6,2.8-2.7,4.7-3.1c1.9-0.4,3.9-0.1,5.6,0.9c3.5,2.1,4.8,6.6,3,10.3l-9.4,18.3c-1,1.9-2.7,3.3-4.8,3.9
					C193.5,182.4,192.8,182.6,192.1,182.6z M188.4,180.9c1.7,1,3.7,1.3,5.6,0.7c1.9-0.6,3.5-1.8,4.4-3.6l9.4-18.3
					c1.7-3.4,0.5-7.5-2.7-9.4c-1.5-0.9-3.4-1.2-5.1-0.9c-1.8,0.4-3.3,1.4-4.4,2.8L183.6,169c-1.2,1.6-1.6,3.7-1.2,5.7
					c0.4,2,1.6,3.7,3.4,4.7L188.4,180.9z"/>
			</g>
			<g>
				<g>
					<path class="st0" d="M224.3,208.7h-84.3l0,0c0-4.4,3.6-8,8-8h76.4V208.7z"/>
					<path class="st1" d="M224.6,209h-85v-0.3c0-4.6,3.7-8.3,8.3-8.3h76.7V209z M140.2,208.4l83.7,0V201h-76
						C143.8,201,140.4,204.3,140.2,208.4z"/>
				</g>
				<g>
					<path class="st1" d="M218.5,200.7h-63.2v-20.4c0-5.8,4.7-10.5,10.5-10.5h43.3c5.2,0,9.5,4.2,9.5,9.5V200.7z"/>
				</g>
				<g>
					<circle class="st2" cx="165.6" cy="177.9" r="2.4"/>
				</g>
				<g>
					<circle class="st2" cx="209" cy="177.9" r="2.4"/>
				</g>
				<g>
					<circle class="st9" cx="175.2" cy="177.9" r="2.4"/>
				</g>
			</g>
			<g>
				<circle class="st2" cx="201.3" cy="154.9" r="3.6"/>
			</g>
		</g>
		<g>
			<g>
				<g>
					<path class="st2" d="M139,106.5c-0.1-0.9-0.9-1.5-1.8-1.4l-3.9,0.6c-0.8,0.1-1.5-0.3-1.7-1.1c-0.2-0.6-0.5-1.3-0.7-1.9
						c-0.3-0.7-0.1-1.6,0.6-2l3.2-2.3c0.7-0.5,0.9-1.6,0.4-2.3l-3.1-4.6c-0.5-0.7-1.5-0.9-2.2-0.4l-3.3,2.3c-0.6,0.5-1.5,0.4-2-0.1
						c-0.8-0.8-1.7-1.6-2.7-2.3c-0.6-0.5-0.8-1.3-0.4-2l1.8-3.8c0.4-0.8,0.1-1.8-0.7-2.2l-4.9-2.4c-0.8-0.4-1.8,0-2.2,0.8l-1.8,3.8
						c-0.3,0.7-1.1,1.1-1.9,0.9c-1.4-0.4-2.9-0.6-4.4-0.8c-0.8-0.1-1.3-0.7-1.4-1.5l-0.3-4.1c-0.1-0.9-0.8-1.6-1.7-1.5l-5.5,0.6
						c-0.9,0.1-1.6,0.9-1.5,1.8l0.3,4c0.1,0.8-0.4,1.5-1.2,1.8c-1.2,0.4-2.3,0.8-3.5,1.3c-0.7,0.3-1.5,0.1-1.9-0.6l-2.2-3.3
						c-0.5-0.7-1.5-0.9-2.2-0.4l-4.6,3.3c-0.7,0.5-0.9,1.6-0.4,2.3l2.2,3.2c0.4,0.6,0.4,1.5-0.2,2.1c-0.8,0.8-1.5,1.7-2.2,2.6
						c-0.5,0.6-1.3,0.8-2,0.5l-3.3-1.6c-0.8-0.4-1.8,0-2.2,0.8l-2.5,5.2c-0.4,0.8-0.1,1.8,0.7,2.2l3.1,1.5c0.7,0.3,1,1.1,0.8,1.9
						c-0.6,2-0.9,4-1.1,5.9c-0.1,0.8-0.7,1.4-1.4,1.5l-3.4,0.5c-0.9,0.1-1.5,1-1.4,1.9l0.7,5.6c0.1,0.9,0.9,1.5,1.8,1.4l3.2-0.5
						c0.8-0.1,1.5,0.3,1.7,1.1c0.2,0.8,0.5,1.6,0.8,2.4c0.3,0.7,0,1.6-0.6,2l-2.7,2c-0.7,0.5-0.9,1.6-0.4,2.3l3.1,4.7
						c0.5,0.8,1.5,0.9,2.2,0.4l2.7-1.9c0.6-0.5,1.5-0.4,2,0.1c0.9,0.9,1.9,1.8,2.9,2.6c0.6,0.5,0.8,1.3,0.5,2l-1.4,2.9
						c-0.4,0.8-0.1,1.8,0.7,2.2l4.9,2.4c0.8,0.4,1.8,0,2.2-0.8l1.4-2.9c0.3-0.7,1.1-1.1,1.9-0.9c1.5,0.4,3.1,0.7,4.6,0.8
						c0.8,0.1,1.4,0.7,1.4,1.5l0.3,3.3c0.1,0.9,0.8,1.6,1.7,1.5l5.5-0.6c0.9-0.1,1.5-0.9,1.5-1.8l-0.3-3.3c-0.1-0.8,0.4-1.5,1.2-1.8
						c1.3-0.4,2.5-0.9,3.7-1.5c0.7-0.3,1.5-0.1,2,0.5l1.8,2.7c0.5,0.7,1.5,0.9,2.2,0.4l4.6-3.3c0.7-0.5,0.9-1.6,0.4-2.3l-1.9-2.8
						c-0.4-0.6-0.4-1.5,0.2-2.1c0.8-0.9,1.6-1.9,2.3-2.9c0.5-0.6,1.3-0.9,2-0.5l3.1,1.5c0.8,0.4,1.8,0,2.2-0.8l2.5-5.2
						c0.4-0.8,0.1-1.8-0.7-2.2L133,124c-0.7-0.3-1-1.1-0.8-1.9c0.5-2,0.8-4,0.9-6c0-0.8,0.6-1.5,1.4-1.6l3.7-0.6
						c0.9-0.1,1.5-1,1.4-1.9L139,106.5z M94.4,134.8c-10.6-5.2-14.9-18.4-9.5-29.4c5.3-11.1,18.2-15.8,28.8-10.6
						c10.6,5.2,14.9,18.4,9.5,29.4C117.9,135.2,105,140,94.4,134.8z"/>
				</g>
				<g>
					<path class="st2" d="M113.5,88.9c-13.7-5-29,2.5-34.2,16.8c-5.2,14.3,1.7,29.9,15.4,34.9c13.7,5,29-2.5,34.2-16.8
						C134.1,109.5,127.2,93.9,113.5,88.9z M123.2,124.2c-5.3,11.1-18.2,15.8-28.8,10.6c-10.6-5.2-14.9-18.4-9.5-29.4
						c5.3-11.1,18.2-15.8,28.8-10.6C124.3,99.9,128.5,113.1,123.2,124.2z"/>
				</g>
			</g>
			<g>
				<path class="st0" d="M142.1,106.2c-0.1-0.9-0.9-1.5-1.8-1.4l-3.9,0.6c-0.8,0.1-1.5-0.3-1.7-1.1c-0.2-0.6-0.5-1.3-0.7-1.9
					c-0.3-0.7-0.1-1.6,0.6-2l3.2-2.3c0.7-0.5,0.9-1.6,0.4-2.3l-3.1-4.6c-0.5-0.7-1.5-0.9-2.2-0.4l-3.3,2.3c-0.6,0.5-1.5,0.4-2-0.1
					c-0.8-0.8-1.7-1.6-2.7-2.3c-0.6-0.5-0.8-1.3-0.4-2l1.8-3.8c0.4-0.8,0.1-1.8-0.7-2.2l-4.9-2.4c-0.8-0.4-1.8,0-2.2,0.8l-1.8,3.8
					c-0.3,0.7-1.1,1.1-1.9,0.9c-1.4-0.4-2.9-0.6-4.4-0.8c-0.8-0.1-1.3-0.7-1.4-1.5l-0.3-4.1c-0.1-0.9-0.8-1.6-1.7-1.5l-5.5,0.6
					c-0.9,0.1-1.6,0.9-1.5,1.8l0.3,4c0.1,0.8-0.4,1.5-1.2,1.8c-1.2,0.4-2.3,0.8-3.5,1.3c-0.7,0.3-1.5,0.1-1.9-0.6l-2.2-3.3
					c-0.5-0.7-1.5-0.9-2.2-0.4l-4.6,3.3c-0.7,0.5-0.9,1.6-0.4,2.3l2.2,3.2c0.4,0.6,0.4,1.5-0.2,2.1c-0.8,0.8-1.5,1.7-2.2,2.6
					c-0.5,0.6-1.3,0.8-2,0.5l-3.3-1.6c-0.8-0.4-1.8,0-2.2,0.8l-2.5,5.2c-0.4,0.8-0.1,1.8,0.7,2.2l3.1,1.5c0.7,0.3,1,1.1,0.8,1.9
					c-0.6,2-0.9,4-1.1,5.9c-0.1,0.8-0.7,1.4-1.4,1.5l-3.4,0.5c-0.9,0.1-1.5,1-1.4,1.9l0.7,5.6c0.1,0.9,0.9,1.5,1.8,1.4l3.2-0.5
					c0.8-0.1,1.5,0.3,1.7,1.1c0.2,0.8,0.5,1.6,0.8,2.4c0.3,0.7,0,1.6-0.6,2l-2.7,2c-0.7,0.5-0.9,1.6-0.4,2.3l3.1,4.7
					c0.5,0.8,1.5,0.9,2.2,0.4l2.7-1.9c0.6-0.5,1.5-0.4,2,0.1c0.9,0.9,1.9,1.8,2.9,2.6c0.6,0.5,0.8,1.3,0.5,2l-1.4,2.9
					c-0.4,0.8-0.1,1.8,0.7,2.2l4.9,2.4c0.8,0.4,1.8,0,2.2-0.8l1.4-2.9c0.3-0.7,1.1-1.1,1.9-0.9c1.5,0.4,3.1,0.7,4.6,0.8
					c0.8,0.1,1.4,0.7,1.4,1.5l0.3,3.3c0.1,0.9,0.8,1.6,1.7,1.5l5.5-0.6c0.9-0.1,1.5-0.9,1.5-1.8l-0.3-3.3c-0.1-0.8,0.4-1.5,1.2-1.8
					c1.3-0.4,2.5-0.9,3.7-1.5c0.7-0.3,1.5-0.1,2,0.5l1.8,2.7c0.5,0.7,1.5,0.9,2.2,0.4l4.6-3.3c0.7-0.5,0.9-1.6,0.4-2.3l-1.9-2.8
					c-0.4-0.6-0.4-1.5,0.2-2.1c0.8-0.9,1.6-1.9,2.3-2.9c0.5-0.6,1.3-0.9,2-0.5l3.1,1.5c0.8,0.4,1.8,0,2.2-0.8l2.5-5.2
					c0.4-0.8,0.1-1.8-0.7-2.2l-3.3-1.6c-0.7-0.3-1-1.1-0.8-1.9c0.5-2,0.8-4,0.9-6c0-0.8,0.6-1.5,1.4-1.6l3.7-0.6
					c0.9-0.1,1.5-1,1.4-1.9L142.1,106.2z M97.6,134.5C87,129.3,82.7,116.1,88,105c5.3-11.1,18.2-15.8,28.8-10.6
					c10.6,5.2,14.9,18.4,9.5,29.4C121,134.9,108.2,139.7,97.6,134.5z"/>
				<path class="st3" d="M107,151.4c-0.4,0-0.8-0.1-1.1-0.4c-0.4-0.3-0.6-0.8-0.6-1.2l-0.3-3.3c-0.1-0.7-0.6-1.3-1.3-1.3
					c-1.6-0.1-3.1-0.4-4.6-0.8c-0.7-0.2-1.4,0.2-1.7,0.8l-1.4,2.9c-0.2,0.5-0.6,0.8-1.1,1c-0.4,0.2-0.9,0.1-1.3-0.1l-4.9-2.4
					c-0.9-0.4-1.2-1.5-0.8-2.4l1.4-2.9c0.3-0.6,0.1-1.4-0.4-1.8c-1.1-0.8-2-1.7-2.9-2.6c-0.5-0.5-1.2-0.5-1.8-0.1l-2.7,1.9
					c-0.4,0.3-0.9,0.4-1.4,0.3c-0.5-0.1-0.9-0.4-1.1-0.7l-3.1-4.7c-0.5-0.8-0.3-2,0.5-2.5l2.7-2c0.6-0.4,0.8-1.2,0.5-1.8
					c-0.3-0.8-0.6-1.6-0.8-2.4c-0.2-0.7-0.9-1.1-1.5-1l-3.2,0.5c-0.5,0.1-0.9,0-1.3-0.3c-0.4-0.3-0.6-0.7-0.7-1.2l-0.7-5.6
					c-0.1-1,0.6-1.9,1.5-2.1l3.4-0.5c0.7-0.1,1.2-0.7,1.3-1.4c0.2-2,0.5-4,1.1-6c0.2-0.7-0.1-1.4-0.7-1.7l-3.1-1.5
					c-0.9-0.4-1.2-1.5-0.8-2.4l2.5-5.2c0.2-0.5,0.6-0.8,1.1-1c0.4-0.2,0.9-0.1,1.3,0.1l3.3,1.6c0.6,0.3,1.4,0.1,1.8-0.4
					c0.7-0.9,1.4-1.8,2.2-2.7c0.5-0.5,0.6-1.3,0.2-1.9l-2.2-3.2c-0.5-0.8-0.3-2,0.5-2.5l4.6-3.3c0.4-0.3,0.9-0.4,1.3-0.3
					c0.5,0.1,0.9,0.3,1.1,0.7l2.2,3.3c0.4,0.6,1.1,0.8,1.7,0.5c1.1-0.5,2.3-1,3.5-1.3c0.7-0.2,1.1-0.9,1.1-1.6l-0.3-4
					c-0.1-1,0.7-1.9,1.6-2l5.5-0.6c0.5-0.1,0.9,0.1,1.3,0.4c0.4,0.3,0.6,0.8,0.6,1.2l0.3,4.1c0.1,0.7,0.6,1.3,1.3,1.3
					c1.4,0.1,2.9,0.4,4.4,0.8c0.7,0.2,1.4-0.2,1.7-0.8l1.8-3.8c0.2-0.5,0.6-0.8,1.1-0.9c0.4-0.2,0.9-0.1,1.3,0.1l4.9,2.4
					c0.9,0.4,1.2,1.5,0.8,2.4l-1.8,3.8c-0.3,0.6-0.1,1.4,0.4,1.8c0.9,0.7,1.8,1.5,2.7,2.4c0.5,0.5,1.2,0.5,1.8,0.1l3.3-2.3
					c0.4-0.3,0.9-0.4,1.3-0.3c0.5,0.1,0.9,0.4,1.1,0.7l3.1,4.6c0.5,0.8,0.3,2-0.5,2.5l-3.2,2.3c-0.6,0.4-0.8,1.2-0.5,1.8
					c0.2,0.6,0.5,1.2,0.7,1.9c0.2,0.7,0.9,1.1,1.5,1l3.9-0.6c0.5-0.1,0.9,0,1.3,0.3c0.4,0.3,0.6,0.7,0.7,1.2l0,0l0.7,5.6
					c0.1,1-0.6,1.9-1.5,2.1l-3.7,0.6c-0.7,0.1-1.2,0.7-1.3,1.4c-0.1,2-0.4,4.1-0.9,6c-0.2,0.7,0.1,1.4,0.7,1.7l3.3,1.6
					c0.9,0.4,1.2,1.5,0.8,2.4l-2.5,5.2c-0.2,0.5-0.6,0.8-1.1,1c-0.4,0.2-0.9,0.1-1.3-0.1l-3.1-1.5c-0.6-0.3-1.4-0.1-1.8,0.5
					c-0.7,1-1.5,2-2.3,2.9c-0.5,0.5-0.5,1.3-0.2,1.9l1.9,2.8c0.5,0.8,0.3,2-0.5,2.5l-4.6,3.3c-0.4,0.3-0.9,0.4-1.3,0.3
					c-0.5-0.1-0.9-0.3-1.1-0.7l-1.8-2.7c-0.4-0.6-1.1-0.8-1.8-0.5c-1.2,0.6-2.5,1.1-3.7,1.5c-0.7,0.2-1.1,0.9-1,1.6l0.3,3.3
					c0.1,1-0.6,1.9-1.6,2l-5.5,0.6C107.1,151.4,107,151.4,107,151.4z M98.8,144c0.1,0,0.3,0,0.4,0.1c1.5,0.4,3,0.7,4.6,0.8
					c0.8,0.1,1.5,0.8,1.6,1.6l0.3,3.3c0,0.4,0.2,0.8,0.5,1c0.3,0.2,0.7,0.4,1,0.3l5.5-0.6c0.8-0.1,1.4-0.8,1.3-1.6l-0.3-3.3
					c-0.1-0.9,0.5-1.7,1.3-1.9c1.2-0.4,2.5-0.9,3.7-1.5c0.8-0.4,1.7-0.1,2.2,0.6l1.8,2.7c0.2,0.3,0.5,0.5,0.9,0.6
					c0.4,0.1,0.8,0,1.1-0.3l4.6-3.3c0.7-0.5,0.8-1.4,0.4-2.1l-1.9-2.8c-0.5-0.7-0.4-1.7,0.2-2.3c0.8-0.9,1.6-1.9,2.3-2.9
					c0.5-0.7,1.4-1,2.2-0.6l3.1,1.5c0.3,0.2,0.7,0.2,1.1,0.1c0.4-0.1,0.7-0.4,0.9-0.8l2.5-5.2c0.4-0.7,0.1-1.6-0.6-2l-3.3-1.6
					c-0.7-0.4-1.1-1.2-0.9-2.1c0.5-1.9,0.8-3.9,0.9-6c0-0.9,0.7-1.6,1.5-1.7l3.7-0.6c0.8-0.1,1.4-0.9,1.3-1.7l-0.7-5.6
					c-0.1-0.4-0.3-0.8-0.6-1c-0.3-0.2-0.7-0.3-1.1-0.3l-3.9,0.6c-0.8,0.1-1.6-0.4-1.9-1.2c-0.2-0.7-0.5-1.3-0.7-1.9
					c-0.3-0.8-0.1-1.7,0.6-2.2l3.2-2.3c0.7-0.5,0.8-1.4,0.4-2.1l-3.1-4.6c-0.2-0.3-0.5-0.5-0.9-0.6c-0.4-0.1-0.8,0-1.1,0.3l-3.3,2.3
					c-0.7,0.5-1.6,0.4-2.2-0.2c-0.8-0.8-1.7-1.6-2.7-2.3c-0.7-0.5-0.9-1.5-0.5-2.2l1.8-3.8c0.4-0.7,0.1-1.6-0.6-2l-4.9-2.4
					c-0.3-0.2-0.7-0.2-1.1-0.1c-0.4,0.1-0.7,0.4-0.9,0.8l-1.8,3.8c-0.4,0.8-1.2,1.2-2.1,1c-1.4-0.4-2.9-0.6-4.3-0.8
					c-0.8-0.1-1.5-0.8-1.6-1.6l-0.3-4.1c0-0.4-0.2-0.8-0.5-1c-0.3-0.2-0.7-0.3-1-0.3l-5.5,0.6c-0.8,0.1-1.4,0.8-1.3,1.7l0.3,4
					c0.1,0.9-0.5,1.7-1.3,1.9c-1.2,0.4-2.3,0.8-3.4,1.3c-0.8,0.3-1.7,0.1-2.1-0.6l-2.2-3.3c-0.2-0.3-0.5-0.5-0.9-0.6
					c-0.4-0.1-0.8,0-1.1,0.3l-4.6,3.3C84.2,87,84,88,84.4,88.6l2.2,3.2c0.5,0.7,0.4,1.7-0.2,2.3c-0.8,0.8-1.5,1.7-2.2,2.6
					c-0.5,0.7-1.4,0.9-2.2,0.5l-3.3-1.6c-0.3-0.2-0.7-0.2-1.1-0.1c-0.4,0.1-0.7,0.4-0.9,0.8l-2.5,5.2c-0.4,0.7-0.1,1.6,0.6,2
					l3.1,1.5c0.8,0.4,1.1,1.3,0.9,2.1c-0.5,1.9-0.9,3.9-1.1,5.9c-0.1,0.8-0.7,1.6-1.5,1.7l-3.4,0.5c-0.8,0.1-1.4,0.9-1.3,1.7
					l0.7,5.6c0,0.4,0.2,0.7,0.6,1c0.3,0.2,0.7,0.3,1.1,0.3l3.2-0.5c0.8-0.1,1.7,0.4,1.9,1.2c0.2,0.8,0.5,1.6,0.8,2.3
					c0.3,0.8,0,1.7-0.7,2.2l-2.7,2c-0.7,0.5-0.8,1.4-0.4,2.1l3.1,4.6c0.2,0.3,0.5,0.5,0.9,0.6c0.4,0.1,0.8,0,1.1-0.3l2.7-1.9
					c0.7-0.5,1.7-0.4,2.2,0.2c0.9,0.9,1.8,1.8,2.9,2.6c0.7,0.5,0.9,1.5,0.5,2.2l-1.4,2.9c-0.4,0.8-0.1,1.6,0.6,2l4.9,2.4
					c0.3,0.2,0.7,0.2,1.1,0.1c0.4-0.1,0.7-0.4,0.9-0.8l1.4-2.9C97.4,144.4,98.1,144,98.8,144z M106.6,136.7c-3.1,0-6.3-0.7-9.1-2.1
					l0,0c-10.7-5.2-15-18.5-9.6-29.6c2.7-5.5,7.3-9.7,12.9-11.6c5.4-1.9,11.1-1.5,16.1,0.9c10.7,5.2,15,18.5,9.6,29.6
					c-2.7,5.5-7.2,9.7-12.9,11.6C111.3,136.3,109,136.7,106.6,136.7z M107.8,92.5c-2.3,0-4.6,0.4-6.9,1.2c-5.6,1.9-10.1,6-12.7,11.5
					c-5.3,11-1,24.1,9.5,29.2l0,0c4.9,2.4,10.6,2.8,15.9,0.9c5.6-1.9,10.1-6,12.7-11.4c5.3-11,1-24.1-9.5-29.2
					C113.9,93.2,110.8,92.5,107.8,92.5z"/>
			</g>
		</g>
	</g>
</g>
</svg>
